<svg width="80" height="80" viewBox="0 0 80 80" fill="none"
  xmlns="http://www.w3.org/2000/svg">
  <path
    fill-rule="evenodd"
    clip-rule="evenodd"
    d="M51.0701 35.7786C51.0701 41.8924 46.1138 46.8486 40 46.8486C33.8862 46.8486 28.9299 41.8924 28.9299 35.7786C28.9299 29.6647 33.8862 24.7085 40 24.7085C46.1138 24.7085 51.0701 29.6647 51.0701 35.7786ZM47.38 35.7786C47.38 39.8545 44.0759 43.1586 40 43.1586C35.9241 43.1586 32.6199 39.8545 32.6199 35.7786C32.6199 31.7027 35.9241 28.3985 40 28.3985C44.0759 28.3985 47.38 31.7027 47.38 35.7786Z"
    fill="#221b00"
  />
  <path
    d="M40 52.3837C28.0547 52.3837 17.877 59.4472 14 69.3431C14.9445 70.281 15.9394 71.168 16.9803 72C19.8673 62.9144 28.9239 56.0737 40 56.0737C51.0761 56.0737 60.1327 62.9145 63.0197 72C64.0606 71.1681 65.0555 70.281 66 69.3431C62.1231 59.4472 51.9453 52.3837 40 52.3837Z"
    fill="#221b00"
  />
</svg>
