<svg width="320" height="320" viewBox="0 0 320 320" fill="none" xmlns="http://www.w3.org/2000/svg">
  <rect width="320" height="320" rx="72" fill="#5865F2" />
  <path
    d="M237.749 88.405C223.249 81.6755 207.745 76.7848 191.536 74C189.546 77.57 187.22 82.3718 185.617 86.1916C168.386 83.6212 151.314 83.6212 134.4 86.1916C132.797 82.3718 130.419 77.57 128.41 74C112.184 76.7848 96.6617 81.6935 82.1618 88.4406C52.9153 132.28 44.9871 175.03 48.9512 217.173C68.349 231.542 87.1478 240.27 105.629 245.982C110.193 239.753 114.262 233.13 117.768 226.151C111.091 223.634 104.696 220.529 98.6527 216.923C100.256 215.745 101.824 214.513 103.339 213.246C140.196 230.346 180.243 230.346 216.66 213.246C218.193 214.513 219.761 215.745 221.347 216.923C215.286 220.546 208.873 223.652 202.196 226.169C205.702 233.13 209.754 239.771 214.335 246C232.834 240.288 251.65 231.56 271.048 217.173C275.699 168.318 263.102 125.961 237.749 88.405ZM122.79 191.255C111.725 191.255 102.652 181.009 102.652 168.532C102.652 156.055 111.532 145.792 122.79 145.792C134.048 145.792 143.121 156.037 142.927 168.532C142.945 181.009 134.048 191.255 122.79 191.255ZM197.21 191.255C186.145 191.255 177.072 181.009 177.072 168.532C177.072 156.055 185.951 145.792 197.21 145.792C208.468 145.792 217.541 156.037 217.347 168.532C217.347 181.009 208.468 191.255 197.21 191.255Z"
    fill="white" />
</svg>