<svg width="320" height="320" viewBox="0 0 320 320" fill="none" xmlns="http://www.w3.org/2000/svg">
  <g clip-path="url(#clip-0)">
    <rect width="320" height="320" rx="160" fill="white" />
    <path
      d="M160.052 0C93.2538 0 73.7176 0.0689376 69.9202 0.383999C56.2121 1.52378 47.6821 3.68277 38.3889 8.31073C31.2273 11.8681 25.579 15.9915 20.0047 21.7717C9.8528 32.3128 3.7001 45.2813 1.47278 60.6968C0.389956 68.1805 0.0748918 69.7067 0.0109119 107.933C-0.0136399 120.675 0.0109119 137.444 0.0109119 159.937C0.0109119 226.7 0.0846879 246.221 0.404708 250.013C1.5122 263.355 3.60406 271.75 8.03403 280.932C16.5002 298.509 32.6693 311.704 51.7181 316.627C58.3139 318.326 65.5986 319.261 74.9507 319.705C78.9131 319.877 119.299 320 159.71 320C200.121 320 240.532 319.951 244.396 319.754C255.224 319.244 261.513 318.4 268.465 316.603C287.637 311.655 303.511 298.657 312.149 280.834C316.493 271.873 318.696 263.158 319.692 250.512C319.909 247.755 320 203.796 320 159.895C320 115.988 319.902 72.1094 319.685 69.3522C318.676 56.502 316.473 47.8613 311.989 38.7281C308.31 31.2518 304.225 25.6685 298.293 19.9599C287.708 9.84697 274.763 3.69257 259.337 1.46718C251.863 0.386419 250.374 0.0663987 212.129 0H160.052Z"
      fill="url(#paint-0)" />
    <path
      d="M160.052 0C93.2538 0 73.7176 0.0689376 69.9202 0.383999C56.2121 1.52378 47.6821 3.68277 38.3889 8.31073C31.2273 11.8681 25.579 15.9915 20.0047 21.7717C9.8528 32.3128 3.7001 45.2813 1.47278 60.6968C0.389956 68.1805 0.0748918 69.7067 0.0109119 107.933C-0.0136399 120.675 0.0109119 137.444 0.0109119 159.937C0.0109119 226.7 0.0846879 246.221 0.404708 250.013C1.5122 263.355 3.60406 271.75 8.03403 280.932C16.5002 298.509 32.6693 311.704 51.7181 316.627C58.3139 318.326 65.5986 319.261 74.9507 319.705C78.9131 319.877 119.299 320 159.71 320C200.121 320 240.532 319.951 244.396 319.754C255.224 319.244 261.513 318.4 268.465 316.603C287.637 311.655 303.511 298.657 312.149 280.834C316.493 271.873 318.696 263.158 319.692 250.512C319.909 247.755 320 203.796 320 159.895C320 115.988 319.902 72.1094 319.685 69.3522C318.676 56.502 316.473 47.8613 311.989 38.7281C308.31 31.2518 304.225 25.6685 298.293 19.9599C287.708 9.84697 274.763 3.69257 259.337 1.46718C251.863 0.386419 250.374 0.0663987 212.129 0H160.052Z"
      fill="url(#paint-1)" />
    <path
      d="M160.052 0C93.2538 0 73.7176 0.0689376 69.9202 0.383999C56.2121 1.52378 47.6821 3.68277 38.3889 8.31073C31.2273 11.8681 25.579 15.9915 20.0047 21.7717C9.8528 32.3128 3.7001 45.2813 1.47278 60.6968C0.389956 68.1805 0.0748918 69.7067 0.0109119 107.933C-0.0136399 120.675 0.0109119 137.444 0.0109119 159.937C0.0109119 226.7 0.0846879 246.221 0.404708 250.013C1.5122 263.355 3.60406 271.75 8.03403 280.932C16.5002 298.509 32.6693 311.704 51.7181 316.627C58.3139 318.326 65.5986 319.261 74.9507 319.705C78.9131 319.877 119.299 320 159.71 320C200.121 320 240.532 319.951 244.396 319.754C255.224 319.244 261.513 318.4 268.465 316.603C287.637 311.655 303.511 298.657 312.149 280.834C316.493 271.873 318.696 263.158 319.692 250.512C319.909 247.755 320 203.796 320 159.895C320 115.988 319.902 72.1094 319.685 69.3522C318.676 56.502 316.473 47.8613 311.989 38.7281C308.31 31.2518 304.225 25.6685 298.293 19.9599C287.708 9.84697 274.763 3.69257 259.337 1.46718C251.863 0.386419 250.374 0.0663987 212.129 0H160.052Z"
      fill="url(#paint-2)" />
    <path
      d="M160.052 0C93.2538 0 73.7176 0.0689376 69.9202 0.383999C56.2121 1.52378 47.6821 3.68277 38.3889 8.31073C31.2273 11.8681 25.579 15.9915 20.0047 21.7717C9.8528 32.3128 3.7001 45.2813 1.47278 60.6968C0.389956 68.1805 0.0748918 69.7067 0.0109119 107.933C-0.0136399 120.675 0.0109119 137.444 0.0109119 159.937C0.0109119 226.7 0.0846879 246.221 0.404708 250.013C1.5122 263.355 3.60406 271.75 8.03403 280.932C16.5002 298.509 32.6693 311.704 51.7181 316.627C58.3139 318.326 65.5986 319.261 74.9507 319.705C78.9131 319.877 119.299 320 159.71 320C200.121 320 240.532 319.951 244.396 319.754C255.224 319.244 261.513 318.4 268.465 316.603C287.637 311.655 303.511 298.657 312.149 280.834C316.493 271.873 318.696 263.158 319.692 250.512C319.909 247.755 320 203.796 320 159.895C320 115.988 319.902 72.1094 319.685 69.3522C318.676 56.502 316.473 47.8613 311.989 38.7281C308.31 31.2518 304.225 25.6685 298.293 19.9599C287.708 9.84697 274.763 3.69257 259.337 1.46718C251.863 0.386419 250.374 0.0663987 212.129 0H160.052Z"
      fill="url(#paint-3)" />
    <path
      d="M160.009 64C133.937 64 130.665 64.1139 120.425 64.58C110.204 65.048 103.228 66.666 97.1243 69.0401C90.8102 71.492 85.4541 74.772 80.1182 80.1099C74.7782 85.446 71.4981 90.802 69.0381 97.1139C66.658 103.22 65.038 110.198 64.578 120.414C64.1201 130.654 64 133.928 64 160C64 186.072 64.116 189.334 64.58 199.574C65.0501 209.793 66.668 216.77 69.04 222.874C71.494 229.188 74.7741 234.544 80.1121 239.88C85.4462 245.22 90.8023 248.508 97.1123 250.96C103.22 253.334 110.198 254.952 120.416 255.42C130.657 255.885 133.927 256 159.997 256C186.071 256 189.333 255.886 199.574 255.419C209.793 254.952 216.778 253.334 222.886 250.96C229.197 248.508 234.546 245.22 239.879 239.88C245.219 234.544 248.5 229.188 250.959 222.876C253.32 216.77 254.94 209.792 255.42 199.576C255.88 189.336 256 186.072 256 160C256 133.928 255.88 130.656 255.42 120.416C254.94 110.196 253.32 103.22 250.959 97.116C248.5 90.802 245.219 85.4459 239.879 80.1099C234.54 74.7699 229.2 71.49 222.879 69.04C216.759 66.666 209.78 65.048 199.559 64.58C189.319 64.1139 186.059 64 159.979 64H160.009ZM151.397 81.3C153.953 81.296 156.805 81.3 160.009 81.3C185.641 81.3 188.679 81.392 198.801 81.852C208.161 82.28 213.241 83.8439 216.625 85.1579C221.106 86.8979 224.299 88.978 227.658 92.3379C231.017 95.698 233.098 98.898 234.841 103.378C236.156 106.758 237.722 111.838 238.148 121.198C238.608 131.318 238.708 134.358 238.708 159.978C238.708 185.598 238.608 188.638 238.148 198.758C237.719 208.118 236.156 213.198 234.841 216.578C233.102 221.058 231.017 224.248 227.658 227.605C224.298 230.966 221.107 233.046 216.625 234.785C213.245 236.106 208.161 237.666 198.801 238.094C188.681 238.554 185.641 238.654 160.009 238.654C134.375 238.654 131.337 238.554 121.216 238.094C111.856 237.662 106.776 236.098 103.39 234.784C98.9103 233.044 95.7102 230.964 92.3503 227.604C88.9903 224.244 86.9103 221.052 85.1661 216.57C83.8522 213.19 82.2862 208.11 81.8602 198.75C81.4002 188.63 81.3081 185.59 81.3081 159.954C81.3081 134.318 81.4002 131.294 81.8602 121.174C82.2883 111.814 83.8522 106.734 85.1661 103.35C86.9062 98.8699 88.9903 95.67 92.3503 92.31C95.7102 88.9499 98.9103 86.87 103.39 85.126C106.774 83.806 111.856 82.246 121.216 81.816C130.072 81.4159 133.505 81.296 151.397 81.2759V81.3ZM211.253 97.24C204.893 97.24 199.733 102.394 199.733 108.756C199.733 115.116 204.893 120.276 211.253 120.276C217.614 120.276 222.774 115.116 222.774 108.756C222.774 102.396 217.614 97.236 211.253 97.236V97.24ZM160.009 110.7C132.783 110.7 110.708 132.774 110.708 160C110.708 187.226 132.783 209.29 160.009 209.29C187.235 209.29 209.301 187.226 209.301 160C209.301 132.774 187.233 110.7 160.007 110.7H160.009ZM160.009 128C177.681 128 192.009 142.326 192.009 160C192.009 177.672 177.681 192 160.009 192C142.334 192 128.008 177.672 128.008 160C128.008 142.326 142.334 128 160.009 128Z"
      fill="white" />
  </g>
  <defs>
    <radialGradient id="paint-0" cx="0" cy="0" r="1" gradientUnits="userSpaceOnUse"
      gradientTransform="translate(309.667 149.988) rotate(164.25) scale(204.462 147.305)">
      <stop stop-color="#FF005F" />
      <stop offset="1" stop-color="#FC01D8" />
    </radialGradient>
    <radialGradient id="paint-1" cx="0" cy="0" r="1" gradientUnits="userSpaceOnUse"
      gradientTransform="translate(84.9976 344.647) rotate(-90) scale(255.43 271.006)">
      <stop stop-color="#FFCC00" />
      <stop offset="0.1242" stop-color="#FFCC00" />
      <stop offset="0.5672" stop-color="#FE4A05" />
      <stop offset="0.6942" stop-color="#FF0F3F" />
      <stop offset="1" stop-color="#FE0657" stop-opacity="0" />
    </radialGradient>
    <radialGradient id="paint-2" cx="0" cy="0" r="1" gradientUnits="userSpaceOnUse"
      gradientTransform="translate(168.086 315.487) rotate(-59.8703) scale(105.623 137.509)">
      <stop stop-color="#FFCC00" />
      <stop offset="1" stop-color="#FFCC00" stop-opacity="0" />
    </radialGradient>
    <radialGradient id="paint-3" cx="0" cy="0" r="1" gradientUnits="userSpaceOnUse"
      gradientTransform="translate(43.4171 13.0303) rotate(164.274) scale(202.194 68.8873)">
      <stop stop-color="#780CFF" />
      <stop offset="1" stop-color="#820BFF" stop-opacity="0" />
    </radialGradient>
    <clipPath id="clip-0">
      <rect width="320" height="320" rx="160" fill="white" />
    </clipPath>
  </defs>
</svg>