<svg width="320" height="320" viewBox="0 0 320 320" fill="none" xmlns="http://www.w3.org/2000/svg">
  <g clip-path="url(#clip0_4939_13846)">
    <path
      d="M160.052 0C93.2538 0 73.7176 0.0689376 69.9202 0.383999C56.2121 1.52378 47.6821 3.68277 38.3889 8.31073C31.2273 11.8681 25.579 15.9915 20.0047 21.7717C9.8528 32.3128 3.7001 45.2813 1.47278 60.6968C0.389956 68.1805 0.0748918 69.7067 0.0109119 107.933C-0.0136399 120.675 0.0109119 137.444 0.0109119 159.937C0.0109119 226.7 0.0846879 246.221 0.404708 250.013C1.5122 263.355 3.60406 271.75 8.03403 280.932C16.5002 298.509 32.6693 311.704 51.7181 316.627C58.3139 318.326 65.5986 319.261 74.9507 319.705C78.9131 319.877 119.299 320 159.71 320C200.121 320 240.532 319.951 244.396 319.754C255.224 319.244 261.513 318.4 268.465 316.603C287.637 311.655 303.511 298.657 312.149 280.834C316.493 271.873 318.696 263.158 319.692 250.512C319.909 247.755 320 203.796 320 159.895C320 115.988 319.902 72.1094 319.685 69.3522C318.676 56.502 316.473 47.8613 311.989 38.7281C308.31 31.2518 304.225 25.6685 298.293 19.9599C287.708 9.84697 274.763 3.69257 259.337 1.46718C251.863 0.386419 250.374 0.0663987 212.129 0H160.052Z"
      fill="url(#paint0)" />
    <path
      d="M160.052 0C93.2538 0 73.7176 0.0689376 69.9202 0.383999C56.2121 1.52378 47.6821 3.68277 38.3889 8.31073C31.2273 11.8681 25.579 15.9915 20.0047 21.7717C9.8528 32.3128 3.7001 45.2813 1.47278 60.6968C0.389956 68.1805 0.0748918 69.7067 0.0109119 107.933C-0.0136399 120.675 0.0109119 137.444 0.0109119 159.937C0.0109119 226.7 0.0846879 246.221 0.404708 250.013C1.5122 263.355 3.60406 271.75 8.03403 280.932C16.5002 298.509 32.6693 311.704 51.7181 316.627C58.3139 318.326 65.5986 319.261 74.9507 319.705C78.9131 319.877 119.299 320 159.71 320C200.121 320 240.532 319.951 244.396 319.754C255.224 319.244 261.513 318.4 268.465 316.603C287.637 311.655 303.511 298.657 312.149 280.834C316.493 271.873 318.696 263.158 319.692 250.512C319.909 247.755 320 203.796 320 159.895C320 115.988 319.902 72.1094 319.685 69.3522C318.676 56.502 316.473 47.8613 311.989 38.7281C308.31 31.2518 304.225 25.6685 298.293 19.9599C287.708 9.84697 274.763 3.69257 259.337 1.46718C251.863 0.386419 250.374 0.0663987 212.129 0H160.052Z"
      fill="url(#paint1)" />
    <path
      d="M160.052 0C93.2538 0 73.7176 0.0689376 69.9202 0.383999C56.2121 1.52378 47.6821 3.68277 38.3889 8.31073C31.2273 11.8681 25.579 15.9915 20.0047 21.7717C9.8528 32.3128 3.7001 45.2813 1.47278 60.6968C0.389956 68.1805 0.0748918 69.7067 0.0109119 107.933C-0.0136399 120.675 0.0109119 137.444 0.0109119 159.937C0.0109119 226.7 0.0846879 246.221 0.404708 250.013C1.5122 263.355 3.60406 271.75 8.03403 280.932C16.5002 298.509 32.6693 311.704 51.7181 316.627C58.3139 318.326 65.5986 319.261 74.9507 319.705C78.9131 319.877 119.299 320 159.71 320C200.121 320 240.532 319.951 244.396 319.754C255.224 319.244 261.513 318.4 268.465 316.603C287.637 311.655 303.511 298.657 312.149 280.834C316.493 271.873 318.696 263.158 319.692 250.512C319.909 247.755 320 203.796 320 159.895C320 115.988 319.902 72.1094 319.685 69.3522C318.676 56.502 316.473 47.8613 311.989 38.7281C308.31 31.2518 304.225 25.6685 298.293 19.9599C287.708 9.84697 274.763 3.69257 259.337 1.46718C251.863 0.386419 250.374 0.0663987 212.129 0H160.052Z"
      fill="url(#paint2)" />
    <path
      d="M160.052 0C93.2538 0 73.7176 0.0689376 69.9202 0.383999C56.2121 1.52378 47.6821 3.68277 38.3889 8.31073C31.2273 11.8681 25.579 15.9915 20.0047 21.7717C9.8528 32.3128 3.7001 45.2813 1.47278 60.6968C0.389956 68.1805 0.0748918 69.7067 0.0109119 107.933C-0.0136399 120.675 0.0109119 137.444 0.0109119 159.937C0.0109119 226.7 0.0846879 246.221 0.404708 250.013C1.5122 263.355 3.60406 271.75 8.03403 280.932C16.5002 298.509 32.6693 311.704 51.7181 316.627C58.3139 318.326 65.5986 319.261 74.9507 319.705C78.9131 319.877 119.299 320 159.71 320C200.121 320 240.532 319.951 244.396 319.754C255.224 319.244 261.513 318.4 268.465 316.603C287.637 311.655 303.511 298.657 312.149 280.834C316.493 271.873 318.696 263.158 319.692 250.512C319.909 247.755 320 203.796 320 159.895C320 115.988 319.902 72.1094 319.685 69.3522C318.676 56.502 316.473 47.8613 311.989 38.7281C308.31 31.2518 304.225 25.6685 298.293 19.9599C287.708 9.84697 274.763 3.69257 259.337 1.46718C251.863 0.386419 250.374 0.0663987 212.129 0H160.052Z"
      fill="url(#paint3)" />
    <path
      d="M160.065 41.0886C127.752 41.0886 123.697 41.2297 111.006 41.8069C98.3397 42.3865 89.694 44.3903 82.1289 47.3305C74.3036 50.367 67.6655 54.4291 61.0524 61.0398C54.4343 67.6482 50.3691 74.2812 47.3203 82.0982C44.3706 89.6602 42.3628 98.3019 41.7928 110.954C41.2252 123.635 41.0764 127.69 41.0764 159.979C41.0764 192.267 41.2202 196.307 41.7952 208.989C42.3778 221.645 44.383 230.285 47.3227 237.844C50.3641 245.664 54.4292 252.297 61.0449 258.905C67.6557 265.518 74.2937 269.59 82.114 272.627C89.6839 275.567 98.3323 277.571 110.996 278.151C123.687 278.727 127.74 278.869 160.05 278.869C192.365 278.869 196.408 278.728 209.099 278.15C221.765 277.571 230.421 275.567 237.991 272.627C245.813 269.59 252.442 265.518 259.052 258.905C265.67 252.297 269.736 245.664 272.784 237.847C275.709 230.285 277.717 221.643 278.312 208.991C278.882 196.31 279.031 192.267 279.031 159.979C279.031 127.69 278.882 123.638 278.312 110.956C277.717 98.2994 275.709 89.6602 272.784 82.1008C269.736 74.2812 265.67 67.6481 259.052 61.0398C252.434 54.4265 245.816 50.3645 237.983 47.3303C230.398 44.3903 221.748 42.3865 209.081 41.8069C196.39 41.2297 192.35 41.0886 160.028 41.0886H160.065ZM149.391 62.5136C152.559 62.5087 156.094 62.5136 160.065 62.5136C191.832 62.5136 195.597 62.6276 208.142 63.1972C219.742 63.7273 226.038 65.6641 230.232 67.2914C235.785 69.4463 239.743 72.0223 243.905 76.1834C248.069 80.3447 250.647 84.3077 252.808 89.8558C254.437 94.0417 256.378 100.333 256.906 111.925C257.476 124.458 257.6 128.223 257.6 159.951C257.6 191.68 257.476 195.445 256.906 207.978C256.375 219.57 254.437 225.861 252.808 230.047C250.652 235.595 248.069 239.546 243.905 243.704C239.741 247.866 235.787 250.442 230.232 252.596C226.043 254.231 219.742 256.163 208.142 256.693C195.6 257.263 191.832 257.387 160.065 257.387C128.295 257.387 124.53 257.263 111.987 256.693C100.387 256.158 94.0913 254.221 89.8947 252.594C84.3424 250.439 80.3764 247.863 76.2122 243.702C72.048 239.541 69.4702 235.588 67.3086 230.037C65.6801 225.851 63.7393 219.56 63.2114 207.968C62.6413 195.435 62.5272 191.67 62.5272 159.922C62.5272 128.173 62.6413 124.428 63.2114 111.895C63.7419 100.303 65.6801 94.012 67.3086 89.8212C69.4651 84.2729 72.048 80.31 76.2122 76.1488C80.3764 71.9876 84.3424 69.4117 89.8947 67.2519C94.0887 65.6171 100.387 63.6852 111.987 63.1526C122.963 62.6572 127.217 62.5087 149.391 62.4838L149.391 62.5136ZM223.574 82.2543C215.692 82.2543 209.297 88.6372 209.297 96.5161C209.297 104.393 215.692 110.783 223.574 110.783C231.457 110.783 237.852 104.393 237.852 96.5161C237.852 88.6397 231.457 82.2494 223.574 82.2494L223.574 82.2543ZM160.065 98.9236C126.322 98.9236 98.9644 126.261 98.9644 159.979C98.9644 193.696 126.322 221.021 160.065 221.021C193.807 221.021 221.155 193.696 221.155 159.979C221.155 126.261 193.805 98.9236 160.062 98.9236H160.065ZM160.065 120.349C181.967 120.349 199.724 138.091 199.724 159.979C199.724 181.864 181.967 199.609 160.065 199.609C138.16 199.609 120.405 181.864 120.405 159.979C120.405 138.091 138.16 120.349 160.065 120.349Z"
      fill="white" />
  </g>
  <defs>
    <radialGradient id="paint0" cx="0" cy="0" r="1" gradientUnits="userSpaceOnUse"
      gradientTransform="translate(309.667 149.988) rotate(164.25) scale(204.462 147.305)">
      <stop stop-color="#FF005F" />
      <stop offset="1" stop-color="#FC01D8" />
    </radialGradient>
    <radialGradient id="paint1" cx="0" cy="0" r="1" gradientUnits="userSpaceOnUse"
      gradientTransform="translate(84.9976 344.647) rotate(-90) scale(255.43 271.006)">
      <stop stop-color="#FFCC00" />
      <stop offset="0.1242" stop-color="#FFCC00" />
      <stop offset="0.5672" stop-color="#FE4A05" />
      <stop offset="0.6942" stop-color="#FF0F3F" />
      <stop offset="1" stop-color="#FE0657" stop-opacity="0" />
    </radialGradient>
    <radialGradient id="paint2" cx="0" cy="0" r="1" gradientUnits="userSpaceOnUse"
      gradientTransform="translate(168.086 315.487) rotate(-59.8703) scale(105.623 137.509)">
      <stop stop-color="#FFCC00" />
      <stop offset="1" stop-color="#FFCC00" stop-opacity="0" />
    </radialGradient>
    <radialGradient id="paint3" cx="0" cy="0" r="1" gradientUnits="userSpaceOnUse"
      gradientTransform="translate(43.4171 13.0303) rotate(164.274) scale(202.194 68.8873)">
      <stop stop-color="#780CFF" />
      <stop offset="1" stop-color="#820BFF" stop-opacity="0" />
    </radialGradient>
    <clipPath id="clip0_4939_13846">
      <rect width="320" height="320" fill="white" />
    </clipPath>
  </defs>
</svg>