<svg width="1194" height="790" viewBox="0 0 1194 790" fill="none" xmlns="http://www.w3.org/2000/svg">
  <g filter="url(#blur)">
    <path
      d="M668.006 311.716C668.006 406.809 558.067 483.897 462.974 483.897C367.881 483.897 321 358.855 321 263.762C321 168.669 470.963 98 566.056 98C661.149 98 668.006 216.623 668.006 311.716Z"
      fill="#C5E7FF" />
    <path
      d="M887.006 457.691C887.006 552.784 777.067 629.872 681.974 629.872C586.881 629.872 540 504.83 540 409.737C540 314.644 628.416 193 723.509 193C818.602 193 887.006 362.598 887.006 457.691Z"
      fill="#FFAFD5" />
    <path
      d="M174.68 742.129C174.68 837.222 -162.87 1014.75 -257.963 1014.75C-353.056 1014.75 -471 819.097 -471 724.004C-471 628.911 -149.988 365.671 -54.8953 365.671C40.1977 365.671 174.68 647.036 174.68 742.129Z"
      fill="#FFAFD5" />
    <path
      d="M605.888 893.92C605.888 989.013 80.9775 1024.19 -14.1156 1024.19C-109.209 1024.19 -198.002 858.367 -198.002 763.274C-198.002 668.181 -24.2508 655.283 70.8423 655.283C165.935 655.283 605.888 798.827 605.888 893.92Z"
      fill="#C5E7FF" />
    <path
      d="M1187.76 410.227C1282.85 410.227 1447.16 436.28 1403.36 233.514C1359.56 30.7483 1039.74 -158.425 941.566 -19.0938C843.392 120.237 1092.66 410.227 1187.76 410.227Z"
      fill="#C5E7FF" />
  </g>
  <defs>
    <filter id="blur" x="-671" y="-267" width="2281.64" height="1491.19" filterUnits="userSpaceOnUse"
      color-interpolation-filters="sRGB">
      <feFlood flood-opacity="0" result="BackgroundImageFix" />
      <feBlend mode="normal" in="SourceGraphic" in2="BackgroundImageFix" result="shape" />
      <feGaussianBlur stdDeviation="100" result="effect1_foregroundBlur_412_3839" />
    </filter>
  </defs>
</svg>