<svg width="1194" height="263" viewBox="0 0 1194 263" fill="none" xmlns="http://www.w3.org/2000/svg">
  <g clip-path="url(#clip0_619_3658)">
    <g filter="url(#filter0_f_619_3658)">
      <path
        d="M336.5 -76.75C336.5 -13.7895 113.011 103.75 50.0502 103.75C-12.9103 103.75 -91 -25.7895 -91 -88.75C-91 -151.71 121.54 -326 184.5 -326C247.46 -326 336.5 -139.71 336.5 -76.75Z"
        fill="#62003E" />
      <path
        d="M1154 -90.75C1154 -27.7895 930.511 89.75 867.55 89.75C804.59 89.75 634 -27.7895 634 -90.75C634 -153.71 939.04 -340 1002 -340C1064.96 -340 1154 -153.71 1154 -90.75Z"
        fill="#62003E" />
      <path
        d="M1182.6 140.656C1245.56 140.656 1315.1 141.906 1286.1 7.65555C1257.1 -126.594 982.101 -84.5944 917.101 7.65555C852.101 99.9055 1119.64 140.656 1182.6 140.656Z"
        fill="#00344C" />
      <path
        d="M655.25 -16C655.25 46.9605 307.71 70.25 244.75 70.25C181.79 70.25 123 -39.5395 123 -102.5C123 -165.46 238.04 -174 301 -174C363.96 -174 655.25 -78.9605 655.25 -16Z"
        fill="#00344C" />
    </g>
  </g>
  <defs>
    <filter id="filter0_f_619_3658" x="-191" y="-440" width="1583.88" height="680.656" filterUnits="userSpaceOnUse"
      color-interpolation-filters="sRGB">
      <feFlood flood-opacity="0" result="BackgroundImageFix" />
      <feBlend mode="normal" in="SourceGraphic" in2="BackgroundImageFix" result="shape" />
      <feGaussianBlur stdDeviation="50" result="effect1_foregroundBlur_619_3658" />
    </filter>
    <clipPath id="clip0_619_3658">
      <rect width="1194" height="263" fill="white" />
    </clipPath>
  </defs>
</svg>