<svg width="149" height="96" viewBox="0 0 149 96" fill="none"
  xmlns="http://www.w3.org/2000/svg">
  <g filter="url(#filter0_ddd_3385_5753)">
    <path d="M108.764 12.4472C107.964 12.9217 105.636 12.9582 99.7818 12.5932C93.2727 12.1916 91.3818 12.9947 91.4909 16.2434C91.6 19.3095 90.6182 20.0031 89.6 17.5574C87.8182 13.3597 79.3454 13.1407 74.2182 17.1924C73.0182 18.1415 70.1818 20.1491 67.9636 21.6091C63.9273 24.2738 63.9273 24.2738 63.7454 27.5589C63.4182 32.9977 61.3091 37.378 56.6545 42.2692C54.2909 44.7148 54.2909 45.1529 56.2182 48.8761C58.3273 52.9278 60.0727 53.7308 63.3818 52.0517C64.3273 51.5772 65.7454 50.9932 66.5454 50.7376C67.3454 50.4821 68.1091 50.1901 68.2545 50.0441C68.6545 49.7156 67.5273 42.4152 66.9091 41.1376C65.9636 39.2395 66.2182 38.035 68.2545 35.0783C69.2727 33.5453 70.2545 32.2312 70.3636 32.1217C70.4727 32.0122 70.9454 31.3551 71.3818 30.5886C73.3454 27.3764 76.1818 25.8434 81.0909 25.3688C82.9818 25.1863 84.2909 24.7848 86.1454 23.8357C89.8545 21.9377 96.2545 20.4776 100.909 20.4411C106.218 20.4411 112.4 25.0768 113.455 29.8221C113.673 30.9171 113.891 31.0631 115.745 31.5742C116.873 31.8662 118.618 32.3772 119.636 32.6692C121.782 33.2897 122.8 32.6692 123.491 30.2601C124.364 27.4129 122.836 24.8213 119.273 23.0327C116.909 21.8646 115.055 19.8205 112.545 15.7323C110.255 12.0091 110 11.7536 108.764 12.4472Z" fill="#E20098"/>
    <path d="M98 22.9232C98 23.1057 98.9455 23.6167 100.109 24.0548C104.655 25.9164 108.436 28.6905 109.673 31.0631C110.509 32.7422 111.091 32.8882 111.091 31.4281C111.091 27.5224 108.436 24.7483 103.127 23.1422C101.309 22.5947 98 22.4487 98 22.9232Z" fill="#E20098"/>
    <path d="M88 25.8799C84.8 27.3764 84.4 27.997 84.2545 31.3551C84.1091 34.9323 84.2909 35.1878 86.7636 34.8958C89.7091 34.5308 89.6727 34.5673 89.7454 30.0411C89.7818 27.2669 89.9636 25.8434 90.3272 25.4418C91.0182 24.5658 90.5091 24.6753 88 25.8799Z" fill="#E20098"/>
    <path d="M92.5818 25.9893C92.3636 26.6464 92.1091 27.8874 91.9636 28.727C91.6727 30.5521 91.7454 30.5521 94.7273 29.749C98.9454 28.6175 101.418 29.1285 105.309 31.9757C108.473 34.2753 109.127 33.4357 106.4 30.5521C103.6 27.5954 97.7818 24.8213 94.3273 24.8213C93.1273 24.8213 92.9091 24.9308 92.5818 25.9893Z" fill="#E20098"/>
    <path d="M79.0909 27.5225C75.3818 28.508 73.6727 30.4426 73.0545 34.3118C72.8 35.7719 72.8364 35.8814 73.4909 35.6259C74.7636 35.0783 78.1818 34.3483 79.3454 34.3118C80.7273 34.3118 81.0182 33.9468 81.1273 31.9757C81.1636 31.1361 81.2364 30.2966 81.2364 30.0411C81.2727 29.8221 81.6727 29.1285 82.1818 28.5445C83.5273 26.9384 82.5091 26.5734 79.0909 27.5225Z" fill="#E20098"/>
    <path d="M113.164 34.2023C113.018 34.3118 112.909 35.4799 112.909 36.7939C112.909 39.13 112.909 39.1666 114.836 41.2107C115.855 42.3422 117.055 43.9483 117.455 44.7513C117.855 45.5179 118.291 46.2479 118.4 46.3574C118.727 46.6494 119.818 51.7962 119.818 53.1468C119.818 54.3513 118.836 57.308 118.327 57.673C118.182 57.7825 117.818 58.4761 117.527 59.2061C116.945 60.5567 114.909 62.3088 112.909 63.1483C112.327 63.4038 111.818 63.8783 111.818 64.2069C111.818 65.2289 106.436 70.0107 104.582 70.5947C99.1636 72.3833 89.6364 72.7118 85.3818 71.2152C80.2182 69.4631 75.2 65.5939 71.8182 60.8487C71.1636 59.8996 70.4727 59.1331 70.3273 59.1331C69.8909 59.1331 69.2727 56.6145 69.2727 54.9354C69.2727 52.5993 68.9454 52.3802 66.8364 53.0738C60.6909 55.1179 60 59.4616 64.6909 66.2875C65.8182 67.857 67.3818 70.5217 68.2182 72.1643C70.4364 76.581 72.4727 77.8221 75.6364 76.727C77.8909 75.924 79.3454 75.997 81.1636 76.9825C81.6364 77.2015 83.7818 77.4935 85.9636 77.6396C90.4364 77.8951 91.0182 77.7491 96.3273 75.1574C99.6727 73.4783 100.036 73.4418 101.091 74.6099C103.455 77.165 110.764 76.8 112.873 74.0259C115.018 71.2152 118.182 68.7696 123.273 65.8859C127.236 63.6593 130.182 61.8707 130.4 61.5787C130.509 61.4327 130.327 60.1916 129.927 58.8411C129.418 56.9065 129.273 55.1179 129.273 50.2631C129.273 43.1088 129.127 42.5612 126.291 39.5681C123.127 36.2099 114.618 32.7057 113.164 34.2023Z" fill="#E20098"/>
    <path d="M108.655 35.2243C107.855 35.8084 107.855 35.8084 108.582 37.67C109.309 39.5316 109.309 39.5316 108.545 42.0137C107.673 44.9338 107.673 44.9338 108.364 44.6783C109.564 44.2038 110.909 41.1742 110.909 38.8745C110.909 34.9688 110.327 34.0563 108.655 35.2243Z" fill="#E20098"/>
    <path d="M112.073 42.5977C111.091 44.4593 109.527 46.0654 106.582 48.1095C104.618 49.4601 104.582 50.0076 106.4 50.5552C107.091 50.7742 108.036 51.1392 108.473 51.3947C110.255 52.4167 112.727 48.7666 113.273 44.3498C113.745 40.7361 113.309 40.1521 112.073 42.5977Z" fill="#E20098"/>
    <path d="M115.345 45.2624C115.236 45.5544 115.055 46.4304 114.945 47.2335C114.509 50.4091 110.436 56.943 108.036 58.2935C107.127 58.8046 107.127 61.6517 108.036 62.3088C109.418 63.3308 110.4 63.2943 111.236 62.2358C111.673 61.6882 112.764 60.8852 113.636 60.4472C116.436 59.0966 116.727 58.3666 116.691 52.8183C116.655 48.219 115.891 43.8388 115.345 45.2624Z" fill="#E20098"/>
    <path d="M74.5818 60.1916C73.5636 61.8342 79.0182 66.324 84.9091 68.6966C88.7636 70.2297 91.2727 70.5947 94.8 70.1202C96.4363 69.8646 99.0182 69.5361 100.436 69.3536C104.4 68.8426 108.145 66.6525 107.6 65.1924C107.345 64.4989 107.382 64.4989 104.909 65.1559C100.727 66.2875 94.8727 65.5939 92.6545 63.7323C89.2363 60.8487 88.1454 60.5567 83.6363 61.3597C81.6727 61.6882 81.1636 61.6517 79.2363 60.9582C76.4727 59.9361 74.8727 59.6806 74.5818 60.1916Z" fill="#E20098"/>
    <path d="M96.6545 30.7346C96.4727 30.9901 96.1818 31.5011 96.0727 31.8297C95.7454 32.7057 95.0909 32.6692 95.0909 31.7567C95.0909 30.9171 93.9636 30.7711 92.3636 31.3916C91.4545 31.7202 91.4182 31.8662 91.5273 34.0198C91.6364 36.3559 92.2909 37.2319 92.6909 35.5894C92.9818 34.4213 93.5636 34.4213 94 35.5894C94.2545 36.2099 94.6182 36.5019 95.2364 36.5019C95.8545 36.5019 96.1818 36.2464 96.3273 35.5894C96.6182 34.4943 97.4909 34.3848 97.7454 35.4434C98.2182 37.2319 98.9091 35.8814 98.9091 33.1802C98.9091 30.5521 98.8727 30.4791 97.9636 30.3696C97.4545 30.2966 96.8727 30.4791 96.6545 30.7346Z" fill="#C5E7FF"/>
    <path d="M100.764 32.1582C100.073 35.7719 100.909 37.232 103.745 37.232C105.782 37.232 106.109 37.4145 105.6 38.3635C105.164 39.2031 104.582 39.2396 102.327 38.4365C100.145 37.6335 99.4545 38.108 99.2 40.6266C98.9454 42.7072 99.0545 42.7437 103.273 42.4517C107.782 42.1597 108.182 41.7582 107.309 38.327C106.982 37.0859 106.727 35.5894 106.727 35.0053C106.727 33.5453 105.745 33.1802 104.836 34.3118C103.927 35.4434 102.945 34.8958 102.8 33.1802C102.691 32.0852 101.927 31.0266 101.236 31.0266C101.127 31.0266 100.909 31.5377 100.764 32.1582Z" fill="#C5E7FF"/>
    <path d="M75.2727 36.6844C74.2909 36.9764 73.3454 37.1954 73.2363 37.2319C72.5818 37.2684 71.4545 38.8745 71.4545 39.7871C71.4545 41.5757 72.9091 44.9338 74.4363 46.5764C76.2545 48.584 77.6363 49.2046 81.6 49.8251C85.0909 50.4091 86.5818 50.9202 86.8727 51.6867C87.4909 53.3293 81.6727 53.6943 77.6 52.2342C74.0363 50.9932 73.1636 51.2122 72.8 53.4388C72.2545 56.724 73.2363 57.7825 78 59.0966C87.0545 61.6152 93.5273 57.0525 91.4545 49.6061C90.8727 47.489 89.8182 46.8319 85.8182 45.9924C80.8 44.9703 79.4182 43.9118 81.3454 42.5612C82.4363 41.7947 83.7818 41.8312 86.8363 42.7437C89.7454 43.6198 90.8 43.4738 91.3818 42.1597C91.9636 40.9186 91.9273 38.619 91.3818 37.8525C90.2545 36.3559 79.3091 35.5529 75.2727 36.6844Z" fill="white"/>
    <path d="M94.4 39.2031C94.1091 39.5681 94 41.7947 94.0727 46.5764C94.1454 53.0738 94.1091 53.5848 93.3091 55.6654C91.6364 59.8996 91.8545 61.6882 94.0727 61.6882C95.4182 61.6882 96.1818 60.4472 96.1818 58.33C96.1818 55.0814 97.8545 55.9574 98.9454 59.7901C100.473 65.0464 103.564 64.6084 105.818 58.8411C107.127 55.5194 106.873 54.7529 104.255 53.8768C102.291 53.2198 100.4 51.7232 100.618 50.9932C100.691 50.7742 101.673 50.0441 102.8 49.4601C106.509 47.4525 107.164 46.3209 105.418 44.9338C104.182 43.9483 102.145 43.9483 100.727 44.8973C98.3273 46.4669 97.0909 45.5909 97.4545 42.5977C97.8545 39.5681 95.8909 37.4145 94.4 39.2031Z" fill="white"/>
    <path d="M53.4546 22.4487C50.1818 23.2882 47.4546 24.3103 47.4546 24.6388C47.4546 24.7483 48.1818 26.3544 49.0182 28.216C49.8909 30.0411 51.0182 32.5597 51.4909 33.7278C52.4364 36.0274 54.7637 38.8745 56.0364 39.2395C57.2727 39.5681 61.7091 32.6327 60.9818 31.5011C60.8364 31.2821 59.8546 30.6981 58.8364 30.1506C57.7818 29.6395 56.9091 28.946 56.9091 28.6905C56.9091 27.7414 58.0364 27.7414 59.7455 28.654C61.8182 29.749 61.8546 29.676 62.0727 25.4418C62.2182 22.2662 62.2182 22.2662 60.9455 21.9011C58.9455 21.3536 57.0546 21.4996 53.4546 22.4487Z" fill="#B50077"/>
    <path d="M129.491 40.4076C130.182 41.2836 130.727 42.1597 130.727 42.3422C130.727 42.5247 131.927 42.7072 133.382 42.7802C135.782 42.8897 136 42.9627 136.109 43.6928C136.218 44.4593 136.073 44.4958 133.745 44.6053C130.945 44.7148 130.764 45.0433 131.273 49.168C131.491 51.0661 131.491 51.0661 136.182 48.803C138.764 47.562 140.873 46.3574 140.873 46.1384C140.909 45.5179 133.782 40.5171 131.818 39.7506C128.327 38.4365 128.036 38.5095 129.491 40.4076Z" fill="#B50077"/>
    <path d="M132.618 61.1407C133.055 61.6152 131.527 63.4038 130 64.2798C129.2 64.7544 128.545 65.2654 128.545 65.4114C128.545 65.5939 128.361 65.488 128.255 65.5574C128.111 65.6508 127.927 65.5939 127.927 65.8494C127.927 66.1049 128.582 66.7255 129.345 67.2C130.727 68.076 131.164 69.2076 130.218 69.5726C129.964 69.6821 128.655 69.1711 127.309 68.4411C124.909 67.0905 124.909 67.0905 122.145 68.8791C120.618 69.8281 119.018 70.8137 118.582 71.0692C118.145 71.3247 117.418 71.9452 116.909 72.4563C115.855 73.5878 115.855 73.6243 120.909 76.3255C123.818 77.895 126.145 77.603 131.309 75.0479C134.545 73.4783 136.182 72.8943 137.745 72.7483C138.982 72.6023 139.964 72.3468 140.073 72.0547C140.436 71.0692 135.382 63.1118 133.455 61.6517C132.873 61.1772 132.473 60.9582 132.618 61.1407Z" fill="#B50077"/>
    <path d="M129.5 26.5C128.5 24.5 122.5 18 121 18C119.5 18 119.3 18.1 118.5 18.5L118.5 18.5C118 18.6667 117.3 19.2 118.5 20C120.667 21.5 125.1 25 125.5 27C125.667 28 125.7 30.6 124.5 33C124.167 33.5 123.7 34.7 124.5 35.5C124.667 35.8334 125.3 36.3 126.5 35.5C128 34.5 129.5 33 130 30.5C130.167 29.5 130.5 28.5 129.5 26.5Z" fill="#20B6F9"/>
    <path d="M69.5 78C66.4998 76.5 60.5002 61 59.5 61C58.4999 61 58.2548 65.7547 59.9998 67.5C61.7449 69.2452 65.5 73.5 67.4998 80C69.4997 86.5 76.4998 82 76.4998 82C76.4998 82 85.4997 81 86.4998 81C87.5 81 89.5 80 87.4998 80C85.4997 80 78 77.5 76.9998 78.5C75.9997 79.5 72.5002 79.5 69.5 78Z" fill="#20B6F9"/>
    <path d="M81.4998 8.49998C85 8.99998 89.4997 12 89.9998 13C90.5 14 89 14.5 88 14C87 13.5 87.4 13.3 85 12.5C83.1667 12 78.4 11.8 74 15C71.5 16.8333 66.4 20.5 65.9999 20.5C65.6665 20.5 65.0999 20.3 65.4999 19.5C65.6665 19.1666 65.8999 18.2 65.4998 17C65.3332 16.5 65.1998 15.5 65.9998 15.5C67.1665 15.5 71 14 72.9998 12C74.9997 9.99995 77.9997 7.99998 81.4998 8.49998Z" fill="#20B6F9"/>
  </g>
  <g filter="url(#filter1_dd_3385_5753)">
    <mask id="mask0_3385_5753" style="mask-type:alpha" maskUnits="userSpaceOnUse" x="0" y="12" width="73" height="72">
      <rect x="0.5" y="12" width="72" height="72" fill="#D9D9D9"/>
    </mask>
    <g mask="url(#mask0_3385_5753)">
      <path d="M36.5 72L33.35 68.775L51.875 50.25H12.5V45.75H51.875L33.35 27.225L36.5 24L60.5 48L36.5 72Z" fill="#B50077"/>
    </g>
  </g>
  <defs>
    <filter id="filter0_ddd_3385_5753" x="38" y="-5" width="112" height="112" filterUnits="userSpaceOnUse" color-interpolation-filters="sRGB">
      <feFlood flood-opacity="0" result="BackgroundImageFix"/>
      <feColorMatrix in="SourceAlpha" type="matrix" values="0 0 0 0 0 0 0 0 0 0 0 0 0 0 0 0 0 0 127 0" result="hardAlpha"/>
      <feMorphology radius="2" operator="dilate" in="SourceAlpha" result="effect1_dropShadow_3385_5753"/>
      <feOffset dy="3"/>
      <feGaussianBlur stdDeviation="3"/>
      <feColorMatrix type="matrix" values="0 0 0 0 0 0 0 0 0 0 0 0 0 0 0 0 0 0 0.15 0"/>
      <feBlend mode="normal" in2="BackgroundImageFix" result="effect1_dropShadow_3385_5753"/>
      <feColorMatrix in="SourceAlpha" type="matrix" values="0 0 0 0 0 0 0 0 0 0 0 0 0 0 0 0 0 0 127 0" result="hardAlpha"/>
      <feOffset dy="2"/>
      <feGaussianBlur stdDeviation="1"/>
      <feColorMatrix type="matrix" values="0 0 0 0 0 0 0 0 0 0 0 0 0 0 0 0 0 0 0.3 0"/>
      <feBlend mode="normal" in2="effect1_dropShadow_3385_5753" result="effect2_dropShadow_3385_5753"/>
      <feColorMatrix in="SourceAlpha" type="matrix" values="0 0 0 0 0 0 0 0 0 0 0 0 0 0 0 0 0 0 127 0" result="hardAlpha"/>
      <feOffset dy="1"/>
      <feComposite in2="hardAlpha" operator="out"/>
      <feColorMatrix type="matrix" values="0 0 0 0 0 0 0 0 0 0 0 0 0 0 0 0 0 0 1 0"/>
      <feBlend mode="normal" in2="effect2_dropShadow_3385_5753" result="effect3_dropShadow_3385_5753"/>
      <feBlend mode="normal" in="SourceGraphic" in2="effect3_dropShadow_3385_5753" result="shape"/>
    </filter>
    <filter id="filter1_dd_3385_5753" x="0" y="24" width="60.5" height="48" filterUnits="userSpaceOnUse" color-interpolation-filters="sRGB">
      <feFlood flood-opacity="0" result="BackgroundImageFix"/>
      <feColorMatrix in="SourceAlpha" type="matrix" values="0 0 0 0 0 0 0 0 0 0 0 0 0 0 0 0 0 0 127 0" result="hardAlpha"/>
      <feOffset dx="-6.25"/>
      <feComposite in2="hardAlpha" operator="out"/>
      <feColorMatrix type="matrix" values="0 0 0 0 0.709804 0 0 0 0 0 0 0 0 0 0.466667 0 0 0 0.5 0"/>
      <feBlend mode="normal" in2="BackgroundImageFix" result="effect1_dropShadow_3385_5753"/>
      <feColorMatrix in="SourceAlpha" type="matrix" values="0 0 0 0 0 0 0 0 0 0 0 0 0 0 0 0 0 0 127 0" result="hardAlpha"/>
      <feOffset dx="-12.5"/>
      <feComposite in2="hardAlpha" operator="out"/>
      <feColorMatrix type="matrix" values="0 0 0 0 0.709804 0 0 0 0 0 0 0 0 0 0.466667 0 0 0 0.25 0"/>
      <feBlend mode="normal" in2="effect1_dropShadow_3385_5753" result="effect2_dropShadow_3385_5753"/>
      <feBlend mode="normal" in="SourceGraphic" in2="effect2_dropShadow_3385_5753" result="shape"/>
    </filter>
  </defs>
</svg>
