<svg xmlns="http://www.w3.org/2000/svg" version="1.1" xmlns:xlink="http://www.w3.org/1999/xlink" xmlns:svgjs="http://svgjs.com/svgjs" width="24" height="24">
  <svg width="24" height="24" viewBox="0 0 24 24" fill="none" xmlns="http://www.w3.org/2000/svg">
    <path d="M22.1846 16.7398C21.5937 16.0196 20.283 16.1607 19.5935 15.5369C18.7553 14.7785 18.178 14.2772 19.3959 13.7028C20.2609 13.2936 21.2335 12.9848 21.9016 12.3016C22.2832 11.9107 22.3316 11.4208 22.0184 10.9525C21.4966 10.172 20.3157 9.97994 19.4706 10.2537C18.7285 10.4937 17.6932 11.5386 16.9282 10.8019C16.5556 10.4426 16.6848 9.81906 16.7642 9.36952C16.8652 8.79951 16.9764 8.30227 16.7571 7.7437C16.4813 7.04153 15.7855 6.41603 15.0398 6.93395C14.8808 7.04445 14.772 7.19876 14.6983 7.37643C14.5138 7.82037 14.5472 8.40985 14.5557 8.82847C14.5776 9.89573 14.6713 10.9627 14.7273 12.0288C14.819 13.7726 14.8611 15.5525 14.2203 17.2097C13.8063 18.2797 12.5068 20.7873 14.5593 20.99C15.5363 21.0864 15.9143 20.2501 16.0274 19.4058C16.0746 19.0519 15.8602 17.6863 16.3526 17.5536C16.7026 17.4595 17.1207 18.1735 17.2468 18.4267C17.6484 19.234 17.7701 20.1484 18.0709 20.9932C18.4216 21.9789 19.678 22.297 20.4544 21.6954C21.1858 21.128 21.5616 20.0576 21.9098 19.2328C22.1717 18.6121 22.6527 17.7235 22.363 17.0372C22.3153 16.924 22.2552 16.8259 22.1846 16.7398Z" fill="#C34E79"></path>
    <path d="M11.7223 11.7363C10.7517 11.3103 5.44001 11.0061 6.54425 9.48494C7.6485 7.96378 10.685 9.66748 11.7223 9.72833C12.7596 9.78918 13.0643 9.2878 13.3381 8.13926C13.6115 6.99023 13.1374 6.01425 12.2728 5.83415C12.2728 5.83415 10.1223 5.34737 8.52031 5.22568C6.91834 5.10399 5.45802 5.04314 3.32839 5.52991C1.19875 6.01669 0.407747 6.56431 0.89452 8.3897C1.38129 10.2151 2.64082 13.2574 6.54425 13.6225C10.4474 13.9876 10.6908 14.9047 9.96067 15.3893C9.23051 15.8738 6.55326 15.7521 5.51886 15.4479C4.48447 15.1437 1.81939 13.6877 1.66119 15.3905C1.59182 16.1355 1.35282 17.156 1.75684 17.8511C1.75684 17.8511 1.99292 18.5715 4.26445 19.18C6.44081 19.7629 8.2723 20.5009 11.0564 18.9965C11.1834 18.9318 11.3066 18.8617 11.4263 18.7877L11.4268 18.7874C12.6355 18.0388 13.4467 16.8033 13.3299 15.0828C13.1855 12.9532 12.6929 12.1622 11.7223 11.7363Z" fill="#C34E79"></path>
    <path d="M13.003 4.6742C13.003 4.6742 12.9017 2.86705 13.206 2.58302C13.5102 2.29923 14.3217 2.05585 15.0114 2.07605C15.7007 2.09625 15.1535 3.19173 15.6199 2.96855C16.0862 2.74536 15.8428 2.09649 16.3091 1.87331C16.776 1.65012 17.1406 1.54887 17.5465 1.75161C17.952 1.95435 17.8308 3.31318 17.8104 3.79995C17.7899 4.28673 17.9116 5.30092 17.364 5.30092C16.8164 5.30092 17.1002 4.55056 16.5525 4.34757C16.1152 4.18572 16.1604 4.72069 16.1028 4.99377C15.9132 5.89259 14.6982 5.61538 14.565 4.81415C14.4813 4.31374 14.1552 4.2142 13.9081 4.67566C13.7884 4.8986 13.8872 5.3255 13.6623 5.48054C13.2812 5.74388 13.0079 4.91953 13.003 4.6742Z" fill="#007FB1"></path>
    <path d="M22.9824 7.11245L22.9809 7.11221C22.84 6.2662 22.3885 5.49636 22.4754 5.06192C22.5971 4.45516 22.3941 3.71356 21.867 3.5977C21.3398 3.48161 21.1368 4.70317 20.853 4.59924C20.5687 4.49556 19.8386 4.24098 19.9199 3.5977C20.0012 2.95419 20.0416 2.55601 19.5952 2.39026C19.1493 2.22403 18.9198 2.10574 18.865 2.39026C18.865 2.39026 18.3783 4.6579 18.865 5.26636C19.3518 5.87483 19.9199 6.07757 20.5283 6.03717C21.1368 5.99652 22.3946 5.64653 21.7049 6.91652C21.7049 6.91652 21.3731 7.20323 20.8864 7.06645C20.3996 6.92942 18.4067 5.83418 18.0874 6.82306L17.7678 7.8117C17.7678 7.8117 17.19 9.69892 19.1218 9.28395C21.0533 8.86897 21.7533 9.3482 22.3162 8.99821C22.879 8.64846 23.253 8.37538 22.9824 7.11245Z" fill="#007FB1"></path>
  </svg>
  <style>
    @media (prefers-color-scheme: light) { :root { filter: none; } }
    @media (prefers-color-scheme: dark) { :root { filter: none; } }
  </style>
</svg>
