<svg width="24" height="24" viewBox="0 0 24 24" fill="none" xmlns="http://www.w3.org/2000/svg">
<path d="M14.9661 7.14966C14.7859 7.37496 14.7183 8.74926 14.7634 11.7006C14.8084 15.7109 14.7859 16.0263 14.2902 17.3105C13.2539 19.9239 13.3891 21.0279 14.7634 21.0279C15.597 21.0279 16.0701 20.2619 16.0701 18.9551C16.0701 16.95 17.1064 17.4907 17.7823 19.8563C18.7286 23.1006 20.6436 22.8302 22.0404 19.2706C22.8515 17.2204 22.6938 16.7472 21.0716 16.2065C19.855 15.801 18.6835 14.8773 18.8187 14.4267C18.8637 14.2915 19.472 13.8409 20.1705 13.4805C22.4685 12.2413 22.874 11.5429 21.7926 10.6868C21.0266 10.0785 19.7649 10.0785 18.8863 10.6643C17.3993 11.633 16.6333 11.0923 16.8586 9.24491C17.1064 7.37496 15.8898 6.04571 14.9661 7.14966Z" fill="#41484D"/>
<path d="M3.1156 5.59515C2.5073 5.77539 1.92154 5.91056 1.85395 5.93309C1.44842 5.95562 0.75 6.94692 0.75 7.51016C0.75 8.61411 1.65118 10.6868 2.59742 11.7007C3.7239 12.9398 4.58002 13.3228 7.03574 13.7058C9.19858 14.0663 10.1223 14.3817 10.3025 14.8548C10.6855 15.8686 7.0808 16.0939 4.55749 15.1927C2.3496 14.4267 1.80889 14.5619 1.58359 15.9362C1.24565 17.9639 1.85395 18.6172 4.80532 19.4283C10.4152 20.9828 14.4254 18.1666 13.1412 13.5706C12.7808 12.2639 12.1274 11.8584 9.64917 11.3402C6.54009 10.7094 5.68397 10.056 6.87803 9.22241C7.55392 8.74929 8.38751 8.77181 10.28 9.33505C12.0824 9.87576 12.7357 9.78564 13.0962 8.97458C13.4567 8.20858 13.4341 6.78922 13.0962 6.31609C12.3978 5.39238 5.61638 4.89673 3.1156 5.59515Z" fill="#41484D"/>
<path d="M18.9088 2.80146C18.4808 5.03188 18.9989 5.93306 20.7562 5.93306C22.0179 5.93306 22.2207 6.04571 21.9053 6.63148C21.6349 7.14966 21.2744 7.17219 19.8776 6.67654C18.5258 6.18089 18.0978 6.47377 17.9401 8.02831C17.7823 9.31249 17.8499 9.33502 20.4634 9.15479C23.257 8.97455 23.5048 8.72673 22.9641 6.60895C22.7614 5.84295 22.6037 4.91923 22.6037 4.55876C22.6037 3.65758 21.9954 3.43228 21.4321 4.1307C20.8689 4.82912 20.2606 4.49117 20.1705 3.43228C20.1029 2.7564 19.6298 2.10304 19.2017 2.10304C19.1341 2.10304 18.9989 2.41846 18.9088 2.80146Z" fill="#585F65"/>
<path d="M16.363 1.92282C16.2503 2.08052 16.0701 2.39594 16.0025 2.5987C15.7997 3.13941 15.3942 3.11688 15.3942 2.55364C15.3942 2.03546 14.6958 1.94535 13.7045 2.32835C13.1412 2.53111 13.1187 2.62123 13.1863 3.95047C13.2539 5.39236 13.6594 5.93307 13.9072 4.91924C14.0875 4.1983 14.448 4.1983 14.7183 4.91924C14.876 5.30225 15.1013 5.48248 15.4843 5.48248C15.8673 5.48248 16.0701 5.32478 16.1602 4.91924C16.3404 4.24336 16.8811 4.17577 17.0388 4.82913C17.3317 5.93307 17.7598 5.09948 17.7598 3.43229C17.7598 1.81017 17.7373 1.76511 17.174 1.69752C16.8586 1.65246 16.4981 1.76511 16.363 1.92282Z" fill="#585F65"/>
</svg>
