<svg width="96" height="96" viewBox="0 0 96 96" fill="none" xmlns="http://www.w3.org/2000/svg">
<mask id="mask0_2727_9737" style="mask-type:alpha" maskUnits="userSpaceOnUse" x="1" y="7" width="94" height="77">
<path d="M93.7564 71.7993C93.4966 70.9259 93.0685 70.5106 92.3834 69.1209C91.6824 67.7563 89.0447 63.2501 87.4223 61.9134C87.0226 61.5735 86.5106 61.198 85.9349 60.8122C85.9744 61.5787 85.753 62.4948 84.7615 63.2828C84.3046 63.6566 83.3574 64.1957 80.8665 65.5866C80.8098 65.6181 80.75 65.6516 80.6921 65.6839C81.279 65.9923 81.8181 66.3044 82.3216 66.6623C83.6918 67.6669 84.7228 67.9785 84.2336 68.9226C83.7815 69.8614 83.3283 69.9974 82.0547 69.0905C81.459 68.65 79.9304 67.858 78.2531 67.0553C76.1468 68.2526 74.0173 69.5123 72.9484 70.345C71.6848 71.3309 70.6247 72.2578 69.7453 73.1451C73.3718 76.0075 76.3012 77.5552 78.4182 77.242C80.564 76.9224 83.2245 75.7713 84.3565 75.115C85.4665 74.4454 88.2124 72.9169 90.1128 72.5654C92.0136 72.2179 92.7505 72.5702 93.2493 72.5686C93.7696 72.539 94.0337 72.6464 93.7564 71.7993Z" fill="#BFBFBF"/>
<path d="M92.8736 44.4806C92.1657 43.8554 91.0498 43.0757 89.848 42.2526C89.058 41.7096 88.2153 41.1286 87.4265 40.5812C85.9698 39.5642 83.5331 38.8236 81.5353 38.3125C82.9773 39.9624 83.7681 41.1933 84.1883 42.2697C86.4717 42.2713 88.5928 42.4585 89.1162 42.6041C89.3066 42.6564 89.4346 42.7122 89.5244 42.7577C89.9477 42.9947 89.7119 43.2573 89.7622 43.7424C89.836 44.3744 88.9072 44.548 87.8099 44.3685C87.373 44.2966 86.129 44.3174 84.6375 44.4044C84.6599 44.8046 84.6575 45.2107 84.6479 45.642C84.6395 46.0307 84.6307 46.4321 84.6491 46.8793L84.6547 47.0122C84.7197 48.5152 84.7748 49.8008 84.7899 51.0177C87.0367 49.5849 91.7392 47.4335 92.7399 46.9603C93.7992 46.4516 94.1523 46.5083 94.3666 46.0375C94.6032 45.5499 94.0622 45.5008 92.8736 44.4806Z" fill="#BFBFBF"/>
<path d="M8.97945 38.6958C9.16498 38.7824 9.66891 38.954 10.3069 39.1415C11.6372 37.5096 13.2611 35.266 14.0678 33.5208C14.4173 32.7644 14.703 31.9472 14.9321 31.1317L11.5945 29.479C11.5945 29.479 10.3624 28.7353 10.3939 28.2114C10.4422 27.6987 11.5486 27.2207 12.2285 27.7334C12.4854 27.9289 13.7881 28.5705 15.3566 29.3166C15.6897 27.5611 15.7592 26.0541 15.6423 25.5174C15.4432 24.5858 15.3334 23.5268 16.0157 22.6834C16.1179 22.5577 16.2356 22.4503 16.3593 22.3522C15.1383 21.7214 13.6389 21.1979 12.2325 21.1923C9.69445 21.2067 3.90345 22.979 2.83813 23.3928C1.78917 23.8261 1.00116 24.3093 1.00116 24.3093C1.00116 24.3093 1.21901 25.2421 1.69741 25.9427C2.17859 26.6059 3.29498 29.3897 3.64729 30.0895C3.98085 30.8073 5.77593 35.3287 6.53561 36.3114C7.29689 37.2969 8.35742 38.4245 8.97945 38.6958Z" fill="#BFBFBF"/>
<path d="M42.4305 79.7065C42.1233 79.7065 41.834 79.6738 41.5703 79.6088C41.234 79.5286 40.0825 79.4911 39.2418 79.4639C36.6559 79.3802 35.01 79.2836 33.9583 78.658C33.023 78.1205 32.3436 77.919 31.3991 77.9063C30.6829 77.923 30.0326 78.3041 30.0266 78.3081L29.9564 78.3527L29.883 78.3918C29.6348 78.5235 28.3309 79.1795 27.0541 79.1795C26.3794 79.1795 25.7817 79.0071 25.2794 78.6675C25.2135 78.6241 25.1094 78.5722 24.9913 78.5091C23.8522 77.8983 21.7323 76.7604 20.1854 72.9105C19.2518 70.5313 18.269 69.3802 17.5516 68.5399C17.1742 68.097 16.8482 67.7148 16.5952 67.2511C16.5246 67.127 16.4041 66.9243 16.2621 66.6861C15.1098 64.7506 13.9651 62.7281 13.7249 61.1409C13.6958 60.9494 13.6567 60.7435 13.6156 60.5253C13.5729 60.297 13.5258 60.0425 13.4819 59.7688C12.6795 61.0488 12.1872 62.7832 12.6205 65.0846C13.8175 71.4394 17.1423 67.4921 20.0685 77.7116C22.9943 87.931 27.7116 81.281 31.3381 81.4142C33.8813 81.5076 39.6783 81.5694 42.5482 79.7057C42.5044 79.7065 42.4653 79.7065 42.4305 79.7065Z" fill="#BFBFBF"/>
<path d="M74.1864 21.3664C75.8674 22.4305 77.6058 23.5313 78.5614 25.6061C79.3474 27.3154 79.7305 30.0585 77.0959 33.4264L77.0177 33.5273L76.9527 33.6155C76.8433 33.7663 76.6446 34.0333 76.3362 34.2755C77.388 34.8233 78.342 35.4289 79.1982 36.0909C80.9163 34.5556 82.8909 32.3499 83.5081 29.9212C84.672 25.3436 82.6439 26.7185 79.1447 22.1927C75.6459 17.6673 75.462 17.1426 73.08 18.0404C72.4065 18.2941 71.6009 18.5048 70.7914 18.6768C71.7701 19.8339 72.9978 20.6135 74.1864 21.3664Z" fill="#BFBFBF"/>
<path d="M19.227 20.7386C20.7907 19.7587 23.9607 17.2226 25.9006 15.671C27.0058 14.7864 27.6474 14.2745 27.981 14.0371L28.0273 14.0052C29.5359 12.9953 33.5996 12.0664 35.8491 11.845C36.0538 11.827 36.2422 11.8195 36.4353 11.8195C38.277 11.8195 41.1677 12.6877 43.0326 14.0135C43.1408 13.4701 43.3965 12.953 43.7768 12.4846C42.5195 11.7516 40.9706 10.8248 39.087 9.6613C32.3041 5.47186 27.4495 10.5255 27.4495 10.5255C27.4495 10.5255 24.9267 14.853 21.3984 14.782C17.8701 14.711 18.8049 16.1785 18.8049 16.1785L19.227 20.7386Z" fill="#BFBFBF"/>
<path d="M22.1242 49.2252C22.2543 50.0878 21.5006 49.9999 21.2796 50.0763C21.0585 50.1526 20.3204 50.4106 20.3204 50.4106C19.4015 50.7721 17.8474 51.1296 16.7462 51.9611C15.6039 52.7591 15.1466 52.643 14.4061 52.7555C13.6727 52.866 12.5903 51.9886 12.0177 51.7273C11.4148 51.4735 11.0298 51.0287 10.5107 49.8776C9.98923 48.7296 8.51415 46.0568 8.34657 45.3585C8.20253 44.6236 8.58517 43.3999 9.39712 42.959C10.2506 42.55 14.3578 37.6472 15.8784 34.3587C17.3946 31.0741 17.9161 26.5886 17.5913 25.094C17.3589 24.0246 17.7596 23.9022 17.7596 23.9022L19.9593 22.6274C22.1913 21.3431 28.1183 16.3884 29.1378 15.663C30.1688 14.9723 33.6871 14.0622 36.0448 13.8308C38.4403 13.6229 42.366 15.4555 42.8269 16.6166C43.2857 17.7765 43.4018 18.5461 43.9979 18.7364C44.5669 18.9647 44.8793 18.13 45.1227 17.4341C45.3697 16.765 45.0453 16.7235 44.9699 14.7473C44.8629 12.8138 48.7204 12.068 49.8847 12.0541C51.0398 12.0042 53.7422 11.754 56.7502 12.4958C59.7873 13.1988 61.348 12.4958 61.9543 12.337C62.5605 12.1782 63.4281 11.0458 64.2844 12.329C65.1119 13.6229 66.6293 16.7929 69.2112 19.8999C71.7891 23.0037 75.4359 23.5874 76.7498 26.4406C78.0645 29.2998 75.7742 31.8494 75.4095 32.3473C75.0385 32.8429 75.0656 33.0244 73.3699 32.4028C71.6402 31.7824 68.3469 31.0538 68.3469 31.0538C66.7601 30.3448 67.4528 30.1477 66.7617 28.0801C66.0487 26.0452 64.8921 25.2776 63.7278 24.0642C62.5428 22.862 60.9528 21.9368 58.3083 20.6979C55.6693 19.4921 50.3156 20.3324 49.1988 20.6564C48.0533 20.9924 47.1424 20.7821 46.0404 21.199C44.9044 21.5932 43.6963 21.7429 42.3365 22.1371C40.9512 22.5361 38.7651 23.9078 37.9607 24.4385C37.1568 24.9348 35.0114 24.9145 32.5073 25.199C29.998 25.4842 27.922 26.7443 27.2848 27.3148C26.6193 27.9189 25.141 29.1797 24.4879 30.6939C23.8363 32.2117 20.8734 36.3772 20.3148 37.0607C19.7917 37.737 19.8236 39.0197 20.0802 39.866C20.3032 40.7146 20.6524 40.7222 21.0019 41.8055C21.3498 42.8537 21.9894 48.333 22.1242 49.2252Z" fill="#BFBFBF"/>
<path d="M60.9563 64.7098C62.8288 66.1594 57.4739 68.5869 56.6524 68.7696C54.7376 69.1949 52.7215 69.2516 50.7844 69.5796C48.3673 69.9885 45.9338 70.4039 43.4804 70.0568C41.3266 69.7519 39.263 68.9072 37.2621 68.0849C34.7424 67.0495 32.4211 65.6287 30.3786 63.8233C29.67 63.1972 26.8699 60.8623 28.0409 59.7639C28.8193 59.0333 31.1958 60.3133 32.0013 60.6784C33.721 61.458 35.2743 61.5087 37.1372 61.2098C38.8572 60.9341 40.6759 60.421 42.3895 61.0108C43.7345 61.4736 44.7731 62.5816 45.854 63.445C47.0646 64.4114 48.3529 64.9313 49.8651 65.2461C53.2569 65.9527 56.7354 65.525 60.0558 64.6488C60.4911 64.5339 60.7804 64.5738 60.9563 64.7098Z" fill="#BFBFBF"/>
<path d="M62.8447 43.598C61.5308 45.1186 60.9962 44.2871 61.5237 43.7983C62.0491 43.3407 62.1066 42.0715 62.1066 42.0715C62.1066 42.0715 62.7254 40.5313 62.7869 39.4848C62.8168 38.4055 62.1162 36.9065 61.7319 36.2418C61.3469 35.573 61.7826 35.099 62.8184 34.6917C63.8913 34.2755 64.1211 34.9674 64.1211 34.9674C64.1211 34.9674 64.6613 36.4604 64.6426 38.4167C64.6254 40.4021 64.161 42.109 62.8447 43.598Z" fill="#BFBFBF"/>
<path d="M66.1304 41.6914C65.2574 43.5451 64.1418 45.3254 61.8264 46.702C60.6362 47.3938 59.8618 48.0414 59.2844 48.5673C59.0442 48.7189 58.8603 48.8928 58.7406 49.074C58.6165 49.2619 58.5579 49.4558 58.6018 49.6398C58.6835 49.9801 59.0702 50.2047 59.5945 50.2766C59.7381 50.2957 59.8905 50.3045 60.0529 50.2993C60.5999 50.346 61.2443 50.4761 61.6824 50.808C62.5925 51.513 62.5566 51.7911 63.173 51.3423C63.8198 50.907 66.1547 48.6914 66.6012 46.4705C67.06 44.2721 67.0836 42.7571 67.141 41.7129C67.1917 40.646 67.015 39.8046 66.1304 41.6914Z" fill="#BFBFBF"/>
<path d="M26.3762 34.5932C26.5179 33.8794 26.8594 31.187 27.8617 29.9026C28.8333 28.6207 30.5892 27.7564 32.4609 27.2202C34.3661 26.682 36.0299 26.65 36.3308 26.9828C36.6396 27.3443 36.2047 27.6 35.7829 27.914C35.3241 28.2364 35.3979 28.3198 34.7855 29.2303C34.2009 30.1708 34.8377 32.8739 34.2835 33.5893C33.7668 34.3267 33.1336 34.0741 32.1533 34.0681C31.1781 34.0594 27.1563 35.1722 27.1563 35.1722C25.9493 35.949 26.2314 35.3118 26.3762 34.5932Z" fill="#BFBFBF"/>
<path d="M37.9175 28.5064C38.6189 26.89 40.9869 25.6799 42.6228 25.0543C44.2531 24.3987 44.4159 24.6241 43.8533 25.0571C43.2891 25.4876 43.6063 25.7266 43.262 26.9758C42.9089 28.1947 42.9468 30.5504 43.2556 32.1392C43.5573 33.7332 43.0154 33.906 42.375 34.2255C41.7307 34.5731 38.8627 34.757 38.8627 34.757C37.7467 34.8623 37.9705 34.2615 37.7303 33.3238C37.4957 32.3794 37.2511 30.1522 37.9175 28.5064Z" fill="#BFBFBF"/>
<path d="M64.5527 32.1922C64.2067 33.0321 63.5644 30.8915 62.6666 29.736C61.7645 28.5522 60.4195 27.3667 58.292 25.9922C56.1909 24.6105 51.6564 22.9343 51.6564 22.9343C51.6564 22.9343 50.7726 22.2804 52.9934 22.1946C55.219 22.1419 58.6799 23.3521 60.202 24.253C61.6911 25.1599 63.0736 26.3701 63.8125 27.2989C64.5503 28.225 64.8994 31.3527 64.5527 32.1922Z" fill="#BFBFBF"/>
<path d="M61.7986 32.9568C61.6071 33.3642 60.738 33.0222 59.5012 32.1081C58.2583 31.1916 55.6912 29.217 53.4939 28.8264C51.2587 28.4418 46.8127 29.8375 46.8127 29.8375C45.0564 30.732 45.3971 29.4532 45.3971 29.4532C45.3971 29.4532 45.6465 26.9292 46.152 25.4673C46.4729 24.5394 46.7928 24.5189 47.5924 24.3972C48.4243 24.2707 49.4796 24.5851 51.7599 25.2809C54.0345 25.9704 57.8342 28.1705 59.0531 29.1484C60.2453 30.1678 61.9865 32.5195 61.7986 32.9568Z" fill="#BFBFBF"/>
<path d="M83.3317 58.7755C83.4044 59.0355 83.4663 59.2567 83.5053 59.4306C83.5596 59.6759 83.6494 59.9045 83.7346 60.1212C83.9672 60.7132 84.1651 61.2165 83.5085 61.7312C83.1702 62.0161 81.71 62.8313 79.895 63.8447C77.0646 65.4249 73.371 67.487 71.7226 68.7718C69.0198 70.8805 67.6101 72.4158 66.7403 73.527C66.6353 73.6561 66.5359 73.7827 66.4389 73.9061C65.7026 74.8438 65.1096 75.5988 63.2874 75.8735C61.223 76.1867 58.2238 76.3567 56.214 75.5292C55.038 75.0452 54.7406 74.5673 54.5085 74.1943C54.3422 73.9272 54.2095 73.7139 53.8113 73.5909C53.6086 73.527 53.386 73.4999 53.1709 73.5326C52.4551 73.6409 51.5432 74.1169 50.5585 74.6308L50.5581 74.6311C50.1032 74.8685 49.6328 75.114 49.159 75.3352C47.3408 76.2086 43.3916 78.002 42.0473 77.6713C41.5012 77.5412 40.4486 77.507 39.3079 77.47H39.3079C37.5868 77.4141 35.6652 77.3517 34.9792 76.9435C33.8061 76.2696 32.7807 75.9245 31.393 75.9109C30.0408 75.9297 28.9508 76.6287 28.9508 76.6287C28.9508 76.6287 27.1988 77.556 26.3968 77.0145C26.2705 76.9311 26.1145 76.8474 25.9353 76.7512C24.9645 76.2303 23.3143 75.3447 22.0374 72.1667C20.9873 69.4906 19.8378 68.1438 19.07 67.2443C18.7531 66.8731 18.5013 66.578 18.3483 66.2971C18.2556 66.1335 18.1273 65.9179 17.9767 65.6649L17.9763 65.6643C17.2196 64.3928 15.9001 62.1756 15.6982 60.8421C15.6661 60.6302 15.6231 60.4007 15.5776 60.1582L15.5776 60.1581C15.2794 58.567 14.876 56.415 16.7643 54.9793C18.776 53.448 19.3226 53.2752 20.2776 52.9733L20.278 52.9732C20.3531 52.9495 20.4306 52.9249 20.5116 52.8989C20.6779 52.8468 20.839 52.792 20.9936 52.7395L20.9937 52.7394C21.9013 52.4308 22.5847 52.1985 22.7691 53.0334C22.8354 53.3418 22.8747 53.8938 22.9206 54.5398C23.0153 55.8697 23.1382 57.5983 23.5835 58.4222C24.2302 59.6124 28.5518 65.2574 30.3931 66.6171C31.4528 67.3692 32.2724 67.849 32.4224 67.9458L32.8042 68.172C34.0168 68.9046 36.0529 70.0764 36.9642 70.4722C37.8783 70.9291 40.9904 71.911 42.9606 72.0223C43.3688 72.038 43.8074 72.0635 44.2688 72.0903H44.2688C46.0623 72.1944 48.1991 72.3185 50.2235 71.9641C50.86 71.8373 51.7012 71.735 52.6095 71.6244L52.6097 71.6244L52.9068 71.5882C55.6247 71.2383 58.9727 70.671 60.6908 69.1161C61.0745 68.7713 61.4471 68.4406 61.803 68.1247C63.6324 66.501 65.0239 65.2659 65.2497 64.4934C65.2829 64.3719 65.3091 64.2661 65.3322 64.173C65.4777 63.5851 65.4996 63.4966 66.392 63.0909L66.4674 63.055C67.5992 62.5158 70.8196 60.9815 71.4373 58.5795C71.6197 57.8449 71.9108 57.235 72.2037 56.6215L72.2037 56.6215C72.8892 55.1856 73.584 53.7301 72.9156 50.6112L72.802 50.0673C71.9713 46.0852 71.8061 45.293 70.4111 43.241C68.9847 41.0948 68.0714 40.2601 67.4701 39.8136C66.9003 39.3966 66.5971 38.844 66.552 38.1278C66.5372 37.4033 66.6944 34.2907 66.6944 34.2907C66.6944 34.2907 66.7599 33.2434 68.3215 33.6056L68.4256 33.6283C70.1198 33.9976 76.1732 35.3168 79.7336 39.2829C82.718 42.604 82.6937 43.7293 82.6534 45.5992V45.5994C82.6446 46.0077 82.635 46.4514 82.6558 46.9612L82.6614 47.0903C82.7835 49.9045 82.8732 51.9733 82.7137 54.1977C82.5533 55.9925 83.0337 57.71 83.3316 58.7752L83.3316 58.7752L83.3317 58.7755Z" fill="#BFBFBF"/>
<path d="M65.0621 61.8261C64.7389 62.3644 64.4397 62.9652 63.8599 62.96C63.1393 62.9533 61.7293 62.4178 61.2198 61.7954C60.8048 61.2887 60.9169 59.9409 60.9154 59.2562C60.9126 58.1115 61.6395 58.1366 62.3078 57.7209C63.2251 57.1499 63.8747 56.0674 64.4381 55.0564C67.3188 52.1317 68.6315 48.3018 68.7743 46.1368C68.9419 43.9296 69.5887 44.3146 70.2331 48.2308C70.7458 51.3469 71.1348 54.9407 69.9322 57.8992C69.4726 59.0308 68.8023 59.7031 67.8239 60.108C67.0475 60.43 66.1577 60.6128 65.4954 61.2388C65.3326 61.3928 65.1954 61.6039 65.0621 61.8261Z" fill="#BFBFBF"/>
</mask>
<g mask="url(#mask0_2727_9737)">
<rect width="96" height="96" fill="white"/>
<g opacity="0.7" filter="url(#filter0_f_2727_9737)">
<rect x="-24" y="19" width="129.703" height="14.739" transform="rotate(-15 -24 19)" fill="#FF1F1F"/>
<rect x="-20.1852" y="33.2368" width="129.703" height="14.739" transform="rotate(-15 -20.1852 33.2368)" fill="#FFA133"/>
<rect x="-16.3706" y="47.4734" width="129.703" height="14.739" transform="rotate(-15 -16.3706 47.4734)" fill="#FFC700"/>
<rect x="-12.5558" y="61.7103" width="129.703" height="14.739" transform="rotate(-15 -12.5558 61.7103)" fill="#36CA3C"/>
<rect x="-8.74103" y="75.947" width="129.703" height="14.739" transform="rotate(-15 -8.74103 75.947)" fill="#0075FF"/>
<rect x="-4.92633" y="90.1838" width="129.703" height="14.739" transform="rotate(-15 -4.92633 90.1838)" fill="#BD30FF"/>
</g>
</g>
<path d="M59.885 54.6714C58.9163 53.4908 56.7677 53.7222 55.6373 52.6996C54.2632 51.4563 53.3168 50.6344 55.3134 49.6927C56.7314 49.022 58.3258 48.5157 59.421 47.3957C60.0466 46.7549 60.126 45.9518 59.6125 45.1841C58.7571 43.9045 56.8212 43.5897 55.4359 44.0386C54.2193 44.432 52.522 46.1449 51.268 44.9371C50.6571 44.3482 50.869 43.326 50.999 42.589C51.1646 41.6546 51.347 40.8394 50.9875 39.9238C50.5354 38.7727 49.3947 37.7472 48.1722 38.5963C47.9116 38.7774 47.7333 39.0304 47.6124 39.3217C47.3099 40.0494 47.3646 41.0158 47.3786 41.7021C47.4145 43.4517 47.5681 45.2009 47.6599 46.9485C47.8103 49.8072 47.8793 52.7251 46.8287 55.4418C46.1501 57.1958 44.0198 61.3067 47.3845 61.639C48.9861 61.797 49.6057 60.4261 49.7913 59.042C49.8687 58.4618 49.5172 56.2231 50.3243 56.0056C50.8981 55.8512 51.5836 57.0219 51.7902 57.4368C52.4486 58.7603 52.6481 60.2593 53.1412 61.6442C53.7162 63.2601 55.7758 63.7816 57.0486 62.7953C58.2476 61.8653 58.8636 60.1105 59.4346 58.7583C59.8639 57.7409 60.6523 56.2841 60.1775 55.159C60.0993 54.9734 60.0008 54.8126 59.885 54.6714Z" fill="#41484D"/>
<path d="M42.7336 46.469C41.1424 45.7707 32.4348 45.272 34.245 42.7783C36.0553 40.2846 41.0331 43.0775 42.7336 43.1773C44.4341 43.277 44.9337 42.4551 45.3826 40.5722C45.8306 38.6886 45.0534 37.0886 43.6362 36.7934C43.6362 36.7934 40.1106 35.9954 37.4845 35.7959C34.8583 35.5964 32.4643 35.4966 28.9731 36.2946C25.4819 37.0926 24.1852 37.9904 24.9832 40.9828C25.7812 43.9753 27.846 48.9627 34.245 49.5612C40.6437 50.1597 41.0427 51.6631 39.8457 52.4575C38.6487 53.2519 34.2598 53.0524 32.5641 52.5536C30.8683 52.0549 26.4993 49.6681 26.24 52.4595C26.1263 53.6808 25.7345 55.3538 26.3968 56.4933C26.3968 56.4933 26.7838 57.6743 30.5076 58.6718C34.0755 59.6274 37.0779 60.8372 41.642 58.371C41.8503 58.2649 42.0522 58.1499 42.2485 58.0287L42.2493 58.0283C44.2307 56.8009 45.5605 54.7756 45.369 51.9552C45.1324 48.464 44.3248 47.1672 42.7336 46.469Z" fill="#41484D"/>
<path d="M44.8331 34.8917C44.8331 34.8917 44.6672 31.9292 45.1659 31.4636C45.6647 30.9984 46.9949 30.5994 48.1256 30.6325C49.2556 30.6656 48.3587 32.4615 49.1231 32.0956C49.8876 31.7297 49.4886 30.666 50.2531 30.3001C51.0184 29.9342 51.6161 29.7683 52.2816 30.1006C52.9463 30.433 52.7476 32.6606 52.7141 33.4586C52.6806 34.2565 52.8801 35.9192 51.9823 35.9192C51.0846 35.9192 51.5498 34.6891 50.6521 34.3563C49.9351 34.091 50.0093 34.9679 49.9147 35.4156C49.6039 36.8891 47.6121 36.4347 47.3939 35.1212C47.2566 34.3008 46.722 34.1376 46.317 34.8941C46.1207 35.2596 46.2827 35.9594 45.914 36.2136C45.2892 36.6453 44.8411 35.2939 44.8331 34.8917Z" fill="#605E5E"/>
<path d="M61.1929 38.8889L61.1905 38.8885C60.9595 37.5016 60.2193 36.2396 60.3618 35.5274C60.5613 34.5327 60.2285 33.3169 59.3643 33.127C58.5001 32.9367 58.1673 34.9392 57.7021 34.7689C57.2361 34.5989 56.0391 34.1815 56.1723 33.127C56.3056 32.0721 56.3718 31.4193 55.6401 31.1476C54.9091 30.8751 54.5329 30.6812 54.4431 31.1476C54.4431 31.1476 53.6451 34.865 54.4431 35.8625C55.2411 36.86 56.1723 37.1924 57.1698 37.1261C58.1673 37.0595 60.2293 36.4857 59.0986 38.5677C59.0986 38.5677 58.5547 39.0377 57.7567 38.8135C56.9587 38.5888 53.6918 36.7934 53.1683 38.4145L52.6444 40.0352C52.6444 40.0352 51.6972 43.129 54.864 42.4487C58.0304 41.7684 59.178 42.554 60.1008 41.9803C61.0233 41.4069 61.6366 40.9593 61.1929 38.8889Z" fill="#605E5E"/>
<defs>
<filter id="filter0_f_2727_9737" x="-40" y="-30.5696" width="180.172" height="150.99" filterUnits="userSpaceOnUse" color-interpolation-filters="sRGB">
<feFlood flood-opacity="0" result="BackgroundImageFix"/>
<feBlend mode="normal" in="SourceGraphic" in2="BackgroundImageFix" result="shape"/>
<feGaussianBlur stdDeviation="8" result="effect1_foregroundBlur_2727_9737"/>
</filter>
</defs>
</svg>
