<svg width="96" height="96" viewBox="0 0 96 96" fill="none" xmlns="http://www.w3.org/2000/svg">
  <path d="M59.8853 54.6713C58.9165 53.4907 56.7679 53.7221 55.6376 52.6994C54.2635 51.4562 53.317 50.6343 55.3136 49.6926C56.7316 49.0219 58.326 48.5156 59.4213 47.3956C60.0469 46.7548 60.1263 45.9517 59.6128 45.184C58.7573 43.9044 56.8214 43.5896 55.4361 44.0385C54.2196 44.4319 52.5222 46.1448 51.2682 44.937C50.6573 44.3481 50.8692 43.3259 50.9993 42.5889C51.1649 41.6545 51.3472 40.8393 50.9877 39.9236C50.5357 38.7725 49.3949 37.7471 48.1724 38.5962C47.9119 38.7773 47.7335 39.0303 47.6126 39.3216C47.3102 40.0493 47.3648 41.0157 47.3788 41.702C47.4147 43.4516 47.5683 45.2007 47.6601 46.9483C47.8105 49.8071 47.8795 52.725 46.829 55.4417C46.1503 57.1957 44.0201 61.3066 47.3848 61.6389C48.9864 61.7969 49.606 60.426 49.7915 59.0419C49.8689 58.4617 49.5174 56.223 50.3246 56.0055C50.8983 55.8511 51.5838 57.0218 51.7905 57.4367C52.4488 58.7602 52.6483 60.2592 53.1415 61.6441C53.7164 63.26 55.776 63.7815 57.0488 62.7952C58.2478 61.8651 58.8639 60.1104 59.4348 58.7582C59.8641 57.7407 60.6526 56.284 60.1777 55.1588C60.0995 54.9733 60.001 54.8125 59.8853 54.6713Z" fill="#41484D"/>
  <path d="M42.7341 46.4689C41.1429 45.7707 32.4353 45.272 34.2455 42.7782C36.0558 40.2845 41.0336 43.0775 42.7341 43.1772C44.4346 43.277 44.9342 42.4551 45.383 40.5722C45.8311 38.6885 45.0539 37.0886 43.6366 36.7933C43.6366 36.7933 40.1111 35.9953 37.485 35.7958C34.8588 35.5963 32.4648 35.4966 28.9736 36.2946C25.4824 37.0926 24.1857 37.9903 24.9837 40.9828C25.7816 43.9752 27.8464 48.9627 34.2455 49.5611C40.6442 50.1596 41.0432 51.663 39.8462 52.4574C38.6492 53.2518 34.2603 53.0523 32.5646 52.5536C30.8688 52.0549 26.4998 49.6681 26.2405 52.4594C26.1268 53.6808 25.735 55.3537 26.3973 56.4933C26.3973 56.4933 26.7843 57.6743 30.5081 58.6718C34.0759 59.6274 37.0784 60.8371 41.6425 58.3709C41.8507 58.2648 42.0526 58.1499 42.2489 58.0286C44.2304 56.8013 45.561 54.7756 45.3695 51.9551C45.1329 48.4639 44.3253 47.1672 42.7341 46.4689Z" fill="#41484D"/>
  <path d="M44.8336 34.8917C44.8336 34.8917 44.6677 31.9291 45.1664 31.4635C45.6651 30.9983 46.9954 30.5993 48.1261 30.6324C49.2561 30.6655 48.3591 32.4614 49.1236 32.0955C49.8881 31.7296 49.4891 30.6659 50.2536 30.3C51.0188 29.9342 51.6165 29.7682 52.2821 30.1006C52.9468 30.4329 52.7481 32.6605 52.7146 33.4585C52.6811 34.2565 52.8806 35.9191 51.9828 35.9191C51.0851 35.9191 51.5503 34.689 50.6526 34.3562C49.9356 34.0909 50.0098 34.9679 49.9152 35.4156C49.6044 36.889 47.6126 36.4346 47.3944 35.1211C47.2571 34.3008 46.7225 34.1376 46.3175 34.8941C46.1212 35.2595 46.2832 35.9594 45.9145 36.2135C45.2897 36.6453 44.8416 35.2939 44.8336 34.8917Z" fill="#605E5E"/>
  <path d="M61.1929 38.8888L61.1905 38.8884C60.9595 37.5015 60.2193 36.2395 60.3618 35.5273C60.5613 34.5326 60.2285 33.3168 59.3643 33.1269C58.5001 32.9366 58.1673 34.9391 57.7021 34.7688C57.2361 34.5988 56.0391 34.1814 56.1723 33.1269C56.3056 32.072 56.3718 31.4192 55.6401 31.1475C54.9091 30.875 54.5329 30.6811 54.4431 31.1475C54.4431 31.1475 53.6451 34.8649 54.4431 35.8624C55.2411 36.8599 56.1723 37.1923 57.1698 37.126C58.1673 37.0594 60.2293 36.4856 59.0986 38.5676C59.0986 38.5676 58.5547 39.0376 57.7567 38.8134C56.9587 38.5887 53.6918 36.7933 53.1683 38.4144L52.6444 40.0351C52.6444 40.0351 51.6972 43.1289 54.864 42.4486C58.0304 41.7683 59.178 42.5539 60.1008 41.9802C61.0233 41.4068 61.6366 40.9592 61.1929 38.8888Z" fill="#605E5E"/>
  <path d="M93.7557 71.7997C93.496 70.9263 93.0678 70.5109 92.3828 69.1212C91.6817 67.7567 89.044 63.2504 87.4217 61.9138C87.0219 61.5738 86.51 61.1984 85.9342 60.8126C85.9737 61.579 85.7523 62.4951 84.7608 63.2831C84.3039 63.657 83.3567 64.196 80.8658 65.5869C80.8091 65.6185 80.7493 65.652 80.6914 65.6843C81.2784 65.9927 81.8174 66.3047 82.3209 66.6626C83.6911 67.6673 84.7221 67.9789 84.2329 68.9229C83.7809 69.8618 83.3276 69.9978 82.054 69.0909C81.4583 68.6504 79.9298 67.8584 78.2524 67.0556C76.1461 68.253 74.0167 69.5126 72.9478 70.3453C71.6841 71.3313 70.624 72.2581 69.7446 73.1455C73.3711 76.0079 76.3005 77.5556 78.4176 77.2424C80.5634 76.9228 83.2239 75.7717 84.3558 75.1153C85.4658 74.4458 88.2117 72.9173 90.1121 72.5657C92.0129 72.2182 92.7498 72.5705 93.2486 72.5689C93.7689 72.5394 94.033 72.6467 93.7557 71.7997Z" fill="#A43560"/>
  <path d="M92.8724 44.4809C92.1646 43.8557 91.0486 43.0761 89.8468 42.253C89.0568 41.7099 88.2141 41.129 87.4253 40.5816C85.9686 39.5645 83.5319 38.824 81.5342 38.3129C82.9761 39.9627 83.767 41.1936 84.1871 42.2701C86.4705 42.2717 88.5916 42.4588 89.1151 42.6045C89.3054 42.6567 89.4335 42.7126 89.5232 42.7581C89.9466 42.9951 89.7108 43.2576 89.761 43.7428C89.8349 44.3748 88.906 44.5484 87.8088 44.3688C87.3719 44.297 86.1278 44.3178 84.6364 44.4047C84.6587 44.8049 84.6563 45.2111 84.6467 45.6424C84.6384 46.031 84.6296 46.4324 84.6479 46.8797L84.6535 47.0126C84.7186 48.5156 84.7736 49.8011 84.7888 51.0181C87.0355 49.5853 91.7381 47.4339 92.7387 46.9607C93.7981 46.452 94.1512 46.5086 94.3654 46.0378C94.602 45.5502 94.061 45.5012 92.8724 44.4809Z" fill="#A43560"/>
  <path d="M8.97829 38.6962C9.16382 38.7828 9.66775 38.9543 10.3057 39.1418C11.636 37.51 13.2599 35.2664 14.0667 33.5212C14.4162 32.7647 14.7019 31.9476 14.9309 31.132L11.5933 29.4794C11.5933 29.4794 10.3612 28.7357 10.3927 28.2118C10.441 27.6991 11.5474 27.2211 12.2273 27.7338C12.4843 27.9293 13.787 28.5709 15.3554 29.317C15.6886 27.5614 15.758 26.0544 15.6411 25.5178C15.442 24.5861 15.3323 23.5272 16.0146 22.6837C16.1167 22.558 16.2344 22.4507 16.3581 22.3526C15.1372 21.7218 13.6377 21.1983 12.2313 21.1927C9.69329 21.2071 3.90229 22.9794 2.83697 23.3931C1.78801 23.8264 1 24.3096 1 24.3096C1 24.3096 1.21785 25.2425 1.69625 25.9431C2.17743 26.6062 3.29382 29.39 3.64613 30.0899C3.97969 30.8077 5.77477 35.3291 6.53445 36.3118C7.29573 37.2973 8.35626 38.4249 8.97829 38.6962Z" fill="#A43560"/>
  <path d="M42.4304 79.7068C42.1232 79.7068 41.8339 79.6741 41.5702 79.6091C41.2338 79.5289 40.0823 79.4914 39.2417 79.4642C36.6558 79.3805 35.0099 79.2839 33.9582 78.6583C33.0229 78.1208 32.3434 77.9193 31.399 77.9066C30.6828 77.9233 30.0325 78.3044 30.0265 78.3083L29.9563 78.353L29.8828 78.3921C29.6347 78.5238 28.3308 79.1798 27.054 79.1798C26.3793 79.1798 25.7816 79.0074 25.2792 78.6678C25.2134 78.6244 25.1093 78.5725 24.9912 78.5094C23.852 77.8986 21.7322 76.7607 20.1853 72.9108C19.2516 70.5316 18.2689 69.3805 17.5515 68.5402C17.1741 68.0973 16.8481 67.7151 16.5951 67.2514C16.5245 67.1273 16.404 66.9246 16.262 66.6864C15.1097 64.7509 13.965 62.7284 13.7248 61.1412C13.6956 60.9497 13.6565 60.7438 13.6154 60.5256C13.5727 60.2973 13.5257 60.0428 13.4818 59.7691C12.6794 61.0491 12.187 62.7835 12.6203 65.0849C13.8173 71.4397 17.1421 67.4924 20.0684 77.7119C22.9942 87.9313 27.7115 81.2813 31.338 81.4145C33.8812 81.5079 39.6782 81.5697 42.5481 79.706C42.5042 79.7068 42.4651 79.7068 42.4304 79.7068Z" fill="#2DB6F7"/>
  <path d="M74.1863 21.3667C75.8673 22.4308 77.6057 23.5316 78.5613 25.6064C79.3473 27.3157 79.7303 30.0588 77.0958 33.4267L77.0176 33.5276L76.9525 33.6158C76.8432 33.7666 76.6445 34.0336 76.3361 34.2758C77.3878 34.8236 78.3418 35.4292 79.1981 36.0912C80.9161 34.5558 82.8908 32.3502 83.508 29.9215C84.6719 25.3439 82.6438 26.7188 79.1446 22.193C75.6458 17.6676 75.4619 17.1429 73.0799 18.0407C72.4064 18.2944 71.6008 18.5051 70.7913 18.6771C71.77 19.8342 72.9977 20.6138 74.1863 21.3667Z" fill="#2DB6F7"/>
  <path d="M19.2269 20.7389C20.7906 19.759 23.9606 17.2229 25.9005 15.6713C27.0057 14.7867 27.6473 14.2748 27.9809 14.0374L28.0271 14.0055C29.5357 12.9956 33.5995 12.0667 35.849 11.8453C36.0537 11.8273 36.242 11.8198 36.4351 11.8198C38.2769 11.8198 41.1676 12.688 43.0325 14.0138C43.1406 13.4704 43.3964 12.9533 43.7766 12.4849C42.5194 11.7519 40.9705 10.8251 39.0869 9.6616C32.304 5.47216 27.4494 10.5258 27.4494 10.5258C27.4494 10.5258 24.9266 14.8533 21.3982 14.7823C17.8699 14.7113 18.8048 16.1788 18.8048 16.1788L19.2269 20.7389Z" fill="#2DB6F7"/>
  <path d="M22.1236 49.2253C22.2537 50.0879 21.5 50 21.279 50.0763C21.0579 50.1527 20.3198 50.4107 20.3198 50.4107C19.4009 50.7722 17.8468 51.1297 16.7456 51.9612C15.6033 52.7592 15.146 52.6431 14.4055 52.7556C13.6721 52.8661 12.5897 51.9887 12.0171 51.7274C11.4142 51.4736 11.0292 51.0288 10.5101 49.8777C9.98862 48.7297 8.51354 46.0569 8.34596 45.3586C8.20192 44.6237 8.58456 43.4 9.39651 42.9591C10.25 42.5501 14.3572 37.6473 15.8778 34.3588C17.394 31.0742 17.9154 26.5887 17.5907 25.0941C17.3583 24.0246 17.759 23.9023 17.759 23.9023L19.9587 22.6275C22.1907 21.3432 28.1177 16.3885 29.1372 15.6631C30.1682 14.9724 33.6865 14.0623 36.0441 13.8309C38.4397 13.623 42.3654 15.4556 42.8263 16.6167C43.2851 17.7766 43.4012 18.5462 43.9973 18.7365C44.5663 18.9648 44.8787 18.1301 45.1221 17.4342C45.369 16.7651 45.0447 16.7236 44.9693 14.7474C44.8623 12.8139 48.7198 12.0681 49.8841 12.0542C51.0392 12.0043 53.7415 11.7541 56.7496 12.4959C59.7867 13.1989 61.3474 12.4959 61.9536 12.3371C62.5599 12.1783 63.4275 11.0459 64.2838 12.3291C65.1113 13.623 66.6287 16.793 69.2106 19.9C71.7885 23.0038 75.4353 23.5875 76.7492 26.4407C78.0638 29.2999 75.7736 31.8495 75.4089 32.3474C75.0379 32.843 75.065 33.0245 73.3693 32.4029C71.6396 31.7825 68.3463 31.0539 68.3463 31.0539C66.7595 30.3449 67.4522 30.1478 66.7611 28.0802C66.0481 26.0453 64.8914 25.2776 63.7272 24.0643C62.5422 22.8621 60.9522 21.9369 58.3076 20.698C55.6687 19.4922 50.315 20.3325 49.1982 20.6565C48.0527 20.9925 47.1418 20.7822 46.0398 21.1991C44.9038 21.5933 43.6957 21.743 42.3359 22.1372C40.9506 22.5362 38.7645 23.9079 37.9601 24.4386C37.1561 24.9349 35.0108 24.9146 32.5067 25.199C29.9974 25.4843 27.9214 26.7443 27.2842 27.3149C26.6187 27.919 25.1404 29.1798 24.4873 30.694C23.8357 32.2118 20.8728 36.3773 20.3142 37.0608C19.7911 37.737 19.823 39.0198 20.0796 39.8661C20.3026 40.7147 20.6517 40.7223 21.0013 41.8056C21.3492 42.8538 21.9888 48.3331 22.1236 49.2253Z" fill="#C34E79"/>
  <path d="M60.9562 64.71C62.8287 66.1595 57.4738 68.587 56.6523 68.7698C54.7375 69.1951 52.7214 69.2517 50.7843 69.5797C48.3671 69.9887 45.9337 70.404 43.4803 70.0569C41.3265 69.7521 39.2629 68.9074 37.2619 68.0851C34.7423 67.0497 32.4209 65.6289 30.3785 63.8234C29.6699 63.1974 26.8697 60.8625 28.0408 59.764C28.8192 59.0335 31.1956 60.3135 32.0012 60.6785C33.7209 61.4582 35.2741 61.5089 37.1371 61.21C38.8571 60.9343 40.6757 60.4212 42.3894 61.0109C43.7344 61.4737 44.773 62.5817 45.8539 63.4452C47.0644 64.4115 48.3528 64.9314 49.865 65.2462C53.2568 65.9529 56.7353 65.5251 60.0557 64.6489C60.491 64.534 60.7803 64.5739 60.9562 64.71Z" fill="#C34E79"/>
  <path d="M62.8436 43.5982C61.5297 45.1187 60.9951 44.2872 61.5226 43.7985C62.048 43.3408 62.1055 42.0716 62.1055 42.0716C62.1055 42.0716 62.7243 40.5315 62.7858 39.4849C62.8157 38.4057 62.1151 36.9066 61.7308 36.2419C61.3458 35.5732 61.7815 35.0992 62.8173 34.6918C63.8902 34.2757 64.12 34.9675 64.12 34.9675C64.12 34.9675 64.6603 36.4606 64.6415 38.4168C64.6243 40.4022 64.1599 42.1091 62.8436 43.5982Z" fill="#C34E79"/>
  <path d="M66.13 41.6916C65.257 43.5453 64.1414 45.3256 61.8261 46.7021C60.6359 47.394 59.8614 48.0415 59.2841 48.5674C59.0439 48.719 58.8599 48.893 58.7402 49.0741C58.6162 49.2621 58.5575 49.456 58.6014 49.6399C58.6832 49.9803 59.0698 50.2049 59.5941 50.2767C59.7377 50.2959 59.8901 50.3046 60.0525 50.2995C60.5996 50.3461 61.2439 50.4762 61.682 50.8082C62.5921 51.5132 62.5562 51.7913 63.1727 51.3424C63.8194 50.9071 66.1544 48.6915 66.6008 46.4707C67.0597 44.2722 67.0832 42.7573 67.1407 41.7131C67.1913 40.6462 67.0146 39.8047 66.13 41.6916Z" fill="#C34E79"/>
  <path d="M26.3761 34.5933C26.5178 33.8795 26.8593 31.1871 27.8616 29.9028C28.8331 28.6208 30.5891 27.7566 32.4608 27.2203C34.366 26.6821 36.0298 26.6502 36.3306 26.9829C36.6395 27.3444 36.2046 27.6002 35.7828 27.9142C35.324 28.2366 35.3978 28.32 34.7853 29.2305C34.2008 30.1709 34.8376 32.8741 34.2834 33.5895C33.7667 34.3268 33.1335 34.0742 32.1532 34.0683C31.178 34.0595 27.1562 35.1723 27.1562 35.1723C25.9492 35.9491 26.2313 35.3119 26.3761 34.5933Z" fill="#C34E79"/>
  <path d="M37.9166 28.5065C38.618 26.8902 40.9861 25.68 42.622 25.0544C44.2522 24.3988 44.415 24.6243 43.8525 25.0572C43.2883 25.4877 43.6055 25.7267 43.2611 26.9759C42.908 28.1949 42.9459 30.5505 43.2548 32.1393C43.5564 33.7333 43.0146 33.9061 42.3742 34.2257C41.7298 34.5732 38.8618 34.7571 38.8618 34.7571C37.7458 34.8625 37.9697 34.2616 37.7295 33.3239C37.4949 32.3795 37.2503 30.1523 37.9166 28.5065Z" fill="#C34E79"/>
  <path d="M64.5518 32.1923C64.2059 33.0322 63.5635 30.8916 62.6658 29.7361C61.7636 28.5523 60.4186 27.3669 58.2912 25.9923C56.1901 24.6106 51.6555 22.9344 51.6555 22.9344C51.6555 22.9344 50.7717 22.2805 52.9925 22.1947C55.2181 22.142 58.679 23.3522 60.2012 24.2531C61.6902 25.16 63.0727 26.3702 63.8117 27.299C64.5494 28.2251 64.8985 31.3528 64.5518 32.1923Z" fill="#C34E79"/>
  <path d="M61.798 32.9569C61.6064 33.3643 60.7374 33.0223 59.5006 32.1082C58.2577 31.1917 55.6906 29.2171 53.4933 28.8265C51.2581 28.4419 46.8121 29.8376 46.8121 29.8376C45.0558 30.7321 45.3965 29.4533 45.3965 29.4533C45.3965 29.4533 45.6459 26.9293 46.1514 25.4674C46.4723 24.5395 46.7922 24.519 47.5918 24.3973C48.4237 24.2708 49.479 24.5852 51.7593 25.281C54.0339 25.9705 57.8336 28.1706 59.0525 29.1485C60.2447 30.1679 61.9859 32.5196 61.798 32.9569Z" fill="#C34E79"/>
  <path d="M83.3306 58.7757C83.4033 59.0357 83.4652 59.2568 83.5042 59.4307C83.5585 59.676 83.6483 59.9046 83.7335 60.1213C83.9661 60.7133 84.164 61.2166 83.5074 61.7313C83.1691 62.0163 81.7089 62.8314 79.8939 63.8448C77.0635 65.425 73.3699 67.4871 71.7215 68.7719C69.0187 70.8806 67.609 72.416 66.7392 73.5271C66.6342 73.6562 66.5348 73.7828 66.4378 73.9063C65.7015 74.8439 65.1085 75.599 63.2863 75.8736C61.2219 76.1868 58.2227 76.3568 56.2129 75.5293C55.0369 75.0453 54.7395 74.5674 54.5074 74.1945C54.3411 73.9273 54.2084 73.7141 53.8102 73.591C53.6075 73.5271 53.3849 73.5 53.1698 73.5327C52.454 73.6411 51.5421 74.117 50.5574 74.631C50.1025 74.8684 49.6317 75.1142 49.1579 75.3353C47.3397 76.2087 43.3905 78.0022 42.0462 77.6714C41.5001 77.5413 40.4475 77.5071 39.3068 77.4701C37.5858 77.4142 35.6641 77.3518 34.9781 76.9436C33.805 76.2697 32.7796 75.9246 31.3919 75.911C30.0397 75.9298 28.9497 76.6288 28.9497 76.6288C28.9497 76.6288 27.1977 77.5561 26.3957 77.0146C26.2694 76.9312 26.1134 76.8475 25.9342 76.7513C24.9634 76.2304 23.3132 75.3448 22.0363 72.1669C20.9862 69.4907 19.8367 68.144 19.0689 67.2444C18.752 66.8732 18.5002 66.5782 18.3472 66.2973C18.2545 66.1336 18.1262 65.9181 17.9756 65.6651C17.2189 64.3935 15.899 62.1757 15.6971 60.8422C15.665 60.6303 15.622 60.4008 15.5765 60.1583C15.2783 58.5672 14.8749 56.4152 16.7632 54.9794C18.7749 53.4481 19.3215 53.2753 20.2765 52.9735C20.3515 52.9497 20.4295 52.9251 20.5105 52.899C20.6768 52.8469 20.8379 52.7922 20.9925 52.7396C21.9001 52.431 22.5836 52.1986 22.768 53.0335C22.8343 53.3419 22.8736 53.8939 22.9195 54.54C23.0142 55.8698 23.1372 57.5984 23.5824 58.4223C24.2292 59.6125 28.5507 65.2575 30.392 66.6173C31.4517 67.3694 32.2713 67.8491 32.4213 67.9459L32.8031 68.1721C34.0157 68.9047 36.0518 70.0765 36.9631 70.4723C37.8772 70.9292 40.9893 71.9111 42.9595 72.0224C43.3677 72.0381 43.8064 72.0636 44.2677 72.0904C46.0612 72.1946 48.198 72.3187 50.2224 71.9642C50.8589 71.8375 51.7001 71.7351 52.6084 71.6246L52.9057 71.5883C55.6236 71.2384 58.9716 70.6711 60.6897 69.1163C61.0734 68.7714 61.446 68.4408 61.8019 68.1248C63.6313 66.5011 65.0228 65.2661 65.2486 64.4935C65.2818 64.372 65.308 64.2663 65.3311 64.1731C65.4766 63.5853 65.4986 63.4968 66.3909 63.0911L66.4663 63.0551C67.5981 62.5159 70.8185 60.9816 71.4362 58.5796C71.6186 57.8451 71.9097 57.2351 72.2026 56.6216C72.8881 55.1857 73.5829 53.7302 72.9145 50.6113L72.8009 50.0675C71.9702 46.0853 71.805 45.2931 70.41 43.2411C68.9836 41.0949 68.0703 40.2602 67.469 39.8137C66.8992 39.3968 66.596 38.8442 66.5509 38.128C66.5361 37.4034 66.6933 34.2908 66.6933 34.2908C66.6933 34.2908 66.7588 33.2435 68.3204 33.6058L68.4245 33.6285C70.1187 33.9977 76.1721 35.3169 79.7325 39.2831C82.7169 42.6041 82.6926 43.7294 82.6523 45.5994C82.6435 46.0076 82.6339 46.4515 82.6547 46.9613L82.6603 47.0904C82.7824 49.9046 82.8721 51.9734 82.7126 54.1979C82.5522 55.9927 83.0327 57.7105 83.3306 58.7757Z" fill="#C34E79"/>
  <path d="M65.062 61.8263C64.7388 62.3645 64.4395 62.9654 63.8598 62.9602C63.1392 62.9534 61.7292 62.418 61.2197 61.7955C60.8047 61.2888 60.9168 59.941 60.9152 59.2563C60.9124 58.1116 61.6394 58.1368 62.3077 57.721C63.225 57.1501 63.8746 56.0676 64.438 55.0565C67.3187 52.1319 68.6314 48.302 68.7742 46.137C68.9418 43.9298 69.5886 44.3148 70.2329 48.2309C70.7457 51.3471 71.1347 54.9408 69.9321 57.8994C69.4725 59.0309 68.8022 59.7032 67.8238 60.1082C67.0474 60.4302 66.1576 60.6129 65.4953 61.2389C65.3325 61.393 65.1952 61.604 65.062 61.8263Z" fill="#C34E79"/>
</svg>
