<?xml version="1.0" standalone="no"?>
<!DOCTYPE svg PUBLIC "-//W3C//DTD SVG 20010904//EN" "http://www.w3.org/TR/2001/REC-SVG-20010904/DTD/svg10.dtd">
<svg version="1.0" xmlns="http://www.w3.org/2000/svg" width="700.000000pt" height="700.000000pt"
  viewBox="0 0 700.000000 700.000000" preserveAspectRatio="xMidYMid meet">
  <metadata>Created by potrace 1.14, written by Peter Selinger 2001-2017</metadata>
  <g transform="translate(0.000000,700.000000) scale(0.100000,-0.100000)" fill="#000000" stroke="none">
    <path d="M4890 6506 c-83 -24 -150 -58 -179 -91 -29 -33 -35 -48 -66 -157 -26 -97 -115 -163 -145 -109 -5 11 -10 47 -10 80 0 73 -22 133 -55 151 -17 9 -56 11 -142 7 -135 -6 -257 -36 -363 -90 -73 -38 -103 -74 -120 -145 -17 -69 -25 -484 -11 -552 24 -117 86 -210 140 -210 57 0 83 39 96 150 10 75 31 125 67 155 59 50 116 22 138 -69 21 -81 41 -124 76 -160 100 -103 252 -113 333 -20 32 36 43 67 61 180 18 111 59 138 140 93 42 -24 68 -64 99 -153 34 -99 85 -131 157 -101 26 11 40 26 56 62 18 41 23 76 29 238 22 553 7 680 -85 727 -51 26 -154 33 -216 14z" />
    <path d="M5524 6343 c-17 -11 -30 -67 -54 -228 -41 -268 -37 -507 9 -609 22 -49 119 -147 190 -191 111 -70 205 -82 496 -61 135 10 179 -1 211 -48 21 -34 14 -98 -21 -173 -21 -48 -31 -57 -80 -79 -89 -41 -142 -33 -360 53 -227 90 -324 117 -435 117 -99 1 -153 -20 -184 -73 -10 -18 -43 -109 -73 -204 -65 -204 -77 -303 -48 -403 20 -71 78 -133 142 -152 64 -19 183 -14 331 14 125 25 166 27 472 33 l336 6 58 35 c90 53 160 122 187 182 20 46 24 68 23 163 -1 138 -25 253 -103 497 -69 214 -74 240 -63 333 15 143 -14 264 -81 333 -42 44 -78 62 -123 62 -31 0 -44 -7 -78 -43 -23 -24 -61 -79 -85 -123 -49 -90 -77 -124 -101 -124 -25 0 -126 46 -177 81 -24 17 -56 49 -71 72 -27 40 -27 41 -27 221 0 172 -1 183 -23 213 -37 53 -231 122 -268 96z" />
    <path d="M1685 5494 c-22 -2 -92 -9 -155 -15 -260 -25 -622 -97 -843 -170 -349 -114 -483 -269 -463 -540 17 -246 182 -693 352 -952 301 -460 716 -714 1276 -782 73 -9 203 -25 288 -35 292 -36 523 -92 676 -165 182 -85 231 -188 135 -284 -50 -50 -109 -76 -233 -103 -94 -20 -129 -22 -408 -22 -458 0 -573 19 -957 162 -352 131 -513 171 -637 158 -108 -11 -189 -69 -214 -154 -21 -69 -52 -365 -52 -492 0 -279 76 -397 345 -530 142 -70 303 -125 630 -214 461 -126 598 -150 855 -150 240 -1 409 29 628 110 594 220 907 552 972 1032 21 153 2 429 -45 652 -71 343 -238 538 -520 609 -44 11 -226 47 -404 81 -488 91 -683 142 -849 221 -88 42 -154 94 -178 140 -61 120 68 287 266 343 189 53 414 20 896 -132 290 -92 357 -106 453 -99 111 9 167 32 227 91 130 131 218 494 170 699 -34 143 -107 248 -213 304 -116 62 -754 179 -1193 218 -164 15 -716 28 -805 19z" />
    <path d="M4456 5015 c-83 -32 -144 -97 -176 -188 -47 -132 -47 -350 0 -1080 49 -760 35 -1165 -55 -1516 -32 -126 -58 -201 -143 -411 -128 -320 -168 -474 -160 -624 4 -65 11 -104 27 -137 59 -124 188 -186 365 -177 138 7 222 69 291 213 57 121 68 184 70 425 2 239 14 302 62 339 50 40 103 22 177 -60 112 -124 162 -243 277 -653 38 -137 83 -277 100 -312 80 -169 285 -274 477 -244 97 15 175 57 256 137 123 122 188 239 361 648 112 265 131 314 150 408 20 92 19 143 -5 218 -44 139 -138 214 -345 277 -55 17 -152 47 -215 66 -148 46 -208 81 -326 190 -111 103 -167 174 -185 233 -11 39 -10 46 12 89 34 66 99 108 329 210 415 183 580 295 651 440 29 58 31 70 27 133 -7 92 -37 151 -119 234 -121 121 -276 173 -489 164 -148 -6 -204 -24 -395 -129 -184 -100 -267 -131 -356 -131 -54 0 -76 5 -119 29 -134 73 -158 184 -106 490 30 173 33 302 11 389 -33 127 -136 267 -231 315 -60 30 -160 37 -218 15z" />
  </g>
</svg>