<?xml version="1.0" standalone="no"?>
<!DOCTYPE svg PUBLIC "-//W3C//DTD SVG 20010904//EN"
 "http://www.w3.org/TR/2001/REC-SVG-20010904/DTD/svg10.dtd">
<svg version="1.0"
  xmlns="http://www.w3.org/2000/svg" width="700.000000pt" height="700.000000pt" viewBox="0 0 700.000000 700.000000" preserveAspectRatio="xMidYMid meet">
  <metadata>
Created by potrace 1.14, written by Peter Selinger 2001-2017
  </metadata>
  <g transform="translate(0.000000,700.000000) scale(0.100000,-0.100000)" fill="#000000" stroke="none">
    <path d="M4905 6503 c-38 -8 -100 -35 -118 -51 -26 -23 -91 -137 -117 -203 -55 -140 -158 -159 -175 -32 -12 88 -16 100 -43 125 -36 34 -76 46 -150 46 -132 0 -366 -73 -420 -131 -41 -45 -50 -136 -37 -392 10 -192 35 -326 74 -403 22 -42 35 -52 63 -44 19 5 61 87 73 142 20 91 66 160 109 160 40 0 74 -38 120 -134 70 -147 135 -193 258 -182 93 9 135 47 168 151 31 97 78 160 126 165 67 8 102 -29 140 -146 54 -170 110 -170 158 -2 33 111 44 262 42 538 -4 319 -12 354 -92 380 -35 12 -145 20 -179 13z"/>
    <path d="M5599 6383 c-29 -7 -79 -153 -98 -283 -23 -154 -27 -211 -25 -307 2 -123 18 -201 55 -278 35 -71 68 -111 129 -152 100 -67 207 -89 475 -97 211 -6 251 -15 281 -61 16 -25 16 -29 -1 -78 -25 -71 -78 -141 -122 -162 -72 -35 -198 -13 -483 83 -191 64 -272 78 -358 59 -52 -11 -114 -62 -143 -119 -23 -45 -55 -164 -64 -238 -4 -30 -9 -64 -11 -75 -2 -11 -7 -70 -10 -131 -9 -158 13 -200 123 -225 45 -10 266 -12 398 -4 179 11 464 33 525 40 150 18 236 36 315 66 78 29 148 96 165 159 29 109 18 202 -65 545 -19 77 -36 154 -40 170 -19 103 -45 280 -50 340 -10 127 -16 161 -38 200 -62 110 -167 104 -282 -15 -83 -86 -98 -99 -131 -115 -125 -59 -231 54 -259 275 -10 85 -28 145 -62 214 -56 112 -162 202 -224 189z"/>
    <path d="M1767 5464 c-1 -1 -76 -5 -167 -8 -91 -4 -178 -9 -195 -10 -16 -2 -64 -7 -105 -10 -41 -4 -82 -9 -90 -11 -8 -2 -40 -7 -70 -10 -62 -7 -229 -46 -430 -101 -74 -20 -148 -39 -165 -42 -108 -18 -275 -226 -315 -391 -11 -48 -9 -168 4 -226 2 -11 9 -42 16 -70 64 -283 245 -665 427 -900 87 -111 242 -266 348 -345 89 -67 257 -153 380 -195 153 -52 277 -78 790 -170 237 -42 227 -40 366 -75 203 -51 324 -102 390 -162 45 -41 59 -67 59 -109 0 -138 -261 -223 -685 -223 -101 0 -299 10 -345 18 -14 3 -47 7 -75 10 -27 3 -75 10 -105 16 -30 6 -71 13 -90 16 -19 3 -43 7 -52 10 -9 3 -25 6 -35 8 -57 12 -170 45 -343 101 -217 71 -326 100 -415 111 -265 34 -367 -64 -410 -392 -3 -22 -7 -55 -10 -74 -10 -74 -6 -218 9 -288 57 -274 300 -430 941 -606 143 -39 330 -80 415 -91 30 -4 64 -9 75 -11 93 -19 525 -26 650 -12 571 66 1001 319 1217 718 64 118 116 273 133 395 4 28 9 59 11 70 6 28 5 272 -1 315 -4 33 -12 83 -21 142 -10 65 -37 169 -65 251 -75 220 -176 319 -439 430 -62 27 -314 100 -390 114 -33 6 -237 50 -320 69 -490 113 -737 219 -790 337 -31 68 -1 137 95 216 73 60 168 105 252 118 86 13 288 6 353 -12 8 -2 31 -7 50 -10 19 -3 43 -8 52 -11 9 -3 25 -7 35 -9 48 -10 154 -38 317 -84 235 -67 310 -82 432 -88 141 -7 236 22 296 92 50 57 108 192 123 285 3 19 8 53 12 75 8 49 8 255 0 310 -23 153 -56 218 -130 263 -29 17 -86 43 -127 57 -80 27 -289 80 -355 90 -22 3 -65 10 -95 15 -78 13 -108 18 -169 25 -30 4 -61 8 -70 10 -9 1 -52 6 -96 10 -44 4 -93 8 -110 10 -27 4 -60 7 -245 20 -142 11 -715 25 -723 19z"/>
    <path d="M4520 5023 c-74 -25 -149 -86 -168 -138 -17 -46 -26 -107 -39 -265 -3 -41 -7 -534 -8 -1095 -1 -561 -4 -1033 -7 -1050 -3 -16 -9 -59 -13 -95 -12 -112 -50 -248 -134 -473 -208 -559 -235 -833 -93 -964 69 -64 233 -95 340 -64 179 52 277 245 288 566 7 220 30 325 82 365 54 43 122 11 196 -93 75 -105 132 -232 210 -468 80 -241 91 -272 138 -364 76 -151 171 -256 276 -306 58 -28 71 -31 136 -26 89 6 90 6 161 42 123 61 285 253 402 475 85 159 189 416 238 585 101 350 29 474 -355 609 -277 98 -538 263 -642 406 -33 45 -49 101 -36 125 29 51 190 163 403 280 205 113 275 156 415 259 132 97 210 209 210 300 0 120 -149 269 -345 347 -45 18 -175 35 -250 33 -161 -4 -274 -40 -441 -139 -142 -85 -232 -118 -324 -119 -52 0 -84 4 -105 16 -123 66 -166 222 -140 503 19 196 11 306 -30 440 -26 86 -78 181 -126 231 -62 64 -173 100 -239 77z"/>
  </g>
</svg>
