<svg width="318" height="212" viewBox="0 0 318 212" fill="none" xmlns="http://www.w3.org/2000/svg">
  <rect width="318" height="212" fill="#262A2E"/>
  <path d="M178.314 116.841C176.739 114.922 173.248 115.298 171.411 113.637C169.178 111.616 167.64 110.281 170.885 108.751C173.189 107.661 175.78 106.838 177.56 105.018C178.576 103.977 178.705 102.672 177.871 101.424C176.481 99.3448 173.335 98.8332 171.084 99.5626C169.107 100.202 166.349 102.985 164.311 101.023C163.318 100.066 163.662 98.4047 163.874 97.2071C164.143 95.6886 164.439 94.364 163.855 92.876C163.12 91.0055 161.267 89.3392 159.28 90.7189C158.857 91.0133 158.567 91.4243 158.37 91.8977C157.879 93.0803 157.968 94.6506 157.991 95.7658C158.049 98.6089 158.299 101.451 158.448 104.291C158.692 108.937 158.804 113.678 157.097 118.093C155.994 120.943 152.533 127.623 158 128.163C160.603 128.42 161.61 126.192 161.911 123.943C162.037 123 161.466 119.362 162.777 119.009C163.71 118.758 164.824 120.66 165.16 121.335C166.229 123.485 166.553 125.921 167.355 128.172C168.289 130.798 171.636 131.645 173.704 130.042C175.653 128.531 176.654 125.679 177.582 123.482C178.279 121.829 179.56 119.462 178.789 117.633C178.662 117.332 178.502 117.07 178.314 116.841Z" fill="#DDE3EA"/>
  <path d="M150.443 103.512C147.857 102.377 133.707 101.567 136.649 97.5147C139.591 93.4624 147.68 98.001 150.443 98.1631C153.206 98.3252 154.018 96.9895 154.747 93.9299C155.476 90.869 154.212 88.269 151.909 87.7892C151.909 87.7892 146.181 86.4925 141.913 86.1683C137.645 85.8441 133.755 85.682 128.082 86.9788C122.409 88.2755 120.302 89.7343 121.598 94.5971C122.895 99.4598 126.25 107.564 136.649 108.537C147.047 109.509 147.695 111.953 145.75 113.243C143.805 114.534 136.673 114.21 133.917 113.4C131.162 112.589 124.062 108.711 123.641 113.247C123.456 115.231 122.819 117.95 123.896 119.802C123.896 119.802 124.524 121.721 130.576 123.342C136.373 124.895 141.252 126.86 148.669 122.853C149.007 122.68 149.335 122.494 149.654 122.297L149.656 122.296C152.876 120.302 155.037 117.01 154.725 112.427C154.341 106.754 153.029 104.647 150.443 103.512Z" fill="#DDE3EA"/>
  <path d="M153.855 84.699C153.855 84.699 153.585 79.8849 154.395 79.1283C155.206 78.3723 157.367 77.7239 159.205 77.7777C161.041 77.8315 159.584 80.7498 160.826 80.1553C162.068 79.5607 161.42 77.8322 162.662 77.2376C163.906 76.6431 164.877 76.3734 165.958 76.9135C167.038 77.4535 166.716 81.0734 166.661 82.3701C166.607 83.6668 166.931 86.3686 165.472 86.3686C164.013 86.3686 164.769 84.3697 163.31 83.8289C162.145 83.3978 162.266 84.8229 162.112 85.5503C161.607 87.9447 158.37 87.2063 158.016 85.0718C157.793 83.7388 156.924 83.4736 156.266 84.7029C155.947 85.2968 156.21 86.4341 155.611 86.8471C154.596 87.5486 153.868 85.3526 153.855 84.699Z" fill="#DDE3EA"/>
  <path d="M180.438 91.1944L180.435 91.1937C180.059 88.94 178.856 86.8892 179.088 85.7319C179.412 84.1155 178.871 82.14 177.467 81.8313C176.063 81.5221 175.522 84.7762 174.766 84.4994C174.009 84.2232 172.063 83.545 172.28 81.8313C172.497 80.1171 172.604 79.0563 171.415 78.6148C170.227 78.172 169.616 77.8569 169.47 78.6148C169.47 78.6148 168.173 84.6556 169.47 86.2765C170.767 87.8975 172.28 88.4375 173.901 88.3299C175.522 88.2216 178.873 87.2893 177.035 90.6725C177.035 90.6725 176.151 91.4362 174.855 91.0719C173.558 90.7068 168.249 87.7892 167.398 90.4235L166.547 93.0571C166.547 93.0571 165.008 98.0846 170.154 96.9791C175.299 95.8736 177.164 97.1503 178.664 96.2179C180.163 95.2862 181.159 94.5588 180.438 91.1944Z" fill="#DDE3EA"/>
  <path d="M233.353 144.674C232.931 143.255 232.235 142.58 231.122 140.322C229.983 138.104 225.696 130.782 223.06 128.61C222.411 128.057 221.579 127.447 220.643 126.82C220.707 128.066 220.347 129.554 218.736 130.835C217.994 131.442 216.455 132.318 212.407 134.579C212.315 134.63 212.218 134.684 212.124 134.737C213.077 135.238 213.953 135.745 214.771 136.327C216.998 137.959 218.673 138.466 217.878 140C217.144 141.525 216.407 141.746 214.338 140.273C213.37 139.557 210.886 138.27 208.16 136.965C204.737 138.911 201.277 140.958 199.54 142.311C197.487 143.913 195.764 145.419 194.335 146.861C200.228 151.513 204.988 154.028 208.428 153.519C211.915 152.999 216.239 151.129 218.078 150.062C219.882 148.974 224.344 146.49 227.432 145.919C230.521 145.354 231.718 145.927 232.529 145.924C233.374 145.876 233.804 146.051 233.353 144.674Z" fill="#353A3D"/>
  <path d="M231.918 100.281C230.768 99.2655 228.954 97.9986 227.001 96.661C225.717 95.7786 224.348 94.8345 223.066 93.945C220.699 92.2923 216.74 91.0889 213.493 90.2584C215.836 92.9394 217.121 94.9396 217.804 96.6889C221.515 96.6915 224.961 96.9956 225.812 97.2322C226.121 97.3171 226.33 97.4079 226.475 97.4818C227.163 97.867 226.78 98.2936 226.862 99.082C226.982 100.109 225.472 100.391 223.689 100.099C222.979 99.9826 220.958 100.016 218.534 100.158C218.571 100.808 218.567 101.468 218.551 102.169C218.537 102.8 218.523 103.453 218.553 104.179L218.562 104.395C218.668 106.838 218.757 108.927 218.782 110.904C222.433 108.576 230.074 105.08 231.701 104.311C233.422 103.484 233.996 103.576 234.344 102.811C234.728 102.019 233.849 101.939 231.918 100.281Z" fill="#353A3D"/>
  <path d="M95.5897 90.8812C95.8912 91.0219 96.7101 91.3007 97.7468 91.6055C99.9085 88.9537 102.547 85.3079 103.858 82.4719C104.426 81.2426 104.891 79.9148 105.263 78.5895L99.8391 75.904C99.8391 75.904 97.837 74.6954 97.8882 73.8441C97.9666 73.011 99.7646 72.2342 100.869 73.0674C101.287 73.3851 103.404 74.4277 105.953 75.6401C106.494 72.7873 106.607 70.3384 106.417 69.4664C106.093 67.9524 105.915 66.2317 107.024 64.861C107.19 64.6568 107.381 64.4824 107.582 64.3229C105.598 63.2978 103.161 62.4472 100.876 62.4381C96.7516 62.4614 87.3412 65.3415 85.6101 66.0138C83.9055 66.7179 82.625 67.5031 82.625 67.5031C82.625 67.5031 82.979 69.019 83.7564 70.1575C84.5383 71.2351 86.3525 75.7588 86.925 76.896C87.467 78.0624 90.384 85.4097 91.6185 87.0066C92.8556 88.6081 94.5789 90.4404 95.5897 90.8812Z" fill="#353A3D"/>
  <path d="M149.95 157.524C149.45 157.524 148.98 157.471 148.552 157.365C148.005 157.235 146.134 157.174 144.768 157.129C140.566 156.993 137.891 156.836 136.182 155.82C134.662 154.946 133.558 154.619 132.023 154.598C130.86 154.625 129.803 155.245 129.793 155.251L129.679 155.324L129.56 155.387C129.156 155.601 127.038 156.667 124.963 156.667C123.866 156.667 122.895 156.387 122.079 155.835C121.972 155.765 121.803 155.68 121.611 155.578C119.76 154.585 116.315 152.736 113.801 146.48C112.284 142.614 110.687 140.743 109.521 139.378C108.908 138.658 108.378 138.037 107.967 137.284C107.852 137.082 107.657 136.753 107.426 136.366C105.553 133.22 103.693 129.934 103.303 127.355C103.255 127.043 103.192 126.709 103.125 126.354C103.056 125.983 102.979 125.57 102.908 125.125C101.604 127.205 100.804 130.023 101.508 133.763C103.453 144.09 108.856 137.675 113.611 154.282C118.366 170.888 126.031 160.082 131.924 160.299C136.057 160.45 145.477 160.551 150.141 157.522C150.069 157.524 150.006 157.524 149.95 157.524Z" fill="#353A3D"/>
  <path d="M201.553 62.7209C204.284 64.4501 207.109 66.2389 208.662 69.6104C209.939 72.388 210.562 76.8455 206.281 82.3184L206.154 82.4824L206.048 82.6257C205.87 82.8708 205.547 83.3046 205.046 83.6981C206.755 84.5883 208.306 85.5726 209.697 86.6482C212.489 84.1533 215.698 80.5691 216.701 76.6225C218.592 69.1838 215.296 71.4181 209.61 64.0637C203.925 56.7099 203.626 55.8573 199.755 57.3161C198.66 57.7285 197.351 58.0708 196.036 58.3503C197.626 60.2305 199.621 61.4974 201.553 62.7209Z" fill="#353A3D"/>
  <path d="M112.244 61.7007C114.785 60.1083 119.936 55.9873 123.088 53.4658C124.884 52.0284 125.927 51.1965 126.469 50.8107L126.544 50.7589C128.996 49.1178 135.599 47.6084 139.255 47.2486C139.587 47.2194 139.893 47.2071 140.207 47.2071C143.2 47.2071 147.897 48.618 150.928 50.7725C151.104 49.8894 151.519 49.0491 152.137 48.2879C150.094 47.0969 147.577 45.5907 144.516 43.7001C133.494 36.8923 125.605 45.1045 125.605 45.1045C125.605 45.1045 121.506 52.1366 115.772 52.0212C110.039 51.9058 111.558 54.2905 111.558 54.2905L112.244 61.7007Z" fill="#353A3D"/>
  <path d="M116.951 107.991C117.162 109.393 115.937 109.25 115.578 109.374C115.219 109.498 114.02 109.917 114.02 109.917C112.526 110.505 110.001 111.086 108.211 112.437C106.355 113.734 105.612 113.545 104.409 113.728C103.217 113.907 101.458 112.482 100.528 112.057C99.548 111.645 98.9224 110.922 98.0788 109.051C97.2314 107.186 94.8344 102.842 94.5621 101.708C94.328 100.514 94.9498 98.525 96.2692 97.8085C97.6561 97.1439 104.33 89.1768 106.801 83.833C109.265 78.4956 110.112 71.2067 109.585 68.7779C109.207 67.0401 109.858 66.8413 109.858 66.8413L113.433 64.7697C117.06 62.6826 126.691 54.6312 128.348 53.4525C130.023 52.3302 135.74 50.8513 139.572 50.4752C143.464 50.1374 149.844 53.1154 150.593 55.0021C151.338 56.8869 151.527 58.1376 152.496 58.4469C153.42 58.8177 153.928 57.4614 154.323 56.3306C154.725 55.2433 154.197 55.1759 154.075 51.9645C153.901 48.8225 160.17 47.6107 162.062 47.588C163.939 47.507 168.33 47.1005 173.218 48.3058C178.153 49.4482 180.689 48.3058 181.675 48.0477C182.66 47.7897 184.07 45.9496 185.461 48.0348C186.806 50.1374 189.271 55.2887 193.467 60.3375C197.656 65.3811 203.582 66.3297 205.717 70.9662C207.854 75.6124 204.132 79.7554 203.539 80.5646C202.936 81.3699 202.981 81.6649 200.225 80.6547C197.414 79.6465 192.063 78.4626 192.063 78.4626C189.484 77.3104 190.61 76.9901 189.487 73.6303C188.328 70.3236 186.449 69.0762 184.557 67.1045C182.631 65.151 180.047 63.6474 175.75 61.6342C171.462 59.6749 162.762 61.0403 160.947 61.5668C159.086 62.1127 157.605 61.7711 155.815 62.4486C153.969 63.0892 152.005 63.3323 149.796 63.9729C147.545 64.6213 143.992 66.8503 142.685 67.7127C141.379 68.5192 137.892 68.4862 133.823 68.9485C129.746 69.412 126.372 71.4596 125.337 72.3867C124.255 73.3684 121.853 75.4172 120.792 77.8778C119.733 80.3441 114.918 87.1131 114.01 88.2237C113.16 89.3227 113.212 91.4072 113.629 92.7824C113.992 94.1615 114.559 94.1738 115.127 95.9341C115.692 97.6374 116.732 106.541 116.951 107.991Z" fill="#353A3D"/>
  <path d="M180.054 133.154C183.097 135.509 174.395 139.454 173.06 139.751C169.949 140.442 166.672 140.534 163.525 141.067C159.597 141.732 155.642 142.407 151.656 141.843C148.156 141.347 144.802 139.975 141.551 138.638C137.456 136.956 133.684 134.647 130.365 131.713C129.214 130.696 124.663 126.902 126.566 125.117C127.831 123.929 131.693 126.009 133.002 126.603C135.796 127.87 138.321 127.952 141.348 127.466C144.143 127.018 147.098 126.185 149.883 127.143C152.069 127.895 153.756 129.695 155.513 131.098C157.48 132.669 159.573 133.514 162.031 134.025C167.542 135.173 173.195 134.478 178.591 133.055C179.298 132.868 179.768 132.933 180.054 133.154Z" fill="#353A3D"/>
  <path d="M183.121 98.8469C180.986 101.318 180.117 99.9666 180.974 99.1724C181.828 98.4287 181.921 96.3663 181.921 96.3663C181.921 96.3663 182.927 93.8636 183.027 92.1629C183.075 90.4091 181.937 87.9732 181.313 86.893C180.687 85.8063 181.395 85.0361 183.078 84.3741C184.822 83.6978 185.195 84.8221 185.195 84.8221C185.195 84.8221 186.073 87.2483 186.042 90.4272C186.015 93.6535 185.26 96.4272 183.121 98.8469Z" fill="#353A3D"/>
  <path d="M188.461 95.7488C187.043 98.7611 185.23 101.654 181.467 103.891C179.533 105.015 178.275 106.068 177.336 106.922C176.946 107.168 176.647 107.451 176.453 107.745C176.251 108.051 176.156 108.366 176.227 108.665C176.36 109.218 176.988 109.583 177.84 109.7C178.074 109.731 178.321 109.745 178.585 109.737C179.474 109.812 180.521 110.024 181.233 110.563C182.712 111.709 182.654 112.161 183.655 111.431C184.706 110.724 188.501 107.124 189.226 103.515C189.972 99.9424 190.01 97.4806 190.103 95.7838C190.186 94.0501 189.899 92.6827 188.461 95.7488Z" fill="#353A3D"/>
  <path d="M123.861 84.2141C124.091 83.0542 124.646 78.679 126.275 76.5919C127.854 74.5087 130.707 73.1044 133.749 72.233C136.845 71.3583 139.549 71.3065 140.037 71.8472C140.539 72.4346 139.832 72.8502 139.147 73.3605C138.402 73.8844 138.521 74.0199 137.526 75.4994C136.576 77.0276 137.611 81.4203 136.711 82.5828C135.871 83.781 134.842 83.3706 133.249 83.3609C131.664 83.3466 125.129 85.1549 125.129 85.1549C123.168 86.4173 123.626 85.3818 123.861 84.2141Z" fill="#353A3D"/>
  <path d="M142.614 74.323C143.754 71.6965 147.602 69.73 150.261 68.7134C152.91 67.6481 153.174 68.0144 152.26 68.7179C151.343 69.4175 151.859 69.8059 151.299 71.8359C150.725 73.8167 150.787 77.6446 151.289 80.2264C151.779 82.8166 150.899 83.0974 149.858 83.6167C148.811 84.1815 144.15 84.4804 144.15 84.4804C142.337 84.6515 142.701 83.6751 142.31 82.1514C141.929 80.6167 141.532 76.9976 142.614 74.323Z" fill="#353A3D"/>
  <path d="M185.897 80.3125C185.335 81.6773 184.291 78.1988 182.832 76.3211C181.366 74.3974 179.18 72.4711 175.723 70.2375C172.309 67.9922 164.94 65.2684 164.94 65.2684C164.94 65.2684 163.504 64.2057 167.113 64.0663C170.73 63.9808 176.353 65.9473 178.827 67.4113C181.247 68.885 183.493 70.8515 184.694 72.3609C185.893 73.8657 186.46 78.9483 185.897 80.3125Z" fill="#353A3D"/>
  <path d="M181.422 81.5549C181.111 82.2169 179.698 81.6613 177.688 80.1759C175.669 78.6866 171.497 75.4778 167.927 74.843C164.294 74.218 157.07 76.486 157.07 76.486C154.216 77.9396 154.769 75.8616 154.769 75.8616C154.769 75.8616 155.175 71.7601 155.996 69.3845C156.517 67.8767 157.037 67.8433 158.337 67.6455C159.688 67.44 161.403 67.9509 165.109 69.0817C168.805 70.202 174.98 73.7771 176.96 75.3663C178.898 77.0229 181.727 80.8443 181.422 81.5549Z" fill="#353A3D"/>
  <path d="M216.412 123.51C216.53 123.933 216.631 124.292 216.694 124.575C216.782 124.973 216.928 125.345 217.067 125.697C217.445 126.659 217.766 127.477 216.699 128.313C216.15 128.776 213.777 130.101 210.828 131.748L210.828 131.748C206.228 134.316 200.226 137.667 197.547 139.754C193.155 143.181 190.865 145.676 189.451 147.482C189.281 147.691 189.119 147.897 188.962 148.097L188.961 148.098C187.765 149.621 186.801 150.848 183.84 151.295C180.486 151.804 175.612 152.08 172.346 150.735C170.435 149.949 169.952 149.172 169.574 148.566C169.304 148.132 169.089 147.785 168.442 147.585C168.112 147.482 167.75 147.437 167.401 147.491C166.238 147.667 164.756 148.44 163.156 149.275L163.155 149.275C162.416 149.661 161.652 150.06 160.882 150.42C157.927 151.839 151.509 154.753 149.325 154.216C148.438 154.005 146.727 153.949 144.874 153.889H144.874H144.873C142.077 153.798 138.954 153.697 137.839 153.033C135.933 151.938 134.267 151.377 132.012 151.355C129.814 151.386 128.043 152.522 128.043 152.522C128.043 152.522 125.196 154.029 123.893 153.149C123.688 153.013 123.434 152.877 123.143 152.721C121.566 151.874 118.884 150.435 116.809 145.271C115.102 140.922 113.235 138.734 111.987 137.272L111.987 137.272C111.472 136.669 111.063 136.189 110.814 135.733C110.663 135.467 110.455 135.116 110.21 134.705C108.98 132.638 106.836 129.035 106.508 126.869C106.456 126.524 106.386 126.151 106.312 125.757C105.827 123.172 105.172 119.675 108.24 117.341C111.509 114.853 112.397 114.572 113.949 114.082L113.951 114.081C114.073 114.043 114.198 114.003 114.33 113.961C114.6 113.876 114.862 113.787 115.113 113.702L115.113 113.702C116.588 113.2 117.698 112.823 117.998 114.179C118.106 114.681 118.17 115.577 118.244 116.627C118.398 118.788 118.598 121.597 119.321 122.936C120.372 124.87 127.395 134.043 130.387 136.253C132.109 137.475 133.441 138.255 133.685 138.412L134.305 138.78C136.275 139.97 139.584 141.874 141.065 142.517C142.55 143.26 147.608 144.855 150.809 145.036C151.473 145.062 152.185 145.103 152.935 145.147L152.935 145.147C155.85 145.316 159.322 145.518 162.611 144.942C163.646 144.736 165.013 144.569 166.489 144.39L166.489 144.39L166.972 144.331C171.388 143.762 176.829 142.841 179.621 140.314C180.244 139.753 180.85 139.216 181.428 138.703C184.401 136.064 186.662 134.057 187.029 132.802C187.083 132.604 187.125 132.433 187.163 132.281C187.399 131.326 187.435 131.182 188.885 130.523L189.008 130.464C190.847 129.588 196.08 127.095 197.084 123.192C197.38 121.998 197.853 121.007 198.329 120.01L198.329 120.01C199.443 117.677 200.572 115.312 199.486 110.243L199.301 109.36C197.952 102.889 197.683 101.601 195.416 98.2667C193.098 94.7791 191.614 93.4227 190.637 92.6972C189.711 92.0197 189.218 91.1217 189.145 89.9579C189.121 88.7804 189.377 83.7225 189.377 83.7225C189.377 83.7225 189.483 82.0206 192.021 82.6093L192.19 82.6462C194.943 83.2462 204.78 85.3899 210.565 91.8349C215.415 97.2317 215.375 99.0602 215.31 102.099V102.099C215.296 102.763 215.28 103.484 215.314 104.312L215.323 104.522V104.522C215.521 109.095 215.667 112.457 215.408 116.071C215.147 118.988 215.928 121.779 216.412 123.51L216.412 123.51Z" fill="#353A3D"/>
  <path d="M186.726 128.468C186.201 129.342 185.714 130.319 184.772 130.31C183.601 130.299 181.31 129.429 180.482 128.418C179.808 127.594 179.99 125.404 179.987 124.291C179.983 122.431 181.164 122.472 182.25 121.797C183.741 120.869 184.796 119.11 185.712 117.467C190.393 112.714 192.526 106.491 192.758 102.973C193.031 99.3858 194.082 100.011 195.129 106.375C195.962 111.439 196.594 117.279 194.64 122.086C193.893 123.925 192.804 125.018 191.214 125.676C189.952 126.199 188.506 126.496 187.43 127.513C187.165 127.763 186.942 128.106 186.726 128.468Z" fill="#353A3D"/>
</svg>
