<svg width="318" height="212" viewBox="0 0 318 212" fill="none" xmlns="http://www.w3.org/2000/svg">
  <rect width="318" height="212" fill="#262A2E"/>
  <path d="M163.314 77.4437C163.018 77.8589 162.545 78.6894 162.368 79.2232C161.836 80.6468 160.773 80.5875 160.773 79.1046C160.773 77.7403 158.941 77.503 156.341 78.5114C154.864 79.0453 154.805 79.2825 154.982 82.7821C155.159 86.5783 156.223 88.0019 156.873 85.3327C157.345 83.4346 158.291 83.4346 159 85.3327C159.414 86.3411 160.005 86.8156 161.009 86.8156C162.014 86.8156 162.545 86.4004 162.782 85.3327C163.255 83.5532 164.673 83.3753 165.086 85.0954C165.855 88.0019 166.977 85.8072 166.977 81.4179C166.977 77.1472 166.918 77.0285 165.441 76.8506C164.614 76.7319 163.668 77.0285 163.314 77.4437Z" fill="#8B9198"/>
  <path d="M169.991 79.757C168.868 85.6292 170.227 88.0018 174.836 88.0018C178.145 88.0018 178.677 88.2984 177.85 89.8406C177.141 91.2049 176.195 91.2642 172.532 89.9592C168.986 88.6543 167.864 89.4254 167.45 93.5182C167.036 96.8992 167.214 96.9585 174.068 96.484C181.395 96.0094 182.045 95.357 180.627 89.7813C180.095 87.7646 179.682 85.3326 179.682 84.3836C179.682 82.0109 178.086 81.4178 176.609 83.2566C175.132 85.0954 173.536 84.2056 173.3 81.4178C173.123 79.6383 171.882 77.9182 170.759 77.9182C170.582 77.9182 170.227 78.7486 169.991 79.757Z" fill="#8B9198"/>
  <path d="M128.568 87.1123C126.973 87.5868 125.436 87.9427 125.259 88.002C124.195 88.0613 122.364 90.6712 122.364 92.1541C122.364 95.0606 124.727 100.518 127.209 103.187C130.164 106.449 132.409 107.457 138.85 108.466C144.523 109.415 146.945 110.245 147.418 111.491C148.423 114.16 138.968 114.753 132.35 112.381C126.559 110.364 125.141 110.72 124.55 114.338C123.664 119.676 125.259 121.397 133 123.532C147.714 127.625 158.232 120.21 154.864 108.11C153.918 104.67 152.205 103.602 145.705 102.238C137.55 100.577 135.305 98.8568 138.436 96.6621C140.209 95.4165 142.395 95.4758 147.359 96.9587C152.086 98.3822 153.8 98.145 154.745 96.0096C155.691 93.9929 155.632 90.256 154.745 89.0104C152.914 86.5784 135.127 85.2735 128.568 87.1123Z" fill="#8B9198"/>
  <path d="M159.65 91.2051C159.177 91.7982 159 95.4164 159.118 103.187C159.236 113.745 159.177 114.575 157.877 117.956C155.159 124.837 155.514 127.743 159.118 127.743C161.305 127.743 162.545 125.727 162.545 122.286C162.545 117.007 165.264 118.431 167.036 124.659C169.518 133.2 174.541 132.489 178.205 123.117C180.332 117.719 179.918 116.473 175.664 115.05C172.473 113.982 169.4 111.55 169.755 110.364C169.873 110.008 171.468 108.822 173.3 107.873C179.327 104.61 180.391 102.772 177.555 100.518C175.545 98.916 172.236 98.9161 169.932 100.458C166.032 103.009 164.023 101.585 164.614 96.7213C165.264 91.7981 162.073 88.2986 159.65 91.2051Z" fill="#8B9198"/>
  <path d="M182.991 47.7267C181.691 48.4978 177.909 48.5571 168.395 47.964C157.818 47.3115 154.745 48.6164 154.923 53.8955C155.1 58.878 153.505 60.005 151.85 56.0309C148.955 49.2096 135.186 48.8537 126.855 55.4377C124.905 56.9799 120.295 60.2423 116.691 62.6149C110.132 66.945 110.132 66.945 109.836 72.2834C109.305 81.1214 105.877 88.2392 98.3138 96.1875C94.4728 100.162 94.4728 100.873 97.6047 106.924C101.032 113.508 103.868 114.813 109.245 112.084C110.782 111.313 113.086 110.364 114.386 109.949C115.686 109.534 116.927 109.059 117.164 108.822C117.814 108.288 115.982 96.4248 114.977 94.3488C113.441 91.2643 113.855 89.3069 117.164 84.5024C118.818 82.0111 120.414 79.8757 120.591 79.6978C120.768 79.5199 121.536 78.4522 122.245 77.2065C125.436 71.9868 130.045 69.4955 138.023 68.7244C141.095 68.4278 143.223 67.7754 146.236 66.2332C152.264 63.1488 162.664 60.7761 170.227 60.7168C178.855 60.7168 188.9 68.2499 190.614 75.9609C190.968 77.7404 191.323 77.9776 194.336 78.8081C196.168 79.2826 199.005 80.113 200.659 80.5875C204.145 81.5959 205.8 80.5875 206.923 76.6727C208.341 72.0461 205.859 67.8347 200.068 64.9282C196.227 63.0301 193.214 59.7084 189.136 53.0651C185.414 47.0149 185 46.5997 182.991 47.7267Z" fill="#353A3D"/>
  <path d="M165.5 64.7503C165.5 65.0468 167.036 65.8773 168.927 66.5891C176.314 69.6141 182.459 74.1221 184.468 77.9776C185.827 80.7062 186.773 80.9434 186.773 78.5708C186.773 72.224 182.459 67.716 173.832 65.1062C170.877 64.2164 165.5 63.9792 165.5 64.7503Z" fill="#353A3D"/>
  <path d="M149.25 69.5548C144.05 71.9868 143.4 72.9951 143.164 78.4522C142.927 84.2651 143.223 84.6803 147.241 84.2058C152.027 83.6126 151.968 83.6719 152.086 76.3168C152.145 71.8088 152.441 69.4955 153.032 68.843C154.155 67.4195 153.327 67.5974 149.25 69.5548Z" fill="#353A3D"/>
  <path d="M156.695 69.7328C156.341 70.8005 155.927 72.8172 155.691 74.1814C155.218 77.1472 155.336 77.1472 160.182 75.8423C167.036 74.0035 171.055 74.8339 177.377 79.4605C182.518 83.1974 183.582 81.8332 179.15 77.1472C174.6 72.3427 165.145 67.8347 159.532 67.8347C157.582 67.8347 157.227 68.0126 156.695 69.7328Z" fill="#353A3D"/>
  <path d="M134.773 72.2239C128.745 73.8255 125.968 76.9692 124.964 83.2566C124.55 85.6293 124.609 85.8072 125.673 85.392C127.741 84.5023 133.295 83.3159 135.186 83.2566C137.432 83.2566 137.905 82.6636 138.082 79.4605C138.141 78.0963 138.259 76.732 138.259 76.3168C138.318 75.9609 138.968 74.8339 139.795 73.8849C141.982 71.275 140.327 70.6817 134.773 72.2239Z" fill="#353A3D"/>
  <path d="M190.141 83.0787C189.905 83.2566 189.727 85.1547 189.727 87.2901C189.727 91.0863 189.727 91.1456 192.859 94.4673C194.514 96.3061 196.464 98.916 197.114 100.221C197.764 101.467 198.473 102.653 198.65 102.831C199.182 103.305 200.955 111.669 200.955 113.864C200.955 115.821 199.359 120.626 198.532 121.219C198.295 121.397 197.705 122.524 197.232 123.71C196.286 125.905 192.977 128.752 189.727 130.116C188.782 130.531 187.955 131.302 187.955 131.836C187.955 133.497 179.209 141.267 176.195 142.216C167.391 145.123 151.909 145.657 144.995 143.225C136.605 140.378 128.45 134.09 122.955 126.379C121.891 124.837 120.768 123.591 120.532 123.591C119.823 123.591 118.818 119.499 118.818 116.77C118.818 112.974 118.286 112.618 114.859 113.745C104.873 117.067 103.75 124.125 111.373 135.217C113.205 137.768 115.745 142.098 117.105 144.767C120.709 151.944 124.018 153.961 129.159 152.181C132.823 150.877 135.186 150.995 138.141 152.597C138.909 152.953 142.395 153.427 145.941 153.664C153.209 154.08 154.155 153.842 162.782 149.631C168.218 146.902 168.809 146.843 170.523 148.741C174.364 152.893 186.241 152.3 189.668 147.792C193.155 143.225 198.295 139.251 206.568 134.565C213.009 130.946 217.795 128.04 218.15 127.565C218.327 127.328 218.032 125.312 217.382 123.117C216.555 119.973 216.318 117.067 216.318 109.178C216.318 97.5517 216.082 96.662 211.473 91.7981C206.332 86.3411 192.505 80.6468 190.141 83.0787Z" fill="#353A3D"/>
  <path d="M182.814 84.7396C181.514 85.6887 181.514 85.6887 182.695 88.7138C183.877 91.7389 183.877 91.7389 182.636 95.7723C181.218 100.518 181.218 100.518 182.341 100.102C184.291 99.3313 186.477 94.4081 186.477 90.6712C186.477 84.3244 185.532 82.8415 182.814 84.7396Z" fill="#353A3D"/>
  <path d="M188.368 96.7215C186.773 99.7466 184.232 102.356 179.445 105.678C176.255 107.873 176.195 108.762 179.15 109.652C180.273 110.008 181.809 110.601 182.518 111.016C185.414 112.677 189.432 106.746 190.318 99.5686C191.086 93.6964 190.377 92.7473 188.368 96.7215Z" fill="#353A3D"/>
  <path d="M193.686 101.051C193.509 101.526 193.214 102.95 193.036 104.254C192.327 109.415 185.709 120.032 181.809 122.227C180.332 123.057 180.332 127.684 181.809 128.752C184.055 130.413 185.65 130.353 187.009 128.633C187.718 127.743 189.491 126.438 190.909 125.727C195.459 123.532 195.932 122.346 195.873 113.33C195.814 105.856 194.573 98.7381 193.686 101.051Z" fill="#353A3D"/>
  <path d="M127.445 125.311C125.791 127.981 134.655 135.277 144.227 139.132C150.491 141.623 154.568 142.216 160.3 141.445C162.959 141.03 167.155 140.496 169.459 140.2C175.9 139.369 181.986 135.81 181.1 133.438C180.686 132.311 180.745 132.311 176.727 133.378C169.932 135.217 160.418 134.09 156.814 131.065C151.259 126.379 149.486 125.905 142.159 127.21C138.968 127.743 138.141 127.684 135.009 126.557C130.518 124.896 127.918 124.481 127.445 125.311Z" fill="#353A3D"/>
  <path d="M93.1135 63.9792C87.7954 65.3434 83.3635 67.0043 83.3635 67.5381C83.3635 67.7161 84.5454 70.3259 85.9045 73.351C87.3226 76.3168 89.1545 80.4096 89.9226 82.3077C91.459 86.0446 95.2408 90.6712 97.309 91.2643C99.3181 91.7982 106.527 80.5282 105.345 78.6894C105.109 78.3335 103.514 77.3845 101.859 76.4948C100.145 75.6643 98.7272 74.5373 98.7272 74.1221C98.7272 72.5799 100.559 72.5799 103.336 74.0628C106.705 75.8423 106.764 75.7237 107.118 68.8431C107.355 63.6826 107.355 63.6826 105.286 63.0894C102.036 62.1997 98.9635 62.437 93.1135 63.9792Z" fill="#353A3D"/>
  <path d="M216.673 93.1624C217.795 94.586 218.682 96.0096 218.682 96.3062C218.682 96.6027 220.632 96.8993 222.995 97.018C226.895 97.1959 227.25 97.3145 227.427 98.5008C227.605 99.7465 227.368 99.8058 223.586 99.9837C219.036 100.162 218.741 100.696 219.568 107.398C219.923 110.483 219.923 110.483 227.545 106.805C231.741 104.788 235.168 102.831 235.168 102.475C235.227 101.467 223.645 93.3404 220.455 92.0948C214.782 89.9594 214.309 90.078 216.673 93.1624Z" fill="#353A3D"/>
  <path d="M221.755 126.854C222.464 127.625 219.982 130.531 217.5 131.955C216.2 132.726 215.136 133.556 215.136 133.794C215.136 134.09 214.837 133.918 214.664 134.031C214.431 134.183 214.132 134.09 214.132 134.505C214.132 134.921 215.195 135.929 216.436 136.7C218.682 138.124 219.391 139.962 217.855 140.556C217.441 140.734 215.314 139.903 213.127 138.717C209.227 136.522 209.227 136.522 204.736 139.429C202.255 140.971 199.655 142.572 198.945 142.988C198.236 143.403 197.055 144.411 196.227 145.242C194.514 147.08 194.514 147.14 202.727 151.529C207.455 154.08 211.236 153.605 219.627 149.453C224.886 146.902 227.545 145.953 230.086 145.716C232.095 145.479 233.691 145.064 233.868 144.589C234.459 142.988 226.245 130.057 223.114 127.684C222.168 126.913 221.518 126.557 221.755 126.854Z" fill="#353A3D"/>
  <path d="M216.688 70.5626C215.062 67.3126 205.313 56.7501 202.875 56.7501C200.438 56.7501 200.112 56.9127 198.813 57.5626C198 57.8335 196.863 58.7001 198.813 60.0001C202.333 62.4376 209.538 68.1251 210.188 71.3751C210.458 73.0001 210.513 77.2251 208.563 81.1251C208.021 81.9376 207.263 83.8876 208.563 85.1876C208.833 85.7293 209.863 86.4876 211.813 85.1876C214.25 83.5626 216.688 81.1251 217.5 77.0626C217.771 75.4376 218.313 73.8126 216.688 70.5626Z" fill="#353A3D"/>
  <path d="M119.188 154.25C114.312 151.813 104.563 126.625 102.938 126.625C101.312 126.625 100.914 134.351 103.75 137.188C106.585 140.024 112.688 146.938 115.937 157.5C119.187 168.063 130.562 160.75 130.562 160.75C130.562 160.75 145.187 159.125 146.812 159.125C148.438 159.125 151.688 157.5 148.437 157.5C145.187 157.5 133 153.438 131.375 155.063C129.749 156.688 124.063 156.688 119.188 154.25Z" fill="#353A3D"/>
  <path d="M138.687 41.3126C144.375 42.1251 151.687 47.0001 152.5 48.6251C153.313 50.2501 150.875 51.0626 149.25 50.2501C147.625 49.4376 148.275 49.1126 144.375 47.8126C141.396 47.0001 133.65 46.6751 126.5 51.8751C122.438 54.8542 114.15 60.8126 113.5 60.8126C112.958 60.8126 112.037 60.4876 112.687 59.1876C112.958 58.6459 113.337 57.0751 112.687 55.1251C112.416 54.3126 112.2 52.6876 113.5 52.6876C115.396 52.6876 121.625 50.2501 124.875 47.0001C128.125 43.75 133 40.5001 138.687 41.3126Z" fill="#353A3D"/>
</svg>
