<svg width="1512" height="982" viewBox="0 0 1512 982" fill="none" xmlns="http://www.w3.org/2000/svg">
  <g clip-path="url(#clip-0)">
    <rect width="1512" height="982" fill="#191C1E" />
    <g filter="url(#filter-0)">
      <path
        d="M254.5 931C254.5 1056.92 -192.479 1292 -318.4 1292C-444.321 1292 -600.5 1032.92 -600.5 907C-600.5 781.079 -175.421 432.5 -49.5 432.5C76.4209 432.5 254.5 805.079 254.5 931Z"
        fill="#62003E" />
      <path
        d="M825.5 1132C825.5 1257.92 130.421 1304.5 4.5 1304.5C-121.421 1304.5 -239 1084.92 -239 959C-239 833.079 -8.92093 816 117 816C242.921 816 825.5 1006.08 825.5 1132Z"
        fill="#00344C" />
      <path
        d="M1596 491.5C1721.92 491.5 1939.5 526 1881.5 257.5C1823.5 -10.9999 1400 -261.5 1270 -77C1140 107.5 1470.08 491.5 1596 491.5Z"
        fill="#00344C" />
    </g>
  </g>
  <defs>
    <filter id="filter-0" x="-800.5" y="-340.437" width="2891.64" height="1844.94" filterUnits="userSpaceOnUse"
      color-interpolation-filters="sRGB">
      <feFlood flood-opacity="0" result="BackgroundImageFix" />
      <feBlend mode="normal" in="SourceGraphic" in2="BackgroundImageFix" result="shape" />
      <feGaussianBlur stdDeviation="100" result="effect1_foregroundBlur_5430_12318" />
    </filter>
    <clipPath id="clip-0">
      <rect width="1512" height="982" fill="white" />
    </clipPath>
  </defs>
</svg>