<svg width="64" height="64" viewBox="0 0 64 64" fill="none" xmlns="http://www.w3.org/2000/svg">
  <rect width="64" height="64" fill="white"/>
  <path d="M29.095 24.608V39.0625H26.0389V27.5087H25.9542L22.6441 29.5838V26.8735L26.2224 24.608H29.095ZM35.9896 39.3801C34.7756 39.3754 33.731 39.0766 32.8559 38.4838C31.9854 37.8909 31.3149 37.0322 30.8444 35.9076C30.3785 34.7831 30.148 33.4303 30.1527 31.8493C30.1527 30.2731 30.3856 28.9297 30.8514 27.8193C31.3219 26.7089 31.9924 25.8643 32.8629 25.2855C33.7381 24.7021 34.7803 24.4103 35.9896 24.4103C37.1988 24.4103 38.2387 24.7021 39.1091 25.2855C39.9843 25.869 40.6572 26.7159 41.1277 27.8263C41.5982 28.9321 41.8311 30.2731 41.8264 31.8493C41.8264 33.435 41.5912 34.7901 41.1206 35.9147C40.6548 37.0392 39.9867 37.8979 39.1162 38.4908C38.2457 39.0837 37.2035 39.3801 35.9896 39.3801ZM35.9896 36.8463C36.8177 36.8463 37.4788 36.4299 37.9728 35.5971C38.4669 34.7642 38.7116 33.515 38.7068 31.8493C38.7068 30.753 38.5939 29.8402 38.3681 29.1109C38.1469 28.3816 37.8317 27.8334 37.4223 27.4664C37.0177 27.0994 36.5401 26.9159 35.9896 26.9159C35.1661 26.9159 34.5074 27.3276 34.0134 28.151C33.5193 28.9744 33.2699 30.2072 33.2652 31.8493C33.2652 32.9598 33.3758 33.8867 33.5969 34.6301C33.8228 35.3689 34.1404 35.9241 34.5498 36.2958C34.9591 36.6628 35.439 36.8463 35.9896 36.8463Z" fill="#E20098"/>
  <circle cx="32" cy="32" r="23.1875" stroke="url(#paint0_linear_1_1887)" stroke-width="6.625"/>
  <circle cx="32" cy="32" r="16.0104" stroke="url(#paint1_linear_1_1887)" stroke-width="1.10417"/>
  <defs>
    <linearGradient id="paint0_linear_1_1887" x1="32" y1="5.5" x2="32" y2="58.5" gradientUnits="userSpaceOnUse">
      <stop stop-color="#20B6F9"/>
      <stop offset="1" stop-color="#E20098" stop-opacity="0"/>
    </linearGradient>
    <linearGradient id="paint1_linear_1_1887" x1="32" y1="15.4375" x2="32" y2="48.5625" gradientUnits="userSpaceOnUse">
      <stop stop-color="#E20098"/>
      <stop offset="1" stop-color="#20B6F9"/>
    </linearGradient>
  </defs>
</svg>
