<svg width="64" height="64" viewBox="0 0 64 64" fill="none" xmlns="http://www.w3.org/2000/svg">
  <rect width="64" height="64" fill="#DDE3EA"/>
  <mask id="mask0_1_1890" style="mask-type:alpha" maskUnits="userSpaceOnUse" x="8" y="8" width="48" height="48">
    <rect x="8" y="8" width="48" height="48" fill="#D9D9D9"/>
  </mask>
  <g mask="url(#mask0_1_1890)">
    <path d="M37.5 31.6L45.5 27L37.5 22.4L29.5 27L37.5 31.6ZM37.5 37.7L43 34.5V30.3L37.5 33.5L32 30.3V34.5L37.5 37.7ZM49.05 48H38.05C38.05 47.5 38.0334 47 38 46.5C37.9667 46 37.9167 45.5 37.85 45H49.05V19H15.05V22C14.55 21.9333 14.05 21.8833 13.55 21.85C13.05 21.8167 12.55 21.8 12.05 21.8V19C12.05 18.175 12.3438 17.4688 12.9313 16.8813C13.5188 16.2937 14.225 16 15.05 16H49.05C49.875 16 50.5813 16.2937 51.1688 16.8813C51.7563 17.4688 52.05 18.175 52.05 19V45C52.05 45.825 51.7563 46.5312 51.1688 47.1187C50.5813 47.7062 49.875 48 49.05 48ZM12.05 48V42.8C13.4389 42.8 14.6195 43.3055 15.5917 44.3167C16.5639 45.3278 17.05 46.5556 17.05 48H12.05ZM22.05 48C22.05 45.178 21.0834 42.7725 19.15 40.7835C17.2167 38.7945 14.85 37.8 12.05 37.8V34.8C15.6715 34.8 18.7435 36.0917 21.2661 38.675C23.7887 41.2583 25.05 44.3667 25.05 48H22.05ZM30.05 48C30.05 45.5 29.5834 43.1417 28.65 40.925C27.7167 38.7083 26.4334 36.775 24.8 35.125C23.1667 33.475 21.2584 32.175 19.075 31.225C16.8917 30.275 14.55 29.8 12.05 29.8V26.8C14.95 26.8 17.675 27.3583 20.225 28.475C22.775 29.5917 25 31.1083 26.9 33.025C28.8 34.9417 30.3 37.1917 31.4 39.775C32.5 42.3583 33.05 45.1 33.05 48H30.05Z" fill="#236488"/>
  </g>
</svg>
