<svg width="64" height="64" viewBox="0 0 64 64" fill="none" xmlns="http://www.w3.org/2000/svg">
  <rect width="64" height="64" fill="#DDE3EA"/>
  <mask id="mask0_1_1897" style="mask-type:alpha" maskUnits="userSpaceOnUse" x="8" y="8" width="48" height="48">
    <rect x="8" y="8" width="48" height="48" fill="#D9D9D9"/>
  </mask>
  <g mask="url(#mask0_1_1897)">
    <path d="M21.5 52C20 52 18.7083 51.506 17.625 50.5181C16.5417 49.5302 16 48.3075 16 46.85V18.65C16 17.4311 16.3686 16.3405 17.1059 15.3783C17.8431 14.416 18.8078 13.8066 20 13.55L39 9.59998V40.6L21 44.45C20.4286 44.573 19.9524 44.8653 19.5714 45.3269C19.1905 45.7884 19 46.2961 19 46.85C19 47.4833 19.25 48 19.75 48.4C20.25 48.8 20.8333 49 21.5 49H45V16H48V52H21.5ZM25 40.6L36 38.25V13.3L25 15.55V40.6ZM22 41.2404V16.2L21 16.4C20.4333 16.5333 19.9583 16.7971 19.575 17.1913C19.1917 17.5856 19 18.0718 19 18.65V42.2C19.3021 42.0266 19.6193 41.875 19.9516 41.745C20.2839 41.615 20.6333 41.5166 21 41.45L22 41.2404Z" fill="#236488"/>
  </g>
</svg>
