<svg width="64" height="64" viewBox="0 0 64 64" fill="none" xmlns="http://www.w3.org/2000/svg">
  <rect width="64" height="64" fill="white"/>
  <path d="M51.3132 40.9879C50.1926 39.6222 47.7073 39.8899 46.3998 38.707C44.8102 37.2689 43.7155 36.3181 46.025 35.2289C47.6653 34.4531 49.5096 33.8674 50.7765 32.5719C51.5002 31.8306 51.592 30.9016 50.998 30.0136C50.0085 28.5334 47.7691 28.1693 46.1667 28.6885C44.7595 29.1436 42.7961 31.1249 41.3455 29.7279C40.6389 29.0467 40.884 27.8642 41.0344 27.0118C41.226 25.9309 41.4369 24.9879 41.0211 23.9287C40.4981 22.5972 39.1786 21.4111 37.7645 22.3932C37.4631 22.6027 37.2568 22.8953 37.1169 23.2323C36.7671 24.0741 36.8303 25.1919 36.8465 25.9858C36.888 28.0096 37.0657 30.033 37.1719 32.0545C37.3459 35.3614 37.4257 38.7366 36.2105 41.8791C35.4254 43.908 32.9613 48.6632 36.8534 49.0477C38.706 49.2304 39.4228 47.6446 39.6374 46.0435C39.7269 45.3725 39.3203 42.7828 40.254 42.5313C40.9177 42.3527 41.7106 43.7068 41.9497 44.1868C42.7112 45.7177 42.942 47.4517 43.5124 49.0537C44.1775 50.9229 46.5599 51.5261 48.0322 50.3852C49.4191 49.3094 50.1317 47.2795 50.7922 45.7154C51.2888 44.5385 52.2008 42.8534 51.6515 41.5519C51.5611 41.3373 51.4471 41.1513 51.3132 40.9879Z" fill="#A43560"/>
  <path d="M31.4734 31.4999C29.6328 30.6922 19.5603 30.1153 21.6542 27.2307C23.7482 24.3461 29.5063 27.5768 31.4734 27.6922C33.4404 27.8076 34.0183 26.8569 34.5375 24.6789C35.0558 22.5 34.1567 20.6492 32.5173 20.3077C32.5173 20.3077 28.4392 19.3846 25.4014 19.1539C22.3636 18.9231 19.5944 18.8077 15.556 19.7308C11.5176 20.6538 10.0176 21.6923 10.9407 25.1538C11.8637 28.6153 14.2522 34.3845 21.6542 35.0768C29.0558 35.7691 29.5174 37.5081 28.1328 38.427C26.7482 39.3459 21.6713 39.1152 19.7098 38.5383C17.7483 37.9613 12.6945 35.2005 12.3945 38.4293C12.263 39.8421 11.8097 41.7773 12.5759 43.0954C12.5759 43.0954 13.0236 44.4616 17.3311 45.6154C21.4581 46.7208 24.9311 48.1201 30.2106 45.2674C30.4515 45.1446 30.6851 45.0117 30.9121 44.8714L30.9131 44.871C33.205 43.4513 34.7433 41.1085 34.5218 37.846C34.2481 33.8075 33.314 32.3076 31.4734 31.4999Z" fill="#A43560"/>
  <path d="M33.902 18.108C33.902 18.108 33.71 14.6811 34.2869 14.1425C34.8638 13.6043 36.4026 13.1428 37.7106 13.1811C39.0176 13.2194 37.9801 15.2968 38.8644 14.8735C39.7487 14.4503 39.2872 13.2199 40.1715 12.7966C41.0567 12.3734 41.7481 12.1814 42.5179 12.5659C43.2868 12.9503 43.057 15.5271 43.0182 16.4501C42.9794 17.3732 43.2102 19.2964 42.1717 19.2964C41.1333 19.2964 41.6714 17.8735 40.633 17.4886C39.8036 17.1817 39.8895 18.1961 39.7801 18.714C39.4206 20.4184 37.1166 19.8927 36.8641 18.3734C36.7054 17.4244 36.0869 17.2357 35.6184 18.1107C35.3914 18.5335 35.5787 19.343 35.1523 19.637C34.4295 20.1364 33.9112 18.5732 33.902 18.108Z" fill="#00658D"/>
  <path d="M52.8255 22.7315L52.8228 22.7311C52.5555 21.1268 51.6994 19.667 51.8642 18.8431C52.0949 17.6925 51.71 16.2862 50.7103 16.0665C49.7107 15.8464 49.3257 18.1628 48.7876 17.9658C48.2485 17.7691 46.8639 17.2864 47.0181 16.0665C47.1722 14.8463 47.2488 14.0912 46.4024 13.7769C45.5569 13.4617 45.1216 13.2373 45.0178 13.7769C45.0178 13.7769 44.0947 18.077 45.0178 19.2308C45.9409 20.3846 47.0181 20.7691 48.1719 20.6925C49.3257 20.6154 51.7109 19.9517 50.403 22.36C50.403 22.36 49.7739 22.9037 48.8508 22.6443C47.9278 22.3845 44.1487 20.3076 43.5432 22.1828L42.9372 24.0575C42.9372 24.0575 41.8415 27.6363 45.5047 26.8493C49.1674 26.0624 50.4948 26.9712 51.5623 26.3075C52.6294 25.6443 53.3388 25.1264 52.8255 22.7315Z" fill="#00658D"/>
</svg>
