<svg width="64" height="64" viewBox="0 0 64 64" fill="none" xmlns="http://www.w3.org/2000/svg">
  <rect width="64" height="64" fill="white"/>
  <path d="M37.5615 22.9056C37.2235 23.328 37.0968 25.9049 37.1813 31.4387C37.2658 38.9579 37.2235 39.5493 36.2942 41.9572C34.351 46.8573 34.6045 48.9272 37.1813 48.9272C38.7443 48.9272 39.6314 47.491 39.6314 45.0409C39.6314 41.2813 41.5746 42.2951 42.8419 46.7306C44.6161 52.8136 48.2067 52.3067 50.8258 45.6323C52.3465 41.7882 52.0508 40.9011 49.0093 39.8873C46.7282 39.1269 44.5316 37.3949 44.785 36.5501C44.8695 36.2966 46.0101 35.4518 47.3196 34.7759C51.6284 32.4525 52.3887 31.143 50.3611 29.5377C48.9248 28.3972 46.5592 28.3972 44.9118 29.4955C42.1237 31.3119 40.6875 30.2981 41.1099 26.8342C41.5746 23.328 39.2935 20.8357 37.5615 22.9056Z" fill="#B50077"/>
  <path d="M15.3418 19.9907C14.2012 20.3287 13.1029 20.5821 12.9762 20.6244C12.2158 20.6666 10.9062 22.5253 10.9062 23.5814C10.9062 25.6513 12.596 29.5376 14.3702 31.4385C16.4823 33.7619 18.0875 34.48 22.692 35.1982C26.7473 35.874 28.4793 36.4654 28.8172 37.3525C29.5354 39.2535 22.7765 39.6759 18.0453 37.9862C13.9055 36.5499 12.8917 36.8034 12.4692 39.3802C11.8356 43.1821 12.9762 44.4071 18.51 45.9278C29.0284 48.8426 36.5477 43.5622 34.1398 34.9447C33.464 32.4946 32.2389 31.7342 27.5922 30.7627C21.7627 29.5798 20.1574 28.3548 22.3963 26.7918C23.6636 25.9047 25.2266 25.947 28.775 27.003C32.1544 28.0169 33.3795 27.8479 34.0554 26.3271C34.7312 24.8909 34.689 22.2296 34.0554 21.3425C32.7458 19.6105 20.0307 18.6812 15.3418 19.9907Z" fill="#B50077"/>
  <path d="M44.954 14.7528C44.1514 18.9348 45.123 20.6245 48.4179 20.6245C50.7835 20.6245 51.1637 20.8357 50.5723 21.9341C50.0654 22.9056 49.3895 22.9479 46.7704 22.0185C44.2359 21.0892 43.4333 21.6384 43.1376 24.5531C42.8419 26.961 42.9686 27.0032 47.8688 26.6653C53.1069 26.3273 53.5716 25.8627 52.5577 21.8918C52.1775 20.4556 51.8818 18.7236 51.8818 18.0477C51.8818 16.358 50.7413 15.9356 49.6852 17.2451C48.6291 18.5546 47.4886 17.921 47.3196 15.9356C47.1929 14.6683 46.3058 13.4432 45.5032 13.4432C45.3764 13.4432 45.123 14.0346 44.954 14.7528Z" fill="#00658F"/>
  <path d="M40.1807 13.1052C39.9695 13.4009 39.6315 13.9923 39.5048 14.3725C39.1246 15.3863 38.3643 15.344 38.3643 14.288C38.3643 13.3164 37.0547 13.1474 35.196 13.8655C34.14 14.2457 34.0977 14.4147 34.2245 16.907C34.3512 19.6106 35.1116 20.6244 35.5762 18.7235C35.9142 17.3717 36.5901 17.3717 37.097 18.7235C37.3927 19.4416 37.8151 19.7795 38.5332 19.7795C39.2514 19.7795 39.6315 19.4838 39.8005 18.7235C40.1385 17.4562 41.1523 17.3295 41.448 18.5545C41.9971 20.6244 42.7998 19.0614 42.7998 15.9354C42.7998 12.8939 42.7575 12.8095 41.7014 12.6827C41.11 12.5982 40.4342 12.8095 40.1807 13.1052Z" fill="#00658F"/>
</svg>
