<svg width="64" height="64" viewBox="0 0 64 64" fill="none" xmlns="http://www.w3.org/2000/svg">
<rect width="64" height="64" fill="white"/>
<path d="M51.313 40.9879C50.1924 39.6222 47.707 39.8899 46.3995 38.707C44.81 37.2689 43.7152 36.3181 46.0247 35.2289C47.665 34.4531 49.5093 33.8674 50.7762 32.5719C51.4999 31.8306 51.5918 30.9016 50.9978 30.0136C50.0082 28.5334 47.7689 28.1693 46.1664 28.6885C44.7592 29.1436 42.7959 31.1249 41.3453 29.7279C40.6387 29.0467 40.8837 27.8642 41.0342 27.0118C41.2257 25.9309 41.4366 24.9879 41.0208 23.9287C40.4979 22.5972 39.1784 21.4111 37.7642 22.3932C37.4628 22.6027 37.2565 22.8953 37.1167 23.2323C36.7669 24.0741 36.8301 25.1919 36.8462 25.9858C36.8878 28.0096 37.0655 30.033 37.1716 32.0545C37.3456 35.3614 37.4255 38.7366 36.2102 41.8791C35.4252 43.908 32.9611 48.6632 36.8532 49.0477C38.7058 49.2304 39.4225 47.6446 39.6371 46.0435C39.7267 45.3725 39.3201 42.7828 40.2537 42.5313C40.9174 42.3527 41.7103 43.7068 41.9494 44.1868C42.7109 45.7177 42.9417 47.4517 43.5122 49.0537C44.1772 50.9229 46.5597 51.5261 48.032 50.3852C49.4189 49.3094 50.1315 47.2795 50.7919 45.7154C51.2885 44.5385 52.2005 42.8534 51.6513 41.5519C51.5608 41.3373 51.4468 41.1513 51.313 40.9879Z" fill="#41484D"/>
<path d="M31.4734 31.4999C29.6328 30.6922 19.5603 30.1153 21.6542 27.2307C23.7482 24.3461 29.5063 27.5768 31.4734 27.6922C33.4404 27.8076 34.0183 26.8569 34.5375 24.6789C35.0558 22.5 34.1567 20.6492 32.5173 20.3077C32.5173 20.3077 28.4392 19.3846 25.4014 19.1539C22.3636 18.9231 19.5944 18.8077 15.556 19.7308C11.5176 20.6538 10.0176 21.6923 10.9407 25.1538C11.8637 28.6153 14.2522 34.3845 21.6542 35.0768C29.0558 35.7691 29.5174 37.5081 28.1328 38.427C26.7482 39.3459 21.6713 39.1152 19.7098 38.5383C17.7483 37.9613 12.6945 35.2005 12.3945 38.4293C12.263 39.8421 11.8097 41.7773 12.5759 43.0954C12.5759 43.0954 13.0236 44.4616 17.3311 45.6154C21.4581 46.7208 24.9311 48.1201 30.2106 45.2674C30.4515 45.1446 30.6851 45.0117 30.9121 44.8714L30.9131 44.871C33.205 43.4513 34.7433 41.1085 34.5218 37.846C34.2481 33.8075 33.314 32.3076 31.4734 31.4999Z" fill="#41484D"/>
<path d="M33.9018 18.1081C33.9018 18.1081 33.7098 14.6812 34.2867 14.1426C34.8636 13.6045 36.4023 13.1429 37.7103 13.1812C39.0174 13.2195 37.9799 15.2969 38.8642 14.8737C39.7485 14.4504 39.2869 13.22 40.1712 12.7968C41.0564 12.3735 41.7478 12.1815 42.5177 12.566C43.2866 12.9505 43.0567 15.5272 43.018 16.4503C42.9792 17.3733 43.21 19.2965 42.1715 19.2965C41.1331 19.2965 41.6712 17.8736 40.6328 17.4887C39.8034 17.1818 39.8892 18.1962 39.7798 18.7141C39.4203 20.4185 37.1163 19.8928 36.8639 18.3735C36.7051 17.4246 36.0867 17.2358 35.6182 18.1109C35.3911 18.5336 35.5785 19.3432 35.152 19.6372C34.4293 20.1365 33.911 18.5733 33.9018 18.1081Z" fill="#585F65"/>
<path d="M52.8258 22.7315L52.823 22.7311C52.5558 21.1268 51.6996 19.667 51.8644 18.8431C52.0952 17.6925 51.7103 16.2862 50.7106 16.0665C49.7109 15.8464 49.326 18.1628 48.7878 17.9658C48.2488 17.7691 46.8642 17.2864 47.0183 16.0665C47.1725 14.8463 47.2491 14.0912 46.4026 13.7769C45.5571 13.4617 45.1219 13.2373 45.018 13.7769C45.018 13.7769 44.095 18.077 45.018 19.2308C45.9411 20.3846 47.0183 20.7691 48.1721 20.6925C49.326 20.6154 51.7112 19.9517 50.4032 22.36C50.4032 22.36 49.7741 22.9037 48.8511 22.6443C47.928 22.3845 44.149 20.3076 43.5434 22.1828L42.9374 24.0575C42.9374 24.0575 41.8418 27.6363 45.5049 26.8493C49.1677 26.0624 50.495 26.9712 51.5626 26.3075C52.6296 25.6443 53.339 25.1264 52.8258 22.7315Z" fill="#585F65"/>
</svg>
