<svg width="64" height="64" viewBox="0 0 64 64" fill="none" xmlns="http://www.w3.org/2000/svg">
  <rect width="64" height="64" fill="#DDE3EA"/>
  <mask id="mask0_1485_8000" style="mask-type:alpha" maskUnits="userSpaceOnUse" x="8" y="8" width="48" height="48">
    <rect x="8" y="8" width="48" height="48" fill="#D9D9D9"/>
  </mask>
  <g mask="url(#mask0_1485_8000)">
    <path d="M17 50C16.2 50 15.5 49.7 14.9 49.1C14.3 48.5 14 47.8 14 47V17C14 16.2 14.3 15.5 14.9 14.9C15.5 14.3 16.2 14 17 14H37.25L34.25 17H17V47H47V29.6L50 26.6V47C50 47.8 49.7 48.5 49.1 49.1C48.5 49.7 47.8 50 47 50H17ZM26 38V29.5L45.1 10.4C45.4 10.1 45.7333 9.88332 46.1 9.74999C46.4667 9.61665 46.8333 9.54999 47.2 9.54999C47.5667 9.54999 47.9386 9.62499 48.3159 9.77499C48.6931 9.92499 49.0378 10.15 49.35 10.45L53.5 14.65C53.787 14.9486 54.0087 15.2783 54.1652 15.6391C54.3217 15.9999 54.4 16.3669 54.4 16.7401C54.4 17.1134 54.325 17.4917 54.175 17.875C54.025 18.2583 53.8 18.6 53.5 18.9L34.5 38H26ZM29 35H33.25L45.9 22.35L41.6 18.15L29 30.7V35Z" fill="#236488"/>
  </g>
</svg>
