<svg width="360" height="160" viewBox="0 0 360 160" fill="none" xmlns="http://www.w3.org/2000/svg">
<g clip-path="url(#clip0_5137_13537)">
<rect width="360" height="160" fill="#FBFCFF"/>
<rect width="360" height="160" fill="#00658F" fill-opacity="0.05"/>
<g filter="url(#filter0_dddddd_5137_13537)">
<mask id="mask0_5137_13537" style="mask-type:alpha" maskUnits="userSpaceOnUse" x="132" y="32" width="96" height="96">
<rect x="132" y="32" width="96" height="96" fill="#D9D9D9"/>
</mask>
<g mask="url(#mask0_5137_13537)">
<path d="M132 104V98.7C132 96.1289 133.383 94.0361 136.15 92.4216C138.917 90.8072 142.546 90 147.038 90C147.849 90 148.628 90.0167 149.377 90.05C150.126 90.0833 150.867 90.1551 151.6 90.2652C151.067 91.4217 150.667 92.5939 150.4 93.7817C150.133 94.9695 150 96.2089 150 97.5V104H132ZM156 104V97.5C156 95.3667 156.583 93.4167 157.75 91.65C158.917 89.8833 160.567 88.3333 162.7 87C164.833 85.6667 167.383 84.6667 170.35 84C173.317 83.3333 176.533 83 180 83C183.533 83 186.783 83.3333 189.75 84C192.717 84.6667 195.267 85.6667 197.4 87C199.533 88.3333 201.167 89.8833 202.3 91.65C203.433 93.4167 204 95.3667 204 97.5V104H156ZM210 104V97.5C210 96.1759 209.883 94.9282 209.65 93.7569C209.417 92.5856 209.033 91.4242 208.5 90.2727C209.233 90.1576 209.972 90.0833 210.717 90.05C211.462 90.0167 212.223 90 213 90C217.5 90 221.125 90.7923 223.875 92.3768C226.625 93.9613 228 96.0691 228 98.7V104H210ZM162 98H198V97.4C198 94.9333 196.317 92.9167 192.95 91.35C189.583 89.7833 185.267 89 180 89C174.733 89 170.417 89.7833 167.05 91.35C163.683 92.9167 162 94.9667 162 97.5V98ZM146.957 87C145.052 87 143.417 86.3146 142.05 84.9438C140.683 83.5729 140 81.925 140 80C140 78.0667 140.685 76.4167 142.056 75.05C143.427 73.6833 145.075 73 147 73C148.933 73 150.583 73.6833 151.95 75.05C153.317 76.4167 154 78.0811 154 80.0433C154 81.9478 153.317 83.5833 151.95 84.95C150.583 86.3167 148.919 87 146.957 87ZM212.957 87C211.052 87 209.417 86.3146 208.05 84.9438C206.683 83.5729 206 81.925 206 80C206 78.0667 206.685 76.4167 208.056 75.05C209.427 73.6833 211.075 73 213 73C214.933 73 216.583 73.6833 217.95 75.05C219.317 76.4167 220 78.0811 220 80.0433C220 81.9478 219.317 83.5833 217.95 84.95C216.583 86.3167 214.919 87 212.957 87ZM180 80C176.667 80 173.833 78.8333 171.5 76.5C169.167 74.1667 168 71.3333 168 68C168 64.6 169.167 61.75 171.5 59.45C173.833 57.15 176.667 56 180 56C183.4 56 186.25 57.15 188.55 59.45C190.85 61.75 192 64.6 192 68C192 71.3333 190.85 74.1667 188.55 76.5C186.25 78.8333 183.4 80 180 80ZM180.035 74C181.745 74 183.167 73.4216 184.3 72.2649C185.433 71.1082 186 69.6748 186 67.9649C186 66.255 185.428 64.8333 184.285 63.7C183.142 62.5667 181.725 62 180.035 62C178.345 62 176.917 62.5716 175.75 63.7149C174.583 64.8582 174 66.2748 174 67.9649C174 69.655 174.578 71.0833 175.735 72.25C176.892 73.4167 178.325 74 180.035 74Z" fill="#00658F"/>
</g>
</g>
</g>
<defs>
<filter id="filter0_dddddd_5137_13537" x="-21" y="56" width="402" height="93" filterUnits="userSpaceOnUse" color-interpolation-filters="sRGB">
<feFlood flood-opacity="0" result="BackgroundImageFix"/>
<feColorMatrix in="SourceAlpha" type="matrix" values="0 0 0 0 0 0 0 0 0 0 0 0 0 0 0 0 0 0 127 0" result="hardAlpha"/>
<feOffset dx="144" dy="36"/>
<feGaussianBlur stdDeviation="4.5"/>
<feComposite in2="hardAlpha" operator="out"/>
<feColorMatrix type="matrix" values="0 0 0 0 0 0 0 0 0 0.396078 0 0 0 0 0.560784 0 0 0 0.0625 0"/>
<feBlend mode="normal" in2="BackgroundImageFix" result="effect1_dropShadow_5137_13537"/>
<feColorMatrix in="SourceAlpha" type="matrix" values="0 0 0 0 0 0 0 0 0 0 0 0 0 0 0 0 0 0 127 0" result="hardAlpha"/>
<feOffset dx="96" dy="18"/>
<feGaussianBlur stdDeviation="3.75"/>
<feComposite in2="hardAlpha" operator="out"/>
<feColorMatrix type="matrix" values="0 0 0 0 0 0 0 0 0 0.396078 0 0 0 0 0.560784 0 0 0 0.125 0"/>
<feBlend mode="normal" in2="effect1_dropShadow_5137_13537" result="effect2_dropShadow_5137_13537"/>
<feColorMatrix in="SourceAlpha" type="matrix" values="0 0 0 0 0 0 0 0 0 0 0 0 0 0 0 0 0 0 127 0" result="hardAlpha"/>
<feOffset dx="48" dy="6"/>
<feGaussianBlur stdDeviation="1.5"/>
<feComposite in2="hardAlpha" operator="out"/>
<feColorMatrix type="matrix" values="0 0 0 0 0 0 0 0 0 0.396078 0 0 0 0 0.560784 0 0 0 0.2 0"/>
<feBlend mode="normal" in2="effect2_dropShadow_5137_13537" result="effect3_dropShadow_5137_13537"/>
<feColorMatrix in="SourceAlpha" type="matrix" values="0 0 0 0 0 0 0 0 0 0 0 0 0 0 0 0 0 0 127 0" result="hardAlpha"/>
<feOffset dx="-48" dy="6"/>
<feGaussianBlur stdDeviation="1.5"/>
<feComposite in2="hardAlpha" operator="out"/>
<feColorMatrix type="matrix" values="0 0 0 0 0 0 0 0 0 0.396078 0 0 0 0 0.560784 0 0 0 0.2 0"/>
<feBlend mode="normal" in2="effect3_dropShadow_5137_13537" result="effect4_dropShadow_5137_13537"/>
<feColorMatrix in="SourceAlpha" type="matrix" values="0 0 0 0 0 0 0 0 0 0 0 0 0 0 0 0 0 0 127 0" result="hardAlpha"/>
<feOffset dx="-96" dy="18"/>
<feGaussianBlur stdDeviation="3.75"/>
<feComposite in2="hardAlpha" operator="out"/>
<feColorMatrix type="matrix" values="0 0 0 0 0 0 0 0 0 0.396078 0 0 0 0 0.560784 0 0 0 0.125 0"/>
<feBlend mode="normal" in2="effect4_dropShadow_5137_13537" result="effect5_dropShadow_5137_13537"/>
<feColorMatrix in="SourceAlpha" type="matrix" values="0 0 0 0 0 0 0 0 0 0 0 0 0 0 0 0 0 0 127 0" result="hardAlpha"/>
<feOffset dx="-144" dy="36"/>
<feGaussianBlur stdDeviation="4.5"/>
<feComposite in2="hardAlpha" operator="out"/>
<feColorMatrix type="matrix" values="0 0 0 0 0 0 0 0 0 0.396078 0 0 0 0 0.560784 0 0 0 0.0625 0"/>
<feBlend mode="normal" in2="effect5_dropShadow_5137_13537" result="effect6_dropShadow_5137_13537"/>
<feBlend mode="normal" in="SourceGraphic" in2="effect6_dropShadow_5137_13537" result="shape"/>
</filter>
<clipPath id="clip0_5137_13537">
<rect width="360" height="160" fill="white"/>
</clipPath>
</defs>
</svg>
