<svg width="360" height="160" viewBox="0 0 360 160" fill="none" xmlns="http://www.w3.org/2000/svg">
<g clip-path="url(#clip0_5137_13533)">
<rect width="360" height="160" fill="#FBFCFF"/>
<rect width="360" height="160" fill="#00658F" fill-opacity="0.05"/>
<g filter="url(#filter0_dddddd_5137_13533)">
<mask id="mask0_5137_13533" style="mask-type:alpha" maskUnits="userSpaceOnUse" x="132" y="32" width="96" height="96">
<rect x="132" y="32" width="96" height="96" fill="#D9D9D9"/>
</mask>
<g mask="url(#mask0_5137_13533)">
<path d="M145.998 120.004C144.398 120.004 142.998 119.404 141.798 118.204C140.598 117.004 139.998 115.604 139.998 114.004V66.0041C139.998 64.4041 140.598 63.0041 141.798 61.8041C142.998 60.6041 144.398 60.0041 145.998 60.0041H169.698V46.0041C169.698 44.4041 170.298 43.0041 171.498 41.8041C172.698 40.6041 174.098 40.0041 175.698 40.0041H184.398C185.998 40.0041 187.398 40.6041 188.598 41.8041C189.798 43.0041 190.398 44.4041 190.398 46.0041V60.0041H213.998C215.598 60.0041 216.998 60.6041 218.198 61.8041C219.398 63.0041 219.998 64.4041 219.998 66.0041V114.004C219.998 115.604 219.398 117.004 218.198 118.204C216.998 119.404 215.598 120.004 213.998 120.004H145.998ZM145.998 114.004H213.998V66.0041H190.398C190.398 67.8707 189.781 69.3374 188.548 70.4041C187.315 71.4707 185.765 72.0041 183.898 72.0041H176.098C174.298 72.0041 172.781 71.4707 171.548 70.4041C170.315 69.3374 169.698 67.8707 169.698 66.0041H145.998V114.004ZM155.198 103.304H179.098V101.904C179.098 100.704 178.798 99.6374 178.198 98.7041C177.598 97.7707 176.831 97.1374 175.898 96.8041C173.765 96.0707 172.098 95.5874 170.898 95.3541C169.698 95.1207 168.531 95.0041 167.398 95.0041C166.131 95.0041 164.781 95.1541 163.348 95.4541C161.915 95.7541 160.298 96.2041 158.498 96.8041C157.498 97.1374 156.698 97.7707 156.098 98.7041C155.498 99.6374 155.198 100.704 155.198 101.904V103.304ZM188.798 96.6041H205.798V91.6041H188.798V96.6041ZM167.398 91.6041C168.898 91.6041 170.173 91.0791 171.223 90.0291C172.273 88.9791 172.798 87.7041 172.798 86.2041C172.798 84.7041 172.273 83.4291 171.223 82.3791C170.173 81.3291 168.898 80.8041 167.398 80.8041C165.898 80.8041 164.623 81.3291 163.573 82.3791C162.523 83.4291 161.998 84.7041 161.998 86.2041C161.998 87.7041 162.523 88.9791 163.573 90.0291C164.623 91.0791 165.898 91.6041 167.398 91.6041ZM188.798 85.3041H205.798V80.3041H188.798V85.3041ZM175.698 66.0041H184.398V46.0041H175.698V66.0041Z" fill="#00658F"/>
</g>
</g>
</g>
<defs>
<filter id="filter0_dddddd_5137_13533" x="-13.002" y="40.0041" width="386" height="125" filterUnits="userSpaceOnUse" color-interpolation-filters="sRGB">
<feFlood flood-opacity="0" result="BackgroundImageFix"/>
<feColorMatrix in="SourceAlpha" type="matrix" values="0 0 0 0 0 0 0 0 0 0 0 0 0 0 0 0 0 0 127 0" result="hardAlpha"/>
<feOffset dx="144" dy="36"/>
<feGaussianBlur stdDeviation="4.5"/>
<feComposite in2="hardAlpha" operator="out"/>
<feColorMatrix type="matrix" values="0 0 0 0 0 0 0 0 0 0.396078 0 0 0 0 0.560784 0 0 0 0.0625 0"/>
<feBlend mode="normal" in2="BackgroundImageFix" result="effect1_dropShadow_5137_13533"/>
<feColorMatrix in="SourceAlpha" type="matrix" values="0 0 0 0 0 0 0 0 0 0 0 0 0 0 0 0 0 0 127 0" result="hardAlpha"/>
<feOffset dx="96" dy="18"/>
<feGaussianBlur stdDeviation="3.75"/>
<feComposite in2="hardAlpha" operator="out"/>
<feColorMatrix type="matrix" values="0 0 0 0 0 0 0 0 0 0.396078 0 0 0 0 0.560784 0 0 0 0.125 0"/>
<feBlend mode="normal" in2="effect1_dropShadow_5137_13533" result="effect2_dropShadow_5137_13533"/>
<feColorMatrix in="SourceAlpha" type="matrix" values="0 0 0 0 0 0 0 0 0 0 0 0 0 0 0 0 0 0 127 0" result="hardAlpha"/>
<feOffset dx="48" dy="6"/>
<feGaussianBlur stdDeviation="1.5"/>
<feComposite in2="hardAlpha" operator="out"/>
<feColorMatrix type="matrix" values="0 0 0 0 0 0 0 0 0 0.396078 0 0 0 0 0.560784 0 0 0 0.2 0"/>
<feBlend mode="normal" in2="effect2_dropShadow_5137_13533" result="effect3_dropShadow_5137_13533"/>
<feColorMatrix in="SourceAlpha" type="matrix" values="0 0 0 0 0 0 0 0 0 0 0 0 0 0 0 0 0 0 127 0" result="hardAlpha"/>
<feOffset dx="-48" dy="6"/>
<feGaussianBlur stdDeviation="1.5"/>
<feComposite in2="hardAlpha" operator="out"/>
<feColorMatrix type="matrix" values="0 0 0 0 0 0 0 0 0 0.396078 0 0 0 0 0.560784 0 0 0 0.2 0"/>
<feBlend mode="normal" in2="effect3_dropShadow_5137_13533" result="effect4_dropShadow_5137_13533"/>
<feColorMatrix in="SourceAlpha" type="matrix" values="0 0 0 0 0 0 0 0 0 0 0 0 0 0 0 0 0 0 127 0" result="hardAlpha"/>
<feOffset dx="-96" dy="18"/>
<feGaussianBlur stdDeviation="3.75"/>
<feComposite in2="hardAlpha" operator="out"/>
<feColorMatrix type="matrix" values="0 0 0 0 0 0 0 0 0 0.396078 0 0 0 0 0.560784 0 0 0 0.125 0"/>
<feBlend mode="normal" in2="effect4_dropShadow_5137_13533" result="effect5_dropShadow_5137_13533"/>
<feColorMatrix in="SourceAlpha" type="matrix" values="0 0 0 0 0 0 0 0 0 0 0 0 0 0 0 0 0 0 127 0" result="hardAlpha"/>
<feOffset dx="-144" dy="36"/>
<feGaussianBlur stdDeviation="4.5"/>
<feComposite in2="hardAlpha" operator="out"/>
<feColorMatrix type="matrix" values="0 0 0 0 0 0 0 0 0 0.396078 0 0 0 0 0.560784 0 0 0 0.0625 0"/>
<feBlend mode="normal" in2="effect5_dropShadow_5137_13533" result="effect6_dropShadow_5137_13533"/>
<feBlend mode="normal" in="SourceGraphic" in2="effect6_dropShadow_5137_13533" result="shape"/>
</filter>
<clipPath id="clip0_5137_13533">
<rect width="360" height="160" fill="white"/>
</clipPath>
</defs>
</svg>
