<svg width="64" height="26" viewBox="0 0 64 26" fill="none" xmlns="http://www.w3.org/2000/svg">
  <path
    d="M8.96 11.24C8.92 10.6 8.76667 9.99333 8.5 9.42C8.23333 8.84667 7.84667 8.38 7.34 8.02C6.83333 7.66 6.18667 7.48 5.4 7.48C4.57333 7.48 3.94 7.71333 3.5 8.18C3.06 8.64667 2.84 9.19333 2.84 9.82C2.84 10.38 3 10.8533 3.32 11.24C3.64 11.6133 4.05333 11.9467 4.56 12.24C5.08 12.52 5.62667 12.7933 6.2 13.06C6.70667 13.2867 7.21333 13.5333 7.72 13.8C8.22667 14.0533 8.68667 14.3467 9.1 14.68C9.51333 15.0133 9.84 15.4133 10.08 15.88C10.3333 16.3333 10.46 16.88 10.46 17.52C10.46 18.2533 10.2733 18.9067 9.9 19.48C9.54 20.0533 9.01333 20.5067 8.32 20.84C7.62667 21.16 6.78 21.32 5.78 21.32C5.18 21.32 4.56 21.2333 3.92 21.06C3.28 20.8867 2.71333 20.6333 2.22 20.3L2.32 21.16H1.28L1.16 16.9H1.94C2.00667 18.0733 2.41333 18.9667 3.16 19.58C3.90667 20.18 4.80667 20.48 5.86 20.48C6.38 20.48 6.86 20.3867 7.3 20.2C7.74 20 8.08667 19.7133 8.34 19.34C8.60667 18.9667 8.74 18.5133 8.74 17.98C8.74 17.38 8.58 16.88 8.26 16.48C7.94 16.08 7.52667 15.7333 7.02 15.44C6.51333 15.1467 5.97333 14.8667 5.4 14.6C4.89333 14.3733 4.39333 14.1333 3.9 13.88C3.40667 13.6267 2.95333 13.34 2.54 13.02C2.14 12.6867 1.81333 12.2933 1.56 11.84C1.32 11.3867 1.2 10.84 1.2 10.2C1.2 9.85333 1.26 9.48 1.38 9.08C1.5 8.68 1.70667 8.3 2 7.94C2.30667 7.56667 2.72 7.26667 3.24 7.04C3.77333 6.8 4.44667 6.68 5.26 6.68C5.76667 6.68 6.33333 6.75333 6.96 6.9C7.6 7.03333 8.19333 7.3 8.74 7.7L8.66 6.84H9.68V11.24H8.96ZM11.6477 21V20.34C12.1543 20.3133 12.501 20.2 12.6877 20C12.8743 19.7867 12.9743 19.5 12.9877 19.14C13.0143 18.7667 13.0277 18.3467 13.0277 17.88V9.24C13.0277 8.97333 13.0343 8.72 13.0477 8.48C13.061 8.22667 13.0743 8 13.0877 7.8C12.8477 7.81333 12.6077 7.82667 12.3677 7.84C12.1277 7.85333 11.8877 7.86667 11.6477 7.88V7H16.1477V7.66C15.6543 7.67333 15.3077 7.78667 15.1077 8C14.921 8.21333 14.8143 8.5 14.7877 8.86C14.7743 9.22 14.7677 9.64 14.7677 10.12V13.4H16.2677L18.7677 9.46C18.941 9.19333 19.1543 8.9 19.4077 8.58C19.661 8.26 19.921 7.99333 20.1877 7.78C19.9877 7.79333 19.781 7.8 19.5677 7.8C19.3677 7.8 19.1677 7.80667 18.9677 7.82V7H23.2677V7.66C22.7077 7.7 22.2077 7.79333 21.7677 7.94C21.3277 8.08667 20.9077 8.34667 20.5077 8.72C20.1077 9.08 19.681 9.62667 19.2277 10.36L17.2677 13.48C17.6543 13.7067 17.9677 13.9733 18.2077 14.28C18.4477 14.5733 18.6877 14.8733 18.9277 15.18L21.1677 18.16C21.6743 18.8267 22.0877 19.32 22.4077 19.64C22.741 19.9467 23.0343 20.14 23.2877 20.22C23.5543 20.3 23.8277 20.34 24.1077 20.34V21H21.6677C21.5343 21 21.3543 20.9067 21.1277 20.72C20.9143 20.5333 20.681 20.2933 20.4277 20C20.1743 19.6933 19.9143 19.3733 19.6477 19.04L17.2477 15.8C16.9943 15.4667 16.741 15.1533 16.4877 14.86C16.2343 14.5533 15.9877 14.3267 15.7477 14.18L14.7677 14.2V18.62C14.7677 18.98 14.761 19.2933 14.7477 19.56C14.7477 19.8133 14.7343 20.0267 14.7077 20.2C14.9477 20.1867 15.1877 20.1733 15.4277 20.16C15.6677 20.1467 15.9077 20.1333 16.1477 20.12V21H11.6477ZM35.9139 15.82C35.9139 15.2333 35.8339 14.8133 35.6739 14.56C35.5139 14.3067 35.2606 14.1533 34.9139 14.1C34.5672 14.0467 34.1072 14.0333 33.5339 14.06L32.0739 14.12V18.7C32.0739 19.06 32.0672 19.3667 32.0539 19.62C32.0539 19.8733 32.0406 20.0867 32.0139 20.26L35.8339 20.2C36.4206 20.1867 36.9272 20.0933 37.3539 19.92C37.7806 19.7333 38.1139 19.4133 38.3539 18.96C38.5939 18.5067 38.7139 17.8867 38.7139 17.1H39.3939L39.2739 21H28.9539V20.34C29.4606 20.3133 29.8072 20.2 29.9939 20C30.1806 19.7867 30.2806 19.5 30.2939 19.14C30.3206 18.7667 30.3339 18.3467 30.3339 17.88V9.24C30.3339 8.97333 30.3406 8.72 30.3539 8.48C30.3672 8.22667 30.3806 8 30.3939 7.8C30.1539 7.81333 29.9139 7.82667 29.6739 7.84C29.4339 7.85333 29.1939 7.86667 28.9539 7.88V7H38.5739L38.6739 10.5H38.0139C38.0139 9.71333 37.8939 9.12 37.6539 8.72C37.4139 8.30667 37.0872 8.03333 36.6739 7.9C36.2739 7.75333 35.8206 7.68667 35.3139 7.7L33.5939 7.74C33.1006 7.75333 32.7472 7.84667 32.5339 8.02C32.3206 8.19333 32.1872 8.45333 32.1339 8.8C32.0939 9.13333 32.0739 9.57333 32.0739 10.12V13.32L35.8339 13.34L35.6939 11.62H36.5739V15.82H35.9139ZM40.5953 21V20.34C41.102 20.3133 41.4486 20.2 41.6353 20C41.822 19.7867 41.922 19.5 41.9353 19.14C41.962 18.7667 41.9753 18.3467 41.9753 17.88V9.24C41.9753 8.97333 41.982 8.72 41.9953 8.48C42.0086 8.22667 42.022 8 42.0353 7.8C41.7953 7.81333 41.5553 7.82667 41.3153 7.84C41.0753 7.85333 40.8353 7.86667 40.5953 7.88V7H45.0953V7.66C44.602 7.67333 44.2553 7.78667 44.0553 8C43.8686 8.21333 43.762 8.5 43.7353 8.86C43.722 9.22 43.7153 9.64 43.7153 10.12V18.7C43.7153 19.06 43.7086 19.3667 43.6953 19.62C43.6953 19.8733 43.682 20.0867 43.6553 20.26L47.3953 20.2C48.2353 20.1867 48.8686 19.92 49.2953 19.4C49.7353 18.88 49.9553 18.0333 49.9553 16.86H50.6353L50.5153 21H40.5953ZM62.0272 11.46C61.8939 10.2067 61.4539 9.23333 60.7072 8.54C59.9739 7.84667 59.0272 7.5 57.8672 7.5C57.1605 7.5 56.4939 7.65333 55.8672 7.96C55.2539 8.25333 54.7139 8.68 54.2472 9.24C53.7805 9.8 53.4139 10.4733 53.1472 11.26C52.8805 12.0467 52.7472 12.9333 52.7472 13.92C52.7472 15.1733 52.9872 16.28 53.4672 17.24C53.9472 18.2 54.5939 18.9467 55.4072 19.48C56.2205 20.0133 57.1205 20.28 58.1072 20.28C58.9739 20.28 59.8272 20.0867 60.6672 19.7C61.5072 19.3 62.1939 18.7267 62.7272 17.98L63.2472 18.4C62.6739 19.1867 62.0539 19.7933 61.3872 20.22C60.7205 20.6467 60.0539 20.9333 59.3872 21.08C58.7339 21.24 58.1339 21.32 57.5872 21.32C56.5872 21.32 55.6672 21.14 54.8272 20.78C54.0005 20.42 53.2805 19.92 52.6672 19.28C52.0672 18.6267 51.6005 17.8733 51.2672 17.02C50.9472 16.1533 50.7872 15.22 50.7872 14.22C50.7872 13.2733 50.9272 12.3533 51.2072 11.46C51.5005 10.5667 51.9339 9.76 52.5072 9.04C53.0805 8.32 53.8005 7.74667 54.6672 7.32C55.5472 6.89333 56.5672 6.68 57.7272 6.68C58.4739 6.68 59.1805 6.78 59.8472 6.98C60.5139 7.18 61.1539 7.48667 61.7672 7.9L61.6672 6.82H62.7472V11.46H62.0272Z"
    fill="black" />
</svg>