<svg width="73" height="26" viewBox="0 0 73 26" fill="none" xmlns="http://www.w3.org/2000/svg">
<path d="M13.1591 12.1705H8.82955C8.80682 11.9034 8.71307 11.6733 8.5483 11.4801C8.38352 11.2869 8.17045 11.1392 7.90909 11.0369C7.65341 10.929 7.36932 10.875 7.05682 10.875C6.65341 10.875 6.30682 10.9489 6.01705 11.0966C5.72727 11.2443 5.58523 11.4545 5.59091 11.7273C5.58523 11.9205 5.66761 12.0994 5.83807 12.2642C6.0142 12.429 6.35227 12.5568 6.85227 12.6477L9.51136 13.125C10.8523 13.3693 11.8494 13.7812 12.5028 14.3608C13.1619 14.9347 13.4943 15.7045 13.5 16.6705C13.4943 17.6023 13.2159 18.4119 12.6648 19.0994C12.1193 19.7812 11.3722 20.3097 10.4233 20.6847C9.48011 21.054 8.40341 21.2386 7.19318 21.2386C5.19318 21.2386 3.62784 20.8295 2.49716 20.0114C1.37216 19.1932 0.744318 18.1136 0.613636 16.7727H5.28409C5.34659 17.1875 5.55114 17.5085 5.89773 17.7358C6.25 17.9574 6.69318 18.0682 7.22727 18.0682C7.65909 18.0682 8.0142 17.9943 8.29261 17.8466C8.5767 17.6989 8.72159 17.4886 8.72727 17.2159C8.72159 16.9659 8.59659 16.767 8.35227 16.6193C8.11364 16.4716 7.73864 16.3523 7.22727 16.2614L4.90909 15.8523C3.57386 15.6193 2.57386 15.1761 1.90909 14.5227C1.24432 13.8693 0.914773 13.0284 0.920455 12C0.914773 11.0909 1.15341 10.321 1.63636 9.69034C2.125 9.05398 2.82102 8.57102 3.72443 8.24148C4.63352 7.90625 5.71023 7.73864 6.95455 7.73864C8.84659 7.73864 10.3381 8.13068 11.429 8.91477C12.5256 9.69886 13.1023 10.7841 13.1591 12.1705Z" fill="#FFAFD5"/>
<path d="M18.7298 17.8977L18.7639 12.3068H19.3776L22.548 7.90909H27.8321L22.5139 14.7614H21.1844L18.7298 17.8977ZM14.5026 21V3.54545H19.2071V21H14.5026ZM22.5821 21L19.5821 15.8182L22.6503 12.4773L27.9685 21H22.5821Z" fill="#80CFFF"/>
<path d="M28.2572 21V7.90909H32.9618V21H28.2572ZM30.6095 6.54545C29.9732 6.54545 29.4277 6.33523 28.9732 5.91477C28.5186 5.49432 28.2913 4.98864 28.2913 4.39773C28.2913 3.80682 28.5186 3.30114 28.9732 2.88068C29.4277 2.46023 29.9732 2.25 30.6095 2.25C31.2516 2.25 31.797 2.46023 32.2459 2.88068C32.7004 3.30114 32.9277 3.80682 32.9277 4.39773C32.9277 4.98864 32.7004 5.49432 32.2459 5.91477C31.797 6.33523 31.2516 6.54545 30.6095 6.54545ZM46.5247 12.1705H42.1952C42.1724 11.9034 42.0787 11.6733 41.9139 11.4801C41.7491 11.2869 41.5361 11.1392 41.2747 11.0369C41.019 10.929 40.7349 10.875 40.4224 10.875C40.019 10.875 39.6724 10.9489 39.3827 11.0966C39.0929 11.2443 38.9509 11.4545 38.9565 11.7273C38.9509 11.9205 39.0332 12.0994 39.2037 12.2642C39.3798 12.429 39.7179 12.5568 40.2179 12.6477L42.877 13.125C44.2179 13.3693 45.2151 13.7812 45.8685 14.3608C46.5276 14.9347 46.8599 15.7045 46.8656 16.6705C46.8599 17.6023 46.5815 18.4119 46.0304 19.0994C45.4849 19.7812 44.7378 20.3097 43.7889 20.6847C42.8457 21.054 41.769 21.2386 40.5588 21.2386C38.5588 21.2386 36.9935 20.8295 35.8628 20.0114C34.7378 19.1932 34.1099 18.1136 33.9793 16.7727H38.6497C38.7122 17.1875 38.9168 17.5085 39.2634 17.7358C39.6156 17.9574 40.0588 18.0682 40.5929 18.0682C41.0247 18.0682 41.3798 17.9943 41.6582 17.8466C41.9423 17.6989 42.0872 17.4886 42.0929 17.2159C42.0872 16.9659 41.9622 16.767 41.7179 16.6193C41.4793 16.4716 41.1043 16.3523 40.5929 16.2614L38.2747 15.8523C36.9395 15.6193 35.9395 15.1761 35.2747 14.5227C34.6099 13.8693 34.2804 13.0284 34.2861 12C34.2804 11.0909 34.519 10.321 35.002 9.69034C35.4906 9.05398 36.1866 8.57102 37.0901 8.24148C37.9991 7.90625 39.0759 7.73864 40.3202 7.73864C42.2122 7.73864 43.7037 8.13068 44.7946 8.91477C45.8912 9.69886 46.4679 10.7841 46.5247 12.1705ZM54.175 21.2386C52.7545 21.2386 51.5386 20.9574 50.5273 20.3949C49.5159 19.8267 48.7403 19.0369 48.2006 18.0256C47.6608 17.0085 47.3909 15.8295 47.3909 14.4886C47.3909 13.1477 47.6608 11.9716 48.2006 10.9602C48.7403 9.94318 49.5159 9.15341 50.5273 8.59091C51.5386 8.02273 52.7545 7.73864 54.175 7.73864C55.5955 7.73864 56.8114 8.02273 57.8227 8.59091C58.8341 9.15341 59.6097 9.94318 60.1494 10.9602C60.6892 11.9716 60.9591 13.1477 60.9591 14.4886C60.9591 15.8295 60.6892 17.0085 60.1494 18.0256C59.6097 19.0369 58.8341 19.8267 57.8227 20.3949C56.8114 20.9574 55.5955 21.2386 54.175 21.2386ZM54.2091 17.7614C54.6068 17.7614 54.9506 17.6278 55.2403 17.3608C55.5301 17.0937 55.7545 16.7131 55.9136 16.2188C56.0727 15.7244 56.1523 15.1364 56.1523 14.4545C56.1523 13.767 56.0727 13.179 55.9136 12.6903C55.7545 12.196 55.5301 11.8153 55.2403 11.5483C54.9506 11.2812 54.6068 11.1477 54.2091 11.1477C53.7886 11.1477 53.4278 11.2812 53.1267 11.5483C52.8256 11.8153 52.5955 12.196 52.4364 12.6903C52.2773 13.179 52.1977 13.767 52.1977 14.4545C52.1977 15.1364 52.2773 15.7244 52.4364 16.2188C52.5955 16.7131 52.8256 17.0937 53.1267 17.3608C53.4278 17.6278 53.7886 17.7614 54.2091 17.7614Z" fill="white"/>
<path d="M61.65 8.35L63.775 6.25C64.7583 7.23333 65.5417 8.3875 66.125 9.7125C66.7083 11.0375 67 12.4667 67 14C67 15.5333 66.7125 16.9625 66.1375 18.2875C65.5625 19.6125 64.775 20.7667 63.775 21.75L61.65 19.65C62.3833 18.9167 62.9583 18.0667 63.375 17.1C63.7917 16.1333 64 15.1 64 14C64 12.9 63.7917 11.8667 63.375 10.9C62.9583 9.93333 62.3833 9.08333 61.65 8.35ZM65.9 4.125L68.025 2C69.5917 3.53333 70.8125 5.325 71.6875 7.375C72.5625 9.425 73 11.6333 73 14C73 16.3667 72.5625 18.575 71.6875 20.625C70.8125 22.675 69.5917 24.4667 68.025 26L65.9 23.875C67.1833 22.5917 68.1875 21.1083 68.9125 19.425C69.6375 17.7417 70 15.9333 70 14C70 12.0667 69.6375 10.2583 68.9125 8.575C68.1875 6.89167 67.1833 5.40833 65.9 4.125Z" fill="#E4C521"/>
</svg>
