<svg width="96" height="96" viewBox="0 0 96 96" fill="none" xmlns="http://www.w3.org/2000/svg">
  <path
    d="M62.7636 12.4472C61.9636 12.9217 59.6364 12.9582 53.7818 12.5932C47.2727 12.1916 45.3818 12.9947 45.4909 16.2434C45.6 19.3095 44.6182 20.0031 43.6 17.5574C41.8182 13.3597 33.3455 13.1407 28.2182 17.1924C27.0182 18.1415 24.1818 20.1491 21.9637 21.6091C17.9273 24.2738 17.9273 24.2738 17.7455 27.5589C17.4182 32.9977 15.3091 37.378 10.6546 42.2692C8.29092 44.7148 8.29092 45.1529 10.2182 48.8761C12.3273 52.9278 14.0727 53.7308 17.3818 52.0517C18.3273 51.5772 19.7455 50.9932 20.5455 50.7376C21.3455 50.4821 22.1091 50.1901 22.2546 50.0441C22.6546 49.7156 21.5273 42.4152 20.9091 41.1376C19.9637 39.2395 20.2182 38.035 22.2546 35.0783C23.2727 33.5453 24.2546 32.2312 24.3637 32.1217C24.4727 32.0122 24.9455 31.3551 25.3818 30.5886C27.3455 27.3764 30.1818 25.8434 35.0909 25.3688C36.9818 25.1863 38.2909 24.7848 40.1455 23.8357C43.8546 21.9377 50.2546 20.4776 54.9091 20.4411C60.2182 20.4411 66.4 25.0768 67.4546 29.8221C67.6727 30.9171 67.8909 31.0631 69.7455 31.5742C70.8727 31.8662 72.6182 32.3772 73.6364 32.6692C75.7818 33.2897 76.8 32.6692 77.4909 30.2601C78.3636 27.4129 76.8364 24.8213 73.2727 23.0327C70.9091 21.8646 69.0546 19.8205 66.5455 15.7323C64.2546 12.0091 64 11.7536 62.7636 12.4472Z"
    fill="#E20098" />
  <path
    d="M52 22.9232C52 23.1057 52.9455 23.6167 54.1091 24.0548C58.6545 25.9164 62.4364 28.6905 63.6727 31.0631C64.5091 32.7422 65.0909 32.8882 65.0909 31.4281C65.0909 27.5224 62.4364 24.7483 57.1273 23.1422C55.3091 22.5947 52 22.4487 52 22.9232Z"
    fill="#E20098" />
  <path
    d="M42 25.8799C38.8 27.3764 38.4 27.997 38.2546 31.3551C38.1091 34.9323 38.2909 35.1878 40.7636 34.8958C43.7091 34.5308 43.6727 34.5673 43.7455 30.0411C43.7818 27.2669 43.9636 25.8434 44.3273 25.4418C45.0182 24.5658 44.5091 24.6753 42 25.8799Z"
    fill="#E20098" />
  <path
    d="M46.5818 25.9893C46.3636 26.6464 46.1091 27.8874 45.9636 28.727C45.6727 30.5521 45.7455 30.5521 48.7273 29.749C52.9455 28.6175 55.4182 29.1285 59.3091 31.9757C62.4727 34.2753 63.1273 33.4357 60.4 30.5521C57.6 27.5954 51.7818 24.8213 48.3273 24.8213C47.1273 24.8213 46.9091 24.9308 46.5818 25.9893Z"
    fill="#E20098" />
  <path
    d="M33.0909 27.5225C29.3818 28.508 27.6727 30.4426 27.0546 34.3118C26.8 35.7719 26.8364 35.8814 27.4909 35.6259C28.7637 35.0783 32.1818 34.3483 33.3455 34.3118C34.7273 34.3118 35.0182 33.9468 35.1273 31.9757C35.1637 31.1361 35.2364 30.2966 35.2364 30.0411C35.2727 29.8221 35.6727 29.1285 36.1818 28.5445C37.5273 26.9384 36.5091 26.5734 33.0909 27.5225Z"
    fill="#E20098" />
  <path
    d="M67.1636 34.2023C67.0182 34.3118 66.9091 35.4799 66.9091 36.7939C66.9091 39.13 66.9091 39.1666 68.8364 41.2107C69.8545 42.3422 71.0545 43.9483 71.4545 44.7513C71.8545 45.5179 72.2909 46.2479 72.4 46.3574C72.7273 46.6494 73.8182 51.7962 73.8182 53.1468C73.8182 54.3513 72.8364 57.308 72.3273 57.673C72.1818 57.7825 71.8182 58.4761 71.5273 59.2061C70.9454 60.5567 68.9091 62.3088 66.9091 63.1483C66.3273 63.4038 65.8182 63.8783 65.8182 64.2069C65.8182 65.2289 60.4364 70.0107 58.5818 70.5947C53.1636 72.3833 43.6364 72.7118 39.3818 71.2152C34.2182 69.4631 29.2 65.5939 25.8182 60.8487C25.1636 59.8996 24.4727 59.1331 24.3273 59.1331C23.8909 59.1331 23.2727 56.6145 23.2727 54.9354C23.2727 52.5993 22.9454 52.3802 20.8364 53.0738C14.6909 55.1179 14 59.4616 18.6909 66.2875C19.8182 67.857 21.3818 70.5217 22.2182 72.1643C24.4364 76.581 26.4727 77.8221 29.6364 76.727C31.8909 75.924 33.3454 75.997 35.1636 76.9825C35.6364 77.2015 37.7818 77.4935 39.9636 77.6396C44.4364 77.8951 45.0182 77.7491 50.3273 75.1574C53.6727 73.4783 54.0364 73.4418 55.0909 74.6099C57.4545 77.165 64.7636 76.8 66.8727 74.0259C69.0182 71.2152 72.1818 68.7696 77.2727 65.8859C81.2364 63.6593 84.1818 61.8707 84.4 61.5787C84.5091 61.4327 84.3273 60.1916 83.9273 58.8411C83.4182 56.9065 83.2727 55.1179 83.2727 50.2631C83.2727 43.1088 83.1273 42.5612 80.2909 39.5681C77.1273 36.2099 68.6182 32.7057 67.1636 34.2023Z"
    fill="#E20098" />
  <path
    d="M62.6546 35.2243C61.8546 35.8084 61.8546 35.8084 62.5818 37.67C63.3091 39.5316 63.3091 39.5316 62.5455 42.0137C61.6727 44.9338 61.6727 44.9338 62.3637 44.6783C63.5637 44.2038 64.9091 41.1742 64.9091 38.8745C64.9091 34.9688 64.3273 34.0563 62.6546 35.2243Z"
    fill="#E20098" />
  <path
    d="M66.0727 42.5977C65.0909 44.4593 63.5273 46.0654 60.5818 48.1095C58.6182 49.4601 58.5818 50.0076 60.4 50.5552C61.0909 50.7742 62.0364 51.1392 62.4727 51.3947C64.2546 52.4167 66.7273 48.7666 67.2727 44.3498C67.7455 40.7361 67.3091 40.1521 66.0727 42.5977Z"
    fill="#E20098" />
  <path
    d="M69.3455 45.2624C69.2364 45.5544 69.0546 46.4304 68.9455 47.2335C68.5091 50.4091 64.4364 56.943 62.0364 58.2935C61.1273 58.8046 61.1273 61.6517 62.0364 62.3088C63.4182 63.3308 64.4 63.2943 65.2364 62.2358C65.6727 61.6882 66.7636 60.8852 67.6364 60.4472C70.4364 59.0966 70.7273 58.3666 70.6909 52.8183C70.6546 48.219 69.8909 43.8388 69.3455 45.2624Z"
    fill="#E20098" />
  <path
    d="M28.5818 60.1916C27.5636 61.8342 33.0182 66.324 38.9091 68.6966C42.7636 70.2297 45.2727 70.5947 48.8 70.1202C50.4364 69.8646 53.0182 69.5361 54.4364 69.3536C58.4 68.8426 62.1455 66.6525 61.6 65.1924C61.3455 64.4989 61.3818 64.4989 58.9091 65.1559C54.7273 66.2875 48.8727 65.5939 46.6545 63.7323C43.2364 60.8487 42.1455 60.5567 37.6364 61.3597C35.6727 61.6882 35.1636 61.6517 33.2364 60.9582C30.4727 59.9361 28.8727 59.6806 28.5818 60.1916Z"
    fill="#E20098" />
  <path
    d="M50.6545 30.7346C50.4727 30.9901 50.1818 31.5011 50.0727 31.8297C49.7454 32.7057 49.0909 32.6692 49.0909 31.7567C49.0909 30.9171 47.9636 30.7711 46.3636 31.3916C45.4545 31.7202 45.4182 31.8662 45.5273 34.0198C45.6364 36.3559 46.2909 37.2319 46.6909 35.5894C46.9818 34.4213 47.5636 34.4213 48 35.5894C48.2545 36.2099 48.6182 36.5019 49.2364 36.5019C49.8545 36.5019 50.1818 36.2464 50.3273 35.5894C50.6182 34.4943 51.4909 34.3848 51.7454 35.4434C52.2182 37.2319 52.9091 35.8814 52.9091 33.1802C52.9091 30.5521 52.8727 30.4791 51.9636 30.3696C51.4545 30.2966 50.8727 30.4791 50.6545 30.7346Z"
    fill="#595F65" />
  <path
    d="M54.7636 32.1582C54.0727 35.7719 54.9091 37.232 57.7454 37.232C59.7818 37.232 60.1091 37.4145 59.6 38.3635C59.1636 39.2031 58.5818 39.2396 56.3273 38.4365C54.1454 37.6335 53.4545 38.108 53.2 40.6266C52.9454 42.7072 53.0545 42.7437 57.2727 42.4517C61.7818 42.1597 62.1818 41.7582 61.3091 38.327C60.9818 37.0859 60.7273 35.5894 60.7273 35.0053C60.7273 33.5453 59.7454 33.1802 58.8364 34.3118C57.9273 35.4434 56.9454 34.8958 56.8 33.1802C56.6909 32.0852 55.9273 31.0266 55.2364 31.0266C55.1273 31.0266 54.9091 31.5377 54.7636 32.1582Z"
    fill="#595F65" />
  <path
    d="M29.2727 36.6844C28.2909 36.9764 27.3454 37.1954 27.2363 37.2319C26.5818 37.2684 25.4545 38.8745 25.4545 39.7871C25.4545 41.5757 26.9091 44.9338 28.4363 46.5764C30.2545 48.584 31.6363 49.2046 35.6 49.8251C39.0909 50.4091 40.5818 50.9202 40.8727 51.6867C41.4909 53.3293 35.6727 53.6943 31.6 52.2342C28.0363 50.9932 27.1636 51.2122 26.8 53.4388C26.2545 56.724 27.2363 57.7825 32 59.0966C41.0545 61.6152 47.5273 57.0525 45.4545 49.6061C44.8727 47.489 43.8182 46.8319 39.8182 45.9924C34.8 44.9703 33.4182 43.9118 35.3454 42.5612C36.4363 41.7947 37.7818 41.8312 40.8363 42.7437C43.7454 43.6198 44.8 43.4738 45.3818 42.1597C45.9636 40.9186 45.9273 38.619 45.3818 37.8525C44.2545 36.3559 33.3091 35.5529 29.2727 36.6844Z"
    fill="#41484D" />
  <path
    d="M48.4 39.2031C48.1091 39.5681 48 41.7947 48.0727 46.5764C48.1454 53.0738 48.1091 53.5848 47.3091 55.6654C45.6364 59.8996 45.8545 61.6882 48.0727 61.6882C49.4182 61.6882 50.1818 60.4472 50.1818 58.33C50.1818 55.0814 51.8545 55.9574 52.9454 59.7901C54.4727 65.0464 57.5636 64.6084 59.8182 58.8411C61.1273 55.5194 60.8727 54.7529 58.2545 53.8768C56.2909 53.2198 54.4 51.7232 54.6182 50.9932C54.6909 50.7742 55.6727 50.0441 56.8 49.4601C60.5091 47.4525 61.1636 46.3209 59.4182 44.9338C58.1818 43.9483 56.1454 43.9483 54.7273 44.8973C52.3273 46.4669 51.0909 45.5909 51.4545 42.5977C51.8545 39.5681 49.8909 37.4145 48.4 39.2031Z"
    fill="#41484D" />
  <path
    d="M7.45453 22.4487C4.1818 23.2882 1.45453 24.3103 1.45453 24.6388C1.45453 24.7483 2.1818 26.3544 3.01817 28.216C3.89089 30.0411 5.01817 32.5597 5.49089 33.7278C6.43635 36.0274 8.76362 38.8745 10.0363 39.2395C11.2727 39.5681 15.7091 32.6327 14.9818 31.5011C14.8363 31.2821 13.8545 30.6981 12.8363 30.1506C11.7818 29.6395 10.9091 28.946 10.9091 28.6905C10.9091 27.7414 12.0363 27.7414 13.7454 28.654C15.8182 29.749 15.8545 29.676 16.0727 25.4418C16.2182 22.2662 16.2182 22.2662 14.9454 21.9011C12.9454 21.3536 11.0545 21.4996 7.45453 22.4487Z"
    fill="#B50077" />
  <path
    d="M83.4909 40.4076C84.1818 41.2836 84.7272 42.1597 84.7272 42.3422C84.7272 42.5247 85.9272 42.7072 87.3818 42.7802C89.7818 42.8897 90 42.9627 90.1091 43.6928C90.2182 44.4593 90.0727 44.4958 87.7454 44.6053C84.9454 44.7148 84.7636 45.0433 85.2727 49.168C85.4909 51.0661 85.4909 51.0661 90.1818 48.803C92.7636 47.562 94.8727 46.3574 94.8727 46.1384C94.9091 45.5179 87.7818 40.5171 85.8182 39.7506C82.3272 38.4365 82.0363 38.5095 83.4909 40.4076Z"
    fill="#B50077" />
  <path
    d="M86.6182 61.1407C87.0545 61.6152 85.5272 63.4038 84 64.2798C83.2 64.7544 82.5454 65.2654 82.5454 65.4114C82.5454 65.5939 82.3611 65.488 82.2545 65.5574C82.1111 65.6508 81.9272 65.5939 81.9272 65.8494C81.9272 66.1049 82.5818 66.7255 83.3454 67.2C84.7272 68.076 85.1636 69.2076 84.2182 69.5726C83.9636 69.6821 82.6545 69.1711 81.3091 68.4411C78.9091 67.0905 78.9091 67.0905 76.1454 68.8791C74.6182 69.8281 73.0182 70.8137 72.5818 71.0692C72.1454 71.3247 71.4182 71.9452 70.9091 72.4563C69.8545 73.5878 69.8545 73.6243 74.9091 76.3255C77.8182 77.895 80.1454 77.603 85.3091 75.0479C88.5454 73.4783 90.1818 72.8943 91.7454 72.7483C92.9818 72.6023 93.9636 72.3468 94.0727 72.0547C94.4363 71.0692 89.3818 63.1118 87.4545 61.6517C86.8727 61.1772 86.4727 60.9582 86.6182 61.1407Z"
    fill="#B50077" />
  <path
    d="M83.5 26.5C82.5 24.5 76.5 18 75 18C73.5 18 73.3 18.1 72.5 18.5L72.5 18.5C72 18.6667 71.3 19.2 72.5 20C74.6667 21.5 79.1 25 79.5 27C79.6667 28 79.7 30.6 78.5 33C78.1667 33.5 77.7 34.7 78.5 35.5C78.6667 35.8334 79.3 36.3 80.5 35.5C82 34.5 83.5 33 84 30.5C84.1667 29.5 84.5 28.5 83.5 26.5Z"
    fill="#20B6F9" />
  <path
    d="M23.5 78C20.4998 76.5 14.5002 61 13.5 61C12.4999 61 12.2548 65.7547 13.9998 67.5C15.7449 69.2452 19.5 73.5 21.4998 80C23.4997 86.5 30.4998 82 30.4998 82C30.4998 82 39.4997 81 40.4998 81C41.5 81 43.5 80 41.4998 80C39.4997 80 32 77.5 30.9998 78.5C29.9997 79.5 26.5002 79.5 23.5 78Z"
    fill="#20B6F9" />
  <path
    d="M35.4998 8.49998C39 8.99998 43.4997 12 43.9998 13C44.5 14 43 14.5 42 14C41 13.5 41.4 13.3 39 12.5C37.1667 12 32.4 11.8 28 15C25.5 16.8333 20.4 20.5 19.9999 20.5C19.6665 20.5 19.0999 20.3 19.4999 19.5C19.6665 19.1666 19.8999 18.2 19.4998 17C19.3332 16.5 19.1998 15.5 19.9998 15.5C21.1665 15.5 25 14 26.9998 12C28.9997 9.99995 31.9997 7.99998 35.4998 8.49998Z"
    fill="#20B6F9" />
</svg>